<svg width="32" height="32" viewBox="0 0 32 32" fill="none" xmlns="http://www.w3.org/2000/svg">
<circle cx="16" cy="16.0002" r="16" fill="#FCE8E8"/>
<path fill-rule="evenodd" clip-rule="evenodd" d="M16.9583 4.74954C16.404 3.79206 15.5221 3.79206 14.9678 4.74954L4.90162 22.4755C4.34729 23.4456 4.80084 24.2141 5.9095 24.2141H10.9615C11.9819 24.1511 12.9016 23.6094 13.456 22.7527L19.541 12.2078C19.9819 11.3007 19.9819 10.2299 19.541 9.32277L17.7268 6.13537L16.9583 4.74954ZM23.6483 16.4156C23.094 15.4581 22.1995 15.4581 21.6452 16.4156L18.1302 22.4754C17.5885 23.4329 18.042 24.214 19.1381 24.214H26.0924C27.2011 24.214 27.6546 23.4329 27.1003 22.4754L23.6483 16.4156Z" fill="#E84142"/>
</svg>
