<svg width="103" height="48" viewBox="0 0 103 48" fill="none" xmlns="http://www.w3.org/2000/svg">
<path d="M8.26916 23.7924L6.09116 25.9685L3.91504 23.7924L6.09116 21.6162L8.26916 23.7924ZM13.5494 18.5083L17.2786 22.2393L19.4547 20.0632L13.5494 14.158L7.64418 20.0632L9.8203 22.2393L13.5494 18.5083ZM21.0096 21.6162L18.8335 23.7924L21.0096 25.9685L23.1839 23.7924L21.0096 21.6162ZM13.5494 29.0764L9.8203 25.3473L7.64418 27.5215L13.5494 33.4268L19.4547 27.5215L17.2786 25.3473L13.5494 29.0764ZM13.5494 25.9685L15.7256 23.7924L13.5494 21.6162L11.3733 23.7924L13.5494 25.9685ZM36.5154 26.1774V26.1473C36.5154 24.7279 35.7624 24.0183 34.537 23.5514C35.2899 23.1279 35.9262 22.4634 35.9262 21.2718V21.2416C35.9262 19.5813 34.5972 18.5083 32.438 18.5083H27.5361V29.0764H32.5623C34.9473 29.0764 36.5192 28.1107 36.5192 26.1774H36.5154ZM33.6164 21.6595C33.6164 22.4445 32.967 22.7777 31.941 22.7777H29.8007V20.547H32.0954C33.0762 20.547 33.6202 20.9386 33.6202 21.6332L33.6164 21.6595ZM34.2056 25.8875C34.2056 26.6725 33.5863 27.034 32.5585 27.034H29.8007V24.7129H32.487C33.6804 24.7129 34.2094 25.1515 34.2094 25.8612L34.2056 25.8875ZM41.4004 29.0764V18.5083H39.068V29.0764H41.4004ZM53.898 29.0764V18.5083H51.5958V25.016L46.6449 18.5083H44.5008V29.0764H46.7955V22.3579L51.912 29.0764H53.898ZM66.7759 29.0764L62.2392 18.433H60.0951L55.5678 29.0764H57.9378L58.9072 26.7064H63.3762L64.3419 29.0764H66.7759ZM62.5498 24.6526H59.7336L61.1379 21.2266L62.5498 24.6526ZM77.8579 29.0764V18.5083H75.5557V25.016L70.6029 18.5083H68.4607V29.0764H70.7535V22.3579L75.8719 29.0764H77.8579ZM89.8586 27.3709L88.3808 25.8762C87.5507 26.6292 86.8109 27.113 85.6023 27.113C83.7914 27.113 82.5377 25.6071 82.5377 23.7924V23.7622C82.5377 21.9513 83.8215 20.4717 85.6023 20.4717C86.6584 20.4717 87.4848 20.9235 88.3055 21.6633L89.7795 19.9578C88.7988 18.9921 87.6072 18.3276 85.6136 18.3276C82.3683 18.3276 80.1037 20.788 80.1037 23.7867V23.8168C80.1037 26.8514 82.4135 29.2515 85.5233 29.2515C87.5582 29.2571 88.7649 28.5324 89.851 27.3709H89.8586ZM99.7791 29.0764V27.0057H94.0339V24.7825H99.0167V22.7118H94.0339V20.5771H99.6963V18.5064H91.7241V29.0745L99.7791 29.0764Z" fill="#CFD8E1"/>
</svg>
