<svg width="32" height="32" viewBox="0 0 32 32" fill="none" xmlns="http://www.w3.org/2000/svg">
<path d="M31.5213 19.8703C29.3841 28.4418 20.7016 33.6583 12.1281 31.5208C3.55818 29.3839 -1.65886 20.7018 0.479231 12.131C2.61545 3.55852 11.298 -1.65832 19.8688 0.478592C28.4417 2.61551 33.6584 11.2985 31.521 19.8705L31.5212 19.8703H31.5213Z" fill="#FCEFCF"/>
<path fill-rule="evenodd" clip-rule="evenodd" d="M16.0016 10.1542L11.858 14.2973L11.8581 14.2971L9.44727 11.8864L16.0016 5.33282L22.5581 11.8884L20.1471 14.2991L16.0016 10.1542ZM7.74501 13.5882L5.33398 15.9993L7.74484 18.4095L10.1559 15.9988L7.74501 13.5882ZM11.8585 17.702L16.0021 21.8448L20.1475 17.7L22.5598 20.1094L22.5586 20.1107L16.0021 26.6662L9.44775 20.1126L9.44434 20.1091L11.8585 17.702ZM24.2587 13.5897L21.8477 16.0005L24.2586 18.4111L26.6695 16.0003L24.2587 13.5897Z" fill="#F3BA2F"/>
<path d="M18.4467 15.9987H18.4477L16.0014 13.5526L14.1933 15.36L13.9855 15.5678L13.5571 15.9962L13.5537 15.9996L13.5571 16.0031L16.0014 18.4474L18.4479 16.0013L18.4491 15.9999L18.4469 15.9987" fill="#F3BA2F"/>
</svg>
