<svg width="103" height="48" viewBox="0 0 103 48" fill="none" xmlns="http://www.w3.org/2000/svg">
<path d="M30.0004 25.7409C28.7725 30.666 23.7842 33.6633 18.8585 32.4352C13.9349 31.2073 10.9375 26.2187 12.166 21.2939C13.3933 16.3682 18.3816 13.3706 23.3058 14.5985C28.2312 15.8264 31.2283 20.8155 30.0004 25.7409Z" fill="#CFD8E1"/>
<path d="M25.1365 22.2072C25.3195 20.9839 24.3881 20.3263 23.1145 19.8876L23.5277 18.2304L22.519 17.9791L22.1168 19.5925C21.8516 19.5264 21.5792 19.4641 21.3086 19.4023L21.7137 17.7782L20.7056 17.5269L20.2921 19.1834C20.0727 19.1334 19.8572 19.084 19.648 19.032L19.6492 19.0268L18.2581 18.6795L17.9898 19.7568C17.9898 19.7568 18.7382 19.9283 18.7224 19.939C19.1309 20.041 19.2047 20.3113 19.1924 20.5256L18.7218 22.4134C18.75 22.4206 18.7864 22.431 18.8267 22.4471C18.793 22.4387 18.7571 22.4295 18.7201 22.4206L18.0604 25.0652C18.0105 25.1893 17.8838 25.3754 17.5982 25.3048C17.6082 25.3194 16.865 25.1218 16.865 25.1218L16.3643 26.2764L17.6769 26.6036C17.9211 26.6648 18.1604 26.7289 18.396 26.7892L17.9786 28.4653L18.9861 28.7167L19.3995 27.0584C19.6748 27.1331 19.9419 27.2021 20.2034 27.267L19.7914 28.9175L20.8001 29.1689L21.2175 27.496C22.9376 27.8215 24.231 27.6902 24.7754 26.1345C25.2141 24.8819 24.7535 24.1593 23.8486 23.6882C24.5076 23.5362 25.0041 23.1027 25.1365 22.2072ZM22.8318 25.4389C22.5201 26.6915 20.4111 26.0144 19.7273 25.8446L20.2812 23.6241C20.965 23.7948 23.1576 24.1326 22.8318 25.4389ZM23.1438 22.1891C22.8594 23.3285 21.104 22.7496 20.5346 22.6077L21.0368 20.5937C21.6062 20.7356 23.44 21.0005 23.1438 22.1891Z" fill="white"/>
<path d="M39.7035 20.4089C40.3416 20.4089 40.893 20.5232 41.3563 20.7477C41.8218 20.9745 42.2059 21.2799 42.5141 21.664C42.818 22.0501 43.0442 22.5014 43.1903 23.0185C43.3354 23.5372 43.4082 24.0946 43.4082 24.6915C43.4082 25.6083 43.2402 26.4744 42.9011 27.2908C42.562 28.1085 42.1019 28.8177 41.5166 29.4227C40.9318 30.0269 40.2413 30.5032 39.445 30.8551C38.65 31.2073 37.7856 31.3833 36.8575 31.3833C36.7375 31.3833 36.5265 31.3799 36.2285 31.3737C35.9304 31.3676 35.5878 31.3369 35.2042 31.285C34.8181 31.2311 34.4099 31.1514 33.9788 31.0447C33.548 30.9399 33.1388 30.7931 32.7534 30.6067L36.1992 16.1282L39.2854 15.6499L38.0517 20.7878C38.3158 20.6688 38.5819 20.5766 38.8475 20.5094C39.1133 20.4433 39.3985 20.4089 39.7035 20.4089ZM37.1147 28.935C37.5795 28.935 38.0175 28.8206 38.4289 28.5961C38.8416 28.3714 39.1976 28.0679 39.4959 27.6899C39.7942 27.3102 40.0303 26.8826 40.2024 26.4048C40.3746 25.927 40.4616 25.4285 40.4616 24.9099C40.4616 24.2727 40.3552 23.7757 40.1429 23.4164C39.9307 23.0586 39.538 22.8786 38.9677 22.8786C38.7808 22.8786 38.5401 22.9142 38.2415 22.9779C37.942 23.0456 37.6739 23.186 37.4337 23.3972L36.12 28.8536C36.1992 28.8676 36.2693 28.8809 36.329 28.8934C36.3876 28.907 36.4522 28.9166 36.5167 28.9232C36.5848 28.9308 36.6627 28.9348 36.7569 28.9348C36.8511 28.9348 36.9689 28.935 37.1147 28.935ZM46.6088 31.1062H43.661L46.1504 20.6309H49.1184L46.6088 31.1062ZM48.0432 19.3546C47.6318 19.3546 47.2587 19.2322 46.9277 18.9867C46.594 18.7428 46.4288 18.3673 46.4288 17.8612C46.4288 17.5828 46.4853 17.3216 46.5975 17.0752C46.7113 16.8293 46.8601 16.6176 47.0465 16.4376C47.2327 16.259 47.4484 16.1164 47.6933 16.0089C47.9397 15.9032 48.2018 15.8503 48.4812 15.8503C48.8924 15.8503 49.2635 15.9728 49.5957 16.2182C49.9267 16.4649 50.0932 16.8404 50.0932 17.3438C50.0932 17.6231 50.0369 17.8853 49.9237 18.1312C49.8114 18.3771 49.6626 18.5888 49.4762 18.7688C49.2915 18.9476 49.0739 19.0898 48.8294 19.1963C48.5828 19.3037 48.3216 19.3546 48.0432 19.3546ZM51.7017 18.021L54.7892 17.5427L54.031 20.6304H57.3376L56.7405 23.0596H53.4539L52.5784 26.7237C52.4977 27.0292 52.452 27.3144 52.4392 27.5795C52.4247 27.8458 52.4584 28.0745 52.5381 28.2671C52.6173 28.4601 52.7596 28.6089 52.9662 28.7142C53.1718 28.8211 53.4662 28.875 53.8522 28.875C54.1702 28.875 54.4801 28.8447 54.7796 28.7847C55.0774 28.7257 55.3791 28.6436 55.6846 28.5361L55.9044 30.8074C55.506 30.9535 55.0747 31.0791 54.6099 31.1849C54.1444 31.2921 53.5933 31.3437 52.9564 31.3437C52.0406 31.3437 51.3306 31.2078 50.8248 30.937C50.3197 30.6643 49.9626 30.2917 49.7489 29.8201C49.5381 29.3501 49.444 28.8084 49.4703 28.198C49.4976 27.5862 49.5898 26.9431 49.7489 26.2658L51.7017 18.021ZM57.2078 26.9232C57.2078 26.0209 57.3538 25.17 57.6457 24.3735C57.9371 23.5763 58.3569 22.8791 58.9016 22.2808C59.4444 21.6854 60.1056 21.2137 60.8839 20.8675C61.6586 20.5232 62.5259 20.3496 63.4818 20.3496C64.0801 20.3496 64.6145 20.4062 65.0847 20.5195C65.5568 20.6339 65.984 20.7817 66.3703 20.9671L65.3537 23.2787C65.0881 23.171 64.8125 23.0761 64.5274 22.99C64.2422 22.9022 63.894 22.8599 63.482 22.8599C62.4981 22.8599 61.7203 23.199 61.1414 23.875C60.5648 24.5516 60.2743 25.4622 60.2743 26.6045C60.2743 27.2815 60.4204 27.8289 60.7135 28.2477C61.0052 28.6665 61.544 28.8748 62.3262 28.8748C62.7123 28.8748 63.0849 28.8344 63.4417 28.7557C63.8012 28.6761 64.1187 28.5757 64.3983 28.4572L64.6184 30.8268C64.2456 30.9714 63.8344 31.102 63.3834 31.2164C62.9314 31.3268 62.3934 31.3841 61.7695 31.3841C60.9459 31.3841 60.2488 31.2636 59.6785 31.0263C59.1079 30.7853 58.6365 30.4653 58.2652 30.0601C57.8919 29.6538 57.6238 29.1794 57.4581 28.635C57.2924 28.091 57.2078 27.5195 57.2078 26.9232ZM70.3028 31.3841C69.5992 31.3841 68.9881 31.2769 68.4697 31.0646C67.9528 30.8524 67.5247 30.5546 67.186 30.1685C66.8469 29.7844 66.5931 29.3292 66.4193 28.8047C66.2454 28.2804 66.1618 27.6998 66.1618 27.0636C66.1618 26.2656 66.2899 25.4678 66.5489 24.6723C66.8066 23.875 67.189 23.1587 67.6951 22.522C68.1972 21.8844 68.8167 21.363 69.5461 20.9565C70.2747 20.5527 71.1128 20.3496 72.0542 20.3496C72.7449 20.3496 73.3529 20.4571 73.8784 20.6693C74.4014 20.881 74.8323 21.1813 75.1729 21.5654C75.5098 21.9515 75.7658 22.4047 75.9379 22.93C76.1113 23.4533 76.1969 24.0354 76.1969 24.6721C76.1969 25.4676 76.0705 26.2653 75.8196 27.0633C75.5686 27.8574 75.196 28.5755 74.7042 29.2136C74.2133 29.8503 73.5995 30.3714 72.8623 30.7762C72.126 31.1809 71.2722 31.3841 70.3028 31.3841ZM71.776 22.8601C71.3391 22.8601 70.9527 22.987 70.622 23.2376C70.29 23.4912 70.0111 23.8099 69.7863 24.1942C69.5591 24.5803 69.3907 25.0013 69.2768 25.459C69.1639 25.9176 69.1086 26.3512 69.1086 26.7631C69.1086 27.4278 69.2158 27.9454 69.4266 28.318C69.6403 28.6886 70.0241 28.875 70.5821 28.875C71.0206 28.875 71.405 28.7491 71.7377 28.4958C72.0677 28.2442 72.3468 27.9253 72.5733 27.5402C72.7991 27.156 72.969 26.7338 73.0828 26.2754C73.1942 25.8183 73.251 25.3823 73.251 24.9711C73.251 24.3081 73.1443 23.7892 72.9316 23.4171C72.7191 23.0466 72.3335 22.8601 71.776 22.8601ZM79.409 31.1062H76.4588L78.9482 20.6309H81.9176L79.409 31.1062ZM80.8412 19.3546C80.4301 19.3546 80.0573 19.2322 79.7267 18.9867C79.3948 18.7428 79.228 18.3673 79.228 17.8612C79.228 17.5828 79.2853 17.3216 79.3977 17.0752C79.5101 16.8293 79.6599 16.6176 79.8463 16.4376C80.0314 16.259 80.2491 16.1164 80.4935 16.0089C80.7384 15.9032 81.0006 15.8503 81.279 15.8503C81.6911 15.8503 82.0634 15.9728 82.3949 16.2182C82.7267 16.4649 82.8941 16.8404 82.8941 17.3438C82.8941 17.6231 82.8346 17.8853 82.7232 18.1312C82.6118 18.3771 82.4621 18.5888 82.2764 18.7688C82.0895 18.9476 81.8746 19.0898 81.6296 19.1963C81.3827 19.3037 81.1211 19.3546 80.8412 19.3546ZM84.0421 21.1073C84.2659 21.0418 84.5157 20.9632 84.7874 20.8776C85.0602 20.792 85.3648 20.7123 85.7052 20.6405C86.0419 20.5665 86.4218 20.5065 86.8396 20.46C87.2574 20.4125 87.7335 20.3894 88.2625 20.3894C89.8171 20.3894 90.8888 20.8422 91.4805 21.7449C92.0717 22.6477 92.174 23.8832 91.7904 25.4491L90.4344 31.1052H87.4672L88.7814 25.5682C88.8615 25.2224 88.9245 24.8882 88.971 24.5616C89.0179 24.238 89.0152 23.9528 88.9604 23.7059C88.908 23.4619 88.7846 23.2622 88.593 23.1075C88.3985 22.9553 88.1046 22.8788 87.706 22.8788C87.3216 22.8788 86.9306 22.9202 86.5315 22.9998L84.5993 31.105H81.6309L84.0421 21.1073Z" fill="#CFD8E1"/>
</svg>
