<svg width="674" height="510" viewBox="0 0 674 510" fill="none" xmlns="http://www.w3.org/2000/svg">
<rect x="13" y="9" width="568" height="378" rx="32" fill="#F3F6FA"/>
<g filter="url(#filter0_d_20_9926)">
<rect x="40" y="36" width="514" height="416" rx="19.0812" fill="white"/>
<path d="M40 55.1531C40 44.6597 48.5066 36.1531 59 36.1531H535C545.493 36.1531 554 44.6597 554 55.1531V76.1531H40V55.1531Z" fill="#0E1F42"/>
<circle cx="60" cy="57.1531" r="4" fill="white"/>
<circle cx="76" cy="57.1531" r="4" fill="white"/>
<circle cx="92" cy="57.1531" r="4" fill="white"/>
<path d="M64.928 106.8V118H70.032C71.952 118 73.344 116.832 73.344 114.976C73.344 113.616 72.544 112.784 71.456 112.48V112.288C72.544 111.984 73.344 111.152 73.344 109.808C73.344 107.888 71.968 106.8 70.032 106.8H64.928ZM67.04 108.72H69.824C70.72 108.72 71.328 109.152 71.328 110.064C71.328 110.976 70.72 111.424 69.824 111.424H67.04V108.72ZM67.04 113.344H69.824C70.72 113.344 71.328 113.808 71.328 114.72C71.328 115.632 70.72 116.08 69.824 116.08H67.04V113.344ZM82.4361 118V110.064H80.4201V114.16C80.4201 115.568 79.7321 116.368 78.4361 116.368C77.2841 116.368 76.6441 115.712 76.6441 114.608V110.064H74.6281V114.8C74.6281 116.864 75.9561 118.128 77.7161 118.128C79.1721 118.128 79.9081 117.456 80.2281 116.72H80.4521V118H82.4361ZM89.8881 110.064L87.8081 115.76H87.6161L85.5361 110.064H83.3601L86.6561 118.512L85.5361 121.2H87.7121L92.0641 110.064H89.8881ZM96.8863 111.12V113.68C96.8863 116.656 98.7743 118.224 101.526 118.224C104.486 118.224 105.942 116.64 105.942 114.16V113.776H103.83V114.192C103.83 115.456 103.206 116.336 101.526 116.336C99.8783 116.336 98.9983 115.312 98.9983 113.776V111.024C98.9983 109.616 99.9423 108.464 101.526 108.464C103.062 108.464 103.83 109.328 103.83 110.608V111.024H105.942V110.64C105.942 108.144 104.358 106.576 101.526 106.576C98.6943 106.576 96.8863 108.336 96.8863 111.12ZM109.239 110.064H107.255V118H109.271V113.52C109.271 112.4 110.007 111.856 111.031 111.856H112.215V110.032H111.447C110.439 110.032 109.767 110.336 109.463 111.216H109.239V110.064ZM119.388 110.064L117.308 115.76H117.116L115.036 110.064H112.86L116.156 118.512L115.036 121.2H117.212L121.564 110.064H119.388ZM122.49 121.2H124.506V116.88H124.698C125.114 117.552 125.818 118.224 127.226 118.224C129.21 118.224 130.874 116.464 130.874 114.032C130.874 111.6 129.21 109.84 127.226 109.84C125.818 109.84 125.114 110.512 124.698 111.184H124.474V110.064H122.49V121.2ZM126.682 116.432C125.434 116.432 124.506 115.536 124.506 114.032C124.506 112.528 125.434 111.632 126.682 111.632C127.898 111.632 128.858 112.496 128.858 114.032C128.858 115.568 127.898 116.432 126.682 116.432ZM131.283 110.064V111.792H133.299V116.464C133.299 117.36 133.971 118 134.867 118H137.043V116.272H135.763C135.475 116.272 135.315 116.112 135.315 115.792V111.792H137.491V110.064H135.315V107.6H133.299V110.064H131.283ZM138.275 114.032C138.275 116.528 140.099 118.224 142.435 118.224C144.771 118.224 146.595 116.528 146.595 114.032C146.595 111.536 144.771 109.84 142.435 109.84C140.099 109.84 138.275 111.536 138.275 114.032ZM140.291 114.032C140.291 112.592 141.155 111.632 142.435 111.632C143.715 111.632 144.579 112.592 144.579 114.032C144.579 115.472 143.715 116.432 142.435 116.432C141.155 116.432 140.291 115.472 140.291 114.032Z" fill="#0A0A0A"/>
<circle cx="498" cy="112" r="4" fill="#E5ECF2"/>
<circle cx="512" cy="112" r="4" fill="#E5ECF2"/>
<circle cx="526" cy="112" r="4" fill="#E5ECF2"/>
<rect x="64.5" y="148.5" width="465" height="75" rx="13.5" fill="white" stroke="#E5ECF2"/>
<path d="M81.064 166.2V176H87.28V174.95H82.212V171.604H86.832V170.568H82.212V167.25H87.224V166.2H81.064ZM88.9387 169.168V176H90.0027V172.486C90.0027 170.862 90.9267 169.994 92.2707 169.994C93.4607 169.994 94.1887 170.624 94.1887 171.954V176H95.2667V171.87C95.2667 169.98 94.0067 169.056 92.5647 169.056C91.1787 169.056 90.5207 169.714 90.1707 170.386H89.9747V169.168H88.9387ZM96.2741 169.168V170.106H98.3461V174.922C98.3461 175.58 98.7661 176 99.3961 176H101.202V175.062H99.7881C99.5361 175.062 99.4241 174.936 99.4241 174.656V170.106H101.594V169.168H99.4241V166.704H98.3461V169.168H96.2741ZM102.586 172.528C102.586 174.6 104 176.196 106.128 176.196C107.836 176.196 108.676 175.258 109.166 174.376L108.228 173.886C107.85 174.67 107.234 175.244 106.114 175.244C104.742 175.244 103.79 174.362 103.706 172.934H109.292V172.36C109.292 170.344 107.948 168.958 105.988 168.958C104.014 168.958 102.586 170.526 102.586 172.528ZM103.706 172.052C103.832 170.708 104.7 169.91 105.988 169.91C107.29 169.91 108.144 170.694 108.172 172.052H103.706ZM111.904 169.168H110.882V176H111.946V171.884C111.946 170.75 112.534 170.176 113.542 170.176H114.718V169.14H113.864C112.884 169.14 112.352 169.504 112.1 170.19H111.904V169.168ZM125.619 169.168L123.337 174.642H123.169L120.887 169.168H119.725L122.693 176.098L121.489 178.8H122.651L126.781 169.168H125.619ZM127.592 172.584C127.592 174.698 129.034 176.196 131.078 176.196C133.108 176.196 134.55 174.698 134.55 172.584C134.55 170.47 133.108 168.972 131.078 168.972C129.034 168.972 127.592 170.47 127.592 172.584ZM128.656 172.584C128.656 171.016 129.622 169.966 131.078 169.966C132.52 169.966 133.486 170.988 133.486 172.584C133.486 174.18 132.52 175.216 131.078 175.216C129.622 175.216 128.656 174.208 128.656 172.584ZM142.446 176V169.168H141.368V172.682C141.368 174.306 140.444 175.174 139.1 175.174C137.91 175.174 137.182 174.544 137.182 173.214V169.168H136.118V173.312C136.118 175.202 137.364 176.126 138.806 176.126C140.192 176.126 140.85 175.454 141.2 174.782H141.396V176H142.446ZM145.551 169.168H144.529V176H145.593V171.884C145.593 170.75 146.181 170.176 147.189 170.176H148.365V169.14H147.511C146.531 169.14 145.999 169.504 145.747 170.19H145.551V169.168ZM154.071 169.168V176H155.135V171.772C155.135 170.596 155.905 169.98 156.871 169.98C157.795 169.98 158.383 170.526 158.383 171.394V176H159.461V171.772C159.461 170.596 160.189 169.98 161.141 169.98C162.079 169.98 162.695 170.526 162.695 171.394V176H163.773V171.31C163.773 169.938 162.737 169.056 161.449 169.056C160.385 169.056 159.713 169.56 159.377 170.26H159.181C158.873 169.574 158.257 169.056 157.235 169.056C156.297 169.056 155.667 169.462 155.303 170.092H155.107V169.168H154.071ZM165.34 172.584C165.34 174.698 166.782 176.196 168.826 176.196C170.856 176.196 172.298 174.698 172.298 172.584C172.298 170.47 170.856 168.972 168.826 168.972C166.782 168.972 165.34 170.47 165.34 172.584ZM166.404 172.584C166.404 171.016 167.37 169.966 168.826 169.966C170.268 169.966 171.234 170.988 171.234 172.584C171.234 174.18 170.268 175.216 168.826 175.216C167.37 175.216 166.404 174.208 166.404 172.584ZM173.95 169.168V176H175.014V172.486C175.014 170.862 175.938 169.994 177.282 169.994C178.472 169.994 179.2 170.624 179.2 171.954V176H180.278V171.87C180.278 169.98 179.018 169.056 177.576 169.056C176.19 169.056 175.532 169.714 175.182 170.386H174.986V169.168H173.95ZM181.829 172.528C181.829 174.6 183.243 176.196 185.371 176.196C187.079 176.196 187.919 175.258 188.409 174.376L187.471 173.886C187.093 174.67 186.477 175.244 185.357 175.244C183.985 175.244 183.033 174.362 182.949 172.934H188.535V172.36C188.535 170.344 187.191 168.958 185.231 168.958C183.257 168.958 181.829 170.526 181.829 172.528ZM182.949 172.052C183.075 170.708 183.943 169.91 185.231 169.91C186.533 169.91 187.387 170.694 187.415 172.052H182.949ZM195.182 169.168L192.9 174.642H192.732L190.45 169.168H189.288L192.256 176.098L191.052 178.8H192.214L196.344 169.168H195.182Z" fill="#868FA0"/>
<path d="M80.828 196.432V196.936H82.628V196.54C82.628 194.776 83.654 193.804 85.454 193.804C86.858 193.804 87.956 194.65 87.956 196.144C87.956 197.926 86.66 198.592 84.572 199.276C82.286 200.032 80.828 201.022 80.828 203.38V205H89.576V203.344H82.664V203.164C82.664 201.724 83.564 201.31 85.328 200.716C87.758 199.906 89.756 198.934 89.756 196.216C89.756 193.768 87.938 192.148 85.454 192.148C82.7 192.148 80.828 193.822 80.828 196.432ZM91.3406 197.296V200.104C91.3406 203.344 93.1406 205.252 96.0566 205.252C98.9726 205.252 100.773 203.344 100.773 200.104V197.296C100.773 194.056 98.9006 192.148 96.0566 192.148C93.1406 192.148 91.3406 194.056 91.3406 197.296ZM93.1406 197.26C93.1406 195.028 94.1126 193.804 96.0566 193.804C98.0006 193.804 98.9726 195.028 98.9726 197.26V200.14C98.9726 202.372 98.0006 203.596 96.0566 203.596C94.1126 203.596 93.1406 202.372 93.1406 200.14V197.26ZM102.539 203.848C102.539 204.694 103.187 205.198 103.925 205.198C104.069 205.198 104.159 205.18 104.231 205.162V205.72C104.231 206.08 104.069 206.26 103.745 206.26H102.611V207.268H103.889C104.735 207.268 105.347 206.638 105.347 205.792V203.812C105.347 202.984 104.753 202.444 103.943 202.444C103.169 202.444 102.539 202.984 102.539 203.848ZM107.108 197.296V200.104C107.108 203.344 108.908 205.252 111.824 205.252C114.74 205.252 116.54 203.344 116.54 200.104V197.296C116.54 194.056 114.668 192.148 111.824 192.148C108.908 192.148 107.108 194.056 107.108 197.296ZM108.908 197.26C108.908 195.028 109.88 193.804 111.824 193.804C113.768 193.804 114.74 195.028 114.74 197.26V200.14C114.74 202.372 113.768 203.596 111.824 203.596C109.88 203.596 108.908 202.372 108.908 200.14V197.26ZM118.27 197.296V200.104C118.27 203.344 120.07 205.252 122.986 205.252C125.902 205.252 127.702 203.344 127.702 200.104V197.296C127.702 194.056 125.83 192.148 122.986 192.148C120.07 192.148 118.27 194.056 118.27 197.296ZM120.07 197.26C120.07 195.028 121.042 193.804 122.986 193.804C124.93 193.804 125.902 195.028 125.902 197.26V200.14C125.902 202.372 124.93 203.596 122.986 203.596C121.042 203.596 120.07 202.372 120.07 200.14V197.26ZM129.432 197.296V200.104C129.432 203.344 131.232 205.252 134.148 205.252C137.064 205.252 138.864 203.344 138.864 200.104V197.296C138.864 194.056 136.992 192.148 134.148 192.148C131.232 192.148 129.432 194.056 129.432 197.296ZM131.232 197.26C131.232 195.028 132.204 193.804 134.148 193.804C136.092 193.804 137.064 195.028 137.064 197.26V200.14C137.064 202.372 136.092 203.596 134.148 203.596C132.204 203.596 131.232 202.372 131.232 200.14V197.26Z" fill="#0A0A0A"/>
<line x1="424.5" y1="148" x2="424.5" y2="224" stroke="#E5ECF2"/>
<path d="M445.296 179.4V192H453.432V190.344H447.096V186.51H452.856V184.854H447.096V181.056H453.36V179.4H445.296ZM454.52 179.4V181.056H458.588V192H460.388V181.056H464.456V179.4H454.52ZM466.109 179.4V192H467.909V186.51H473.381V192H475.181V179.4H473.381V184.854H467.909V179.4H466.109Z" fill="#0A0A0A"/>
<path fill-rule="evenodd" clip-rule="evenodd" d="M490.293 182.793C490.683 182.402 491.317 182.402 491.707 182.793L495 186.086L498.293 182.793C498.683 182.402 499.317 182.402 499.707 182.793C500.098 183.183 500.098 183.817 499.707 184.207L495.707 188.207C495.317 188.598 494.683 188.598 494.293 188.207L490.293 184.207C489.902 183.817 489.902 183.183 490.293 182.793Z" fill="#404040"/>
<rect x="64.5" y="264.5" width="465" height="75" rx="13.5" fill="white" stroke="#E5ECF2"/>
<path d="M81.064 282.2V292H87.28V290.95H82.212V287.604H86.832V286.568H82.212V283.25H87.224V282.2H81.064ZM88.9387 285.168V292H90.0027V288.486C90.0027 286.862 90.9267 285.994 92.2707 285.994C93.4607 285.994 94.1887 286.624 94.1887 287.954V292H95.2667V287.87C95.2667 285.98 94.0067 285.056 92.5647 285.056C91.1787 285.056 90.5207 285.714 90.1707 286.386H89.9747V285.168H88.9387ZM96.2741 285.168V286.106H98.3461V290.922C98.3461 291.58 98.7661 292 99.3961 292H101.202V291.062H99.7881C99.5361 291.062 99.4241 290.936 99.4241 290.656V286.106H101.594V285.168H99.4241V282.704H98.3461V285.168H96.2741ZM102.586 288.528C102.586 290.6 104 292.196 106.128 292.196C107.836 292.196 108.676 291.258 109.166 290.376L108.228 289.886C107.85 290.67 107.234 291.244 106.114 291.244C104.742 291.244 103.79 290.362 103.706 288.934H109.292V288.36C109.292 286.344 107.948 284.958 105.988 284.958C104.014 284.958 102.586 286.526 102.586 288.528ZM103.706 288.052C103.832 286.708 104.7 285.91 105.988 285.91C107.29 285.91 108.144 286.694 108.172 288.052H103.706ZM111.904 285.168H110.882V292H111.946V287.884C111.946 286.75 112.534 286.176 113.542 286.176H114.718V285.14H113.864C112.884 285.14 112.352 285.504 112.1 286.19H111.904V285.168ZM125.619 285.168L123.337 290.642H123.169L120.887 285.168H119.725L122.693 292.098L121.489 294.8H122.651L126.781 285.168H125.619ZM127.592 288.584C127.592 290.698 129.034 292.196 131.078 292.196C133.108 292.196 134.55 290.698 134.55 288.584C134.55 286.47 133.108 284.972 131.078 284.972C129.034 284.972 127.592 286.47 127.592 288.584ZM128.656 288.584C128.656 287.016 129.622 285.966 131.078 285.966C132.52 285.966 133.486 286.988 133.486 288.584C133.486 290.18 132.52 291.216 131.078 291.216C129.622 291.216 128.656 290.208 128.656 288.584ZM142.446 292V285.168H141.368V288.682C141.368 290.306 140.444 291.174 139.1 291.174C137.91 291.174 137.182 290.544 137.182 289.214V285.168H136.118V289.312C136.118 291.202 137.364 292.126 138.806 292.126C140.192 292.126 140.85 291.454 141.2 290.782H141.396V292H142.446ZM145.551 285.168H144.529V292H145.593V287.884C145.593 286.75 146.181 286.176 147.189 286.176H148.365V285.14H147.511C146.531 285.14 145.999 285.504 145.747 286.19H145.551V285.168ZM154.071 285.168V292H155.135V287.772C155.135 286.596 155.905 285.98 156.871 285.98C157.795 285.98 158.383 286.526 158.383 287.394V292H159.461V287.772C159.461 286.596 160.189 285.98 161.141 285.98C162.079 285.98 162.695 286.526 162.695 287.394V292H163.773V287.31C163.773 285.938 162.737 285.056 161.449 285.056C160.385 285.056 159.713 285.56 159.377 286.26H159.181C158.873 285.574 158.257 285.056 157.235 285.056C156.297 285.056 155.667 285.462 155.303 286.092H155.107V285.168H154.071ZM165.34 288.584C165.34 290.698 166.782 292.196 168.826 292.196C170.856 292.196 172.298 290.698 172.298 288.584C172.298 286.47 170.856 284.972 168.826 284.972C166.782 284.972 165.34 286.47 165.34 288.584ZM166.404 288.584C166.404 287.016 167.37 285.966 168.826 285.966C170.268 285.966 171.234 286.988 171.234 288.584C171.234 290.18 170.268 291.216 168.826 291.216C167.37 291.216 166.404 290.208 166.404 288.584ZM173.95 285.168V292H175.014V288.486C175.014 286.862 175.938 285.994 177.282 285.994C178.472 285.994 179.2 286.624 179.2 287.954V292H180.278V287.87C180.278 285.98 179.018 285.056 177.576 285.056C176.19 285.056 175.532 285.714 175.182 286.386H174.986V285.168H173.95ZM181.829 288.528C181.829 290.6 183.243 292.196 185.371 292.196C187.079 292.196 187.919 291.258 188.409 290.376L187.471 289.886C187.093 290.67 186.477 291.244 185.357 291.244C183.985 291.244 183.033 290.362 182.949 288.934H188.535V288.36C188.535 286.344 187.191 284.958 185.231 284.958C183.257 284.958 181.829 286.526 181.829 288.528ZM182.949 288.052C183.075 286.708 183.943 285.91 185.231 285.91C186.533 285.91 187.387 286.694 187.415 288.052H182.949ZM195.182 285.168L192.9 290.642H192.732L190.45 285.168H189.288L192.256 292.098L191.052 294.8H192.214L196.344 285.168H195.182Z" fill="#868FA0"/>
<path d="M83.6 308.4L80.072 313.908H82.052L84.392 310.074H84.608V321H86.408V308.4H83.6ZM97.5632 316.896C97.5632 314.304 95.7092 312.63 93.6032 312.63C91.8212 312.63 91.0112 313.494 90.5792 314.178H90.3632V312.486C90.3632 310.902 91.3892 309.804 93.0992 309.804C94.8092 309.804 95.5832 310.704 95.5832 312.072H97.3832C97.3832 309.642 95.6732 308.148 93.0992 308.148C90.4712 308.148 88.5632 309.93 88.5632 312.504V316.914C88.5632 319.506 90.4892 321.252 93.0272 321.252C95.6372 321.252 97.5632 319.488 97.5632 316.896ZM93.0272 314.214C94.6652 314.214 95.7632 315.294 95.7632 316.896C95.7632 318.498 94.6652 319.596 93.0272 319.596C91.4612 319.596 90.3632 318.498 90.3632 316.896C90.3632 315.294 91.4612 314.214 93.0272 314.214ZM99.2378 308.4V310.056H105.268L101.776 313.17V314.826H103.738C105.07 314.826 106.168 315.672 106.168 317.094C106.168 318.552 105.106 319.596 103.432 319.596C101.65 319.596 100.552 318.534 100.552 316.932V316.194H98.7518V317.04C98.7518 319.524 100.732 321.252 103.468 321.252C105.952 321.252 107.968 319.578 107.968 317.13C107.968 314.898 106.42 313.458 104.512 313.458H104.044V313.242L107.752 310.002V308.4H99.2378ZM109.983 308.4V315.168H112.719C112.953 314.736 113.493 314.124 114.609 314.124C115.995 314.124 116.967 315.06 116.967 316.68C116.967 318.444 115.941 319.596 114.177 319.596C112.305 319.596 111.279 318.444 111.279 316.716V316.536H109.479V316.752C109.479 319.524 111.405 321.252 114.177 321.252C116.913 321.252 118.767 319.308 118.767 316.68C118.767 314.178 117.111 312.504 114.951 312.504C113.295 312.504 112.503 313.188 111.981 314.052H111.765V310.056H118.371V308.4H109.983ZM120.31 319.848C120.31 320.64 120.94 321.252 121.714 321.252C122.488 321.252 123.118 320.64 123.118 319.848C123.118 319.056 122.488 318.444 121.714 318.444C120.94 318.444 120.31 319.056 120.31 319.848ZM124.988 311.532C124.988 313.296 126.248 314.034 127.112 314.322V314.538C126.176 314.79 124.772 315.726 124.772 317.598C124.772 319.758 126.68 321.252 129.38 321.252C132.08 321.252 133.988 319.758 133.988 317.598C133.988 315.726 132.584 314.79 131.648 314.538V314.322C132.512 314.034 133.772 313.296 133.772 311.532C133.772 309.516 132.044 308.148 129.38 308.148C126.716 308.148 124.988 309.516 124.988 311.532ZM126.788 311.712C126.788 310.56 127.778 309.804 129.38 309.804C130.982 309.804 131.972 310.56 131.972 311.712C131.972 312.864 130.982 313.62 129.38 313.62C127.778 313.62 126.788 312.864 126.788 311.712ZM126.572 317.436C126.572 316.104 127.67 315.276 129.38 315.276C131.09 315.276 132.188 316.104 132.188 317.436C132.188 318.768 131.09 319.596 129.38 319.596C127.67 319.596 126.572 318.768 126.572 317.436Z" fill="#0A0A0A"/>
<line x1="424.5" y1="264" x2="424.5" y2="340" stroke="#E5ECF2"/>
<path d="M446.296 295.4V308H451.534C453.694 308 455.26 306.722 455.26 304.598C455.26 303.122 454.342 302.132 453.136 301.79V301.574C454.396 301.25 455.224 300.26 455.224 298.784C455.224 296.624 453.676 295.4 451.498 295.4H446.296ZM448.096 297.056H451.336C452.614 297.056 453.496 297.776 453.496 298.928C453.496 300.134 452.668 300.854 451.372 300.854H448.096V297.056ZM448.096 302.51H451.408C452.704 302.51 453.532 303.248 453.532 304.454C453.532 305.624 452.65 306.344 451.372 306.344H448.096V302.51ZM456.417 295.4V297.056H460.485V308H462.285V297.056H466.353V295.4H456.417ZM467.309 300.296V303.104C467.309 306.38 469.145 308.252 472.241 308.252C475.265 308.252 476.957 306.452 476.957 303.644V303.392H475.157V303.644C475.157 305.408 474.257 306.596 472.241 306.596C470.225 306.596 469.109 305.372 469.109 303.176V300.224C469.109 298.028 470.225 296.804 472.241 296.804C474.257 296.804 475.157 298.01 475.157 299.756V300.008H476.957V299.684C476.957 296.984 475.265 295.148 472.241 295.148C469.145 295.148 467.309 297.02 467.309 300.296Z" fill="#0A0A0A"/>
<path fill-rule="evenodd" clip-rule="evenodd" d="M491.293 298.793C491.683 298.402 492.317 298.402 492.707 298.793L496 302.086L499.293 298.793C499.683 298.402 500.317 298.402 500.707 298.793C501.098 299.183 501.098 299.817 500.707 300.207L496.707 304.207C496.317 304.598 495.683 304.598 495.293 304.207L491.293 300.207C490.902 299.817 490.902 299.183 491.293 298.793Z" fill="#404040"/>
<line x1="64" y1="246.5" x2="530" y2="246.5" stroke="#E5ECF2"/>
<circle cx="297" cy="244" r="12" fill="#F3F6FA"/>
<path fill-rule="evenodd" clip-rule="evenodd" d="M292.293 241.293C292.683 240.902 293.317 240.902 293.707 241.293L297 244.586L300.293 241.293C300.683 240.902 301.317 240.902 301.707 241.293C302.098 241.684 302.098 242.317 301.707 242.707L297.707 246.707C297.317 247.098 296.683 247.098 296.293 246.707L292.293 242.707C291.902 242.317 291.902 241.684 292.293 241.293Z" fill="#0054F8"/>
<rect x="64" y="364" width="466" height="64" rx="14" fill="#0054F8"/>
<path d="M267.928 390.8V402H270.04V397.904H272.536C274.6 397.904 276.12 396.496 276.12 394.352C276.12 392.208 274.648 390.8 272.536 390.8H267.928ZM270.04 392.72H272.328C273.336 392.72 274.008 393.36 274.008 394.352C274.008 395.344 273.336 395.984 272.328 395.984H270.04V392.72ZM279.193 394.064H277.209V402H279.225V397.52C279.225 396.4 279.961 395.856 280.985 395.856H282.169V394.032H281.401C280.393 394.032 279.721 394.336 279.417 395.216H279.193V394.064ZM282.479 398.032C282.479 400.528 284.303 402.224 286.639 402.224C288.975 402.224 290.799 400.528 290.799 398.032C290.799 395.536 288.975 393.84 286.639 393.84C284.303 393.84 282.479 395.536 282.479 398.032ZM284.495 398.032C284.495 396.592 285.359 395.632 286.639 395.632C287.919 395.632 288.783 396.592 288.783 398.032C288.783 399.472 287.919 400.432 286.639 400.432C285.359 400.432 284.495 399.472 284.495 398.032ZM291.635 398.032C291.635 400.496 293.459 402.224 295.763 402.224C297.987 402.224 299.379 400.992 299.763 399.184L297.779 398.688C297.571 399.728 297.011 400.432 295.795 400.432C294.499 400.432 293.651 399.472 293.651 398.032C293.651 396.592 294.579 395.632 295.795 395.632C297.011 395.632 297.635 396.432 297.779 397.392L299.763 396.88C299.347 395.072 297.971 393.84 295.763 393.84C293.459 393.84 291.635 395.568 291.635 398.032ZM300.525 397.968C300.525 400.432 302.237 402.224 304.605 402.224C306.733 402.224 307.661 401.104 308.205 400.272L306.557 399.312C306.285 399.872 305.693 400.496 304.573 400.496C303.421 400.496 302.669 399.68 302.589 398.624H308.365V397.84C308.365 395.456 306.813 393.84 304.509 393.84C302.173 393.84 300.525 395.568 300.525 397.968ZM302.605 397.216C302.765 396.24 303.357 395.568 304.493 395.568C305.533 395.568 306.173 396.208 306.317 397.216H302.605ZM309.135 397.968C309.135 400.432 310.847 402.224 313.215 402.224C315.343 402.224 316.271 401.104 316.815 400.272L315.167 399.312C314.895 399.872 314.303 400.496 313.183 400.496C312.031 400.496 311.279 399.68 311.199 398.624H316.975V397.84C316.975 395.456 315.423 393.84 313.119 393.84C310.783 393.84 309.135 395.568 309.135 397.968ZM311.215 397.216C311.375 396.24 311.967 395.568 313.103 395.568C314.143 395.568 314.783 396.208 314.927 397.216H311.215ZM326.128 390.8H324.112V395.184H323.92C323.504 394.512 322.8 393.84 321.392 393.84C319.408 393.84 317.744 395.6 317.744 398.032C317.744 400.464 319.408 402.224 321.392 402.224C322.8 402.224 323.504 401.552 323.92 400.88H324.144V402H326.128V390.8ZM321.936 395.632C323.184 395.632 324.112 396.528 324.112 398.032C324.112 399.536 323.184 400.432 321.936 400.432C320.72 400.432 319.76 399.568 319.76 398.032C319.76 396.496 320.72 395.632 321.936 395.632Z" fill="white"/>
</g>
<g filter="url(#filter1_d_20_9926)">
<rect x="408" y="352" width="227.653" height="115" rx="16.4286" fill="white"/>
</g>
<path d="M427.789 376.918V386.776H429.197V382.833H431.619C433.379 382.833 434.661 381.664 434.661 379.876C434.661 378.087 433.422 376.918 431.619 376.918H427.789ZM429.197 378.214H431.464C432.633 378.214 433.253 378.805 433.253 379.876C433.253 380.946 432.605 381.537 431.464 381.537H429.197V378.214ZM435.58 381.692L436.721 382.213C437.045 381.41 437.707 380.861 438.833 380.861C439.96 380.861 440.621 381.424 440.621 382.368V382.551L438.073 382.79C436.298 382.959 435.439 383.635 435.439 384.889C435.439 386.128 436.439 386.973 437.988 386.973C439.41 386.973 440.129 386.311 440.424 385.691H440.621V386.776H441.917V382.424C441.917 380.763 440.72 379.678 438.861 379.678C437.171 379.678 436.073 380.622 435.58 381.692ZM436.777 384.832C436.777 384.128 437.411 383.889 438.214 383.818L440.621 383.593V383.706C440.621 384.903 439.833 385.874 438.214 385.874C437.298 385.874 436.777 385.48 436.777 384.832ZM448.605 379.876L446.479 385.114H446.31L444.184 379.876H442.747L445.69 386.902L444.522 389.592H445.958L450.042 379.876H448.605ZM451.304 379.876V386.776H452.627V382.467C452.627 381.424 453.317 380.889 454.204 380.889C455.007 380.889 455.556 381.34 455.556 382.143V386.776H456.88V382.467C456.88 381.424 457.528 380.889 458.387 380.889C459.203 380.889 459.809 381.34 459.809 382.143V386.776H461.133V382.058C461.133 380.636 460.02 379.763 458.795 379.763C457.668 379.763 457.077 380.34 456.795 380.918H456.598C456.26 380.284 455.683 379.763 454.683 379.763C453.768 379.763 453.148 380.185 452.796 380.777H452.599V379.876H451.304ZM462.569 383.269C462.569 385.353 464.034 386.973 466.174 386.973C467.822 386.973 468.709 386.057 469.23 385.212L468.118 384.579C467.751 385.311 467.16 385.818 466.146 385.818C464.907 385.818 464.034 385.043 463.949 383.804H469.385V383.142C469.385 381.143 468.033 379.65 466.005 379.65C464.006 379.65 462.569 381.241 462.569 383.269ZM463.949 382.734C464.048 381.509 464.794 380.805 466.005 380.805C467.216 380.805 467.977 381.551 468.005 382.734H463.949ZM470.845 379.876V386.776H472.168V383.171C472.168 381.734 472.971 380.918 474.252 380.918C475.379 380.918 476.027 381.537 476.027 382.734V386.776H477.35V382.621C477.35 380.72 476.111 379.763 474.661 379.763C473.295 379.763 472.661 380.397 472.337 381.044H472.14V379.876H470.845ZM478.307 379.876V381.03H480.222V385.593C480.222 386.297 480.701 386.776 481.377 386.776H483.179V385.621H481.912C481.658 385.621 481.546 385.508 481.546 385.227V381.03H483.574V379.876H481.546V377.482H480.222V379.876H478.307ZM489.204 376.918V386.776H490.612V378.411H490.781L493.273 386.776H495.385L497.878 378.411H498.047V386.776H499.455V376.918H496.92L494.414 385.311H494.245L491.738 376.918H489.204ZM501.005 383.269C501.005 385.353 502.47 386.973 504.61 386.973C506.257 386.973 507.145 386.057 507.666 385.212L506.553 384.579C506.187 385.311 505.596 385.818 504.582 385.818C503.343 385.818 502.47 385.043 502.385 383.804H507.821V383.142C507.821 381.143 506.469 379.65 504.441 379.65C502.441 379.65 501.005 381.241 501.005 383.269ZM502.385 382.734C502.484 381.509 503.23 380.805 504.441 380.805C505.652 380.805 506.412 381.551 506.441 382.734H502.385ZM508.423 379.876V381.03H510.338V385.593C510.338 386.297 510.817 386.776 511.493 386.776H513.295V385.621H512.028C511.774 385.621 511.662 385.508 511.662 385.227V381.03H513.69V379.876H511.662V377.482H510.338V379.876H508.423ZM515.07 376.918V386.776H516.393V383.171C516.393 381.734 517.196 380.918 518.477 380.918C519.604 380.918 520.252 381.537 520.252 382.734V386.776H521.575V382.621C521.575 380.72 520.336 379.763 518.886 379.763C517.52 379.763 516.886 380.397 516.562 381.044H516.393V376.918H515.07ZM523.008 383.326C523.008 385.466 524.528 386.973 526.556 386.973C528.584 386.973 530.105 385.466 530.105 383.326C530.105 381.185 528.584 379.678 526.556 379.678C524.528 379.678 523.008 381.185 523.008 383.326ZM524.331 383.326C524.331 381.805 525.232 380.889 526.556 380.889C527.88 380.889 528.781 381.805 528.781 383.326C528.781 384.846 527.88 385.762 526.556 385.762C525.232 385.762 524.331 384.846 524.331 383.326ZM538.273 376.918H536.95V380.96H536.781C536.4 380.326 535.767 379.678 534.415 379.678C532.598 379.678 531.176 381.185 531.176 383.326C531.176 385.466 532.598 386.973 534.415 386.973C535.767 386.973 536.4 386.325 536.781 385.691H536.978V386.776H538.273V376.918ZM534.753 380.861C536.105 380.861 536.95 381.805 536.95 383.326C536.95 384.846 536.105 385.79 534.753 385.79C533.429 385.79 532.5 384.903 532.5 383.326C532.5 381.748 533.429 380.861 534.753 380.861Z" fill="black"/>
<circle cx="595.755" cy="381.337" r="2.34694" fill="#E5ECF2"/>
<circle cx="605.142" cy="381.337" r="2.34694" fill="#E5ECF2"/>
<circle cx="614.53" cy="381.337" r="2.34694" fill="#E5ECF2"/>
<circle cx="445.551" cy="429.449" r="18.7755" fill="#F3F6FA"/>
<path d="M449.039 422.94H442.056V435.487H449.039V422.94Z" fill="#FF5F00"/>
<path d="M442.505 429.214C442.504 428.006 442.778 426.813 443.306 425.726C443.834 424.639 444.603 423.687 445.553 422.941C444.376 422.016 442.962 421.44 441.474 421.28C439.985 421.121 438.481 421.383 437.134 422.037C435.788 422.692 434.652 423.712 433.858 424.981C433.064 426.25 432.642 427.717 432.642 429.214C432.642 430.712 433.064 432.179 433.858 433.448C434.652 434.717 435.788 435.737 437.134 436.392C438.481 437.046 439.985 437.308 441.474 437.149C442.962 436.989 444.376 436.413 445.553 435.488C444.603 434.742 443.834 433.789 443.306 432.703C442.778 431.616 442.504 430.423 442.505 429.214Z" fill="#EB001B"/>
<path d="M458.459 429.214C458.459 430.712 458.037 432.179 457.243 433.448C456.449 434.717 455.313 435.737 453.967 436.392C452.62 437.046 451.116 437.308 449.628 437.149C448.139 436.989 446.725 436.413 445.548 435.488C446.498 434.741 447.266 433.789 447.794 432.702C448.322 431.615 448.596 430.423 448.596 429.214C448.596 428.006 448.322 426.814 447.794 425.727C447.266 424.64 446.498 423.688 445.548 422.941C446.725 422.016 448.139 421.44 449.628 421.28C451.116 421.121 452.62 421.383 453.967 422.037C455.313 422.692 456.449 423.712 457.243 424.981C458.037 426.25 458.459 427.717 458.459 429.214Z" fill="#F79E1B"/>
<path d="M457.709 434.159V433.902H457.812V433.85H457.549V433.902H457.652V434.159H457.709ZM458.221 434.159V433.849H458.14L458.047 434.062L457.954 433.849H457.873V434.159H457.93V433.925L458.017 434.127H458.077L458.164 433.925V434.159H458.221Z" fill="#F79E1B"/>
<path d="M474.485 423.847V416.454H476.629L478.244 423.087H478.413L480.029 416.454H482.173V423.847H481.064V417.257H480.895L479.29 423.847H477.368L475.763 417.257H475.594V423.847H474.485ZM485.363 423.995C484.99 423.995 484.655 423.931 484.36 423.805C484.071 423.678 483.839 423.491 483.663 423.245C483.494 422.999 483.409 422.699 483.409 422.347C483.409 421.988 483.494 421.692 483.663 421.46C483.839 421.221 484.075 421.041 484.37 420.921C484.673 420.802 485.014 420.742 485.395 420.742H486.979V420.404C486.979 420.101 486.887 419.858 486.704 419.675C486.521 419.492 486.24 419.401 485.859 419.401C485.486 419.401 485.201 419.489 485.004 419.665C484.807 419.841 484.676 420.07 484.613 420.351L483.599 420.024C483.684 419.742 483.818 419.489 484.001 419.263C484.191 419.031 484.441 418.844 484.75 418.704C485.06 418.563 485.433 418.492 485.87 418.492C486.546 418.492 487.077 418.665 487.465 419.01C487.852 419.355 488.046 419.844 488.046 420.478V422.622C488.046 422.833 488.144 422.939 488.341 422.939H488.785V423.847H487.972C487.725 423.847 487.525 423.784 487.37 423.657C487.215 423.53 487.137 423.358 487.137 423.139V423.108H486.979C486.923 423.213 486.838 423.336 486.725 423.477C486.613 423.618 486.447 423.741 486.229 423.847C486.011 423.945 485.722 423.995 485.363 423.995ZM485.521 423.097C485.958 423.097 486.31 422.974 486.578 422.727C486.845 422.474 486.979 422.129 486.979 421.692V421.587H485.458C485.169 421.587 484.937 421.65 484.761 421.777C484.585 421.897 484.497 422.076 484.497 422.316C484.497 422.555 484.588 422.745 484.772 422.886C484.955 423.027 485.205 423.097 485.521 423.097ZM491.935 423.995C491.273 423.995 490.724 423.847 490.287 423.551C489.851 423.255 489.583 422.808 489.484 422.21L490.498 421.967C490.555 422.256 490.65 422.485 490.783 422.654C490.917 422.822 491.083 422.942 491.28 423.013C491.484 423.083 491.702 423.118 491.935 423.118C492.28 423.118 492.544 423.051 492.727 422.918C492.917 422.784 493.012 422.611 493.012 422.4C493.012 422.189 492.924 422.034 492.748 421.935C492.572 421.837 492.311 421.756 491.966 421.692L491.607 421.629C491.255 421.566 490.935 421.474 490.646 421.354C490.357 421.235 490.129 421.069 489.96 420.858C489.791 420.647 489.706 420.376 489.706 420.045C489.706 419.552 489.889 419.172 490.255 418.904C490.621 418.63 491.107 418.492 491.713 418.492C492.297 418.492 492.776 418.626 493.149 418.894C493.529 419.154 493.776 419.51 493.888 419.96L492.875 420.246C492.811 419.929 492.677 419.707 492.473 419.58C492.269 419.446 492.016 419.38 491.713 419.38C491.417 419.38 491.185 419.436 491.016 419.549C490.847 419.654 490.762 419.805 490.762 420.003C490.762 420.214 490.843 420.369 491.005 420.467C491.174 420.566 491.4 420.64 491.681 420.689L492.051 420.752C492.424 420.816 492.765 420.904 493.075 421.017C493.385 421.129 493.628 421.291 493.804 421.502C493.987 421.714 494.079 421.995 494.079 422.347C494.079 422.868 493.885 423.273 493.498 423.562C493.11 423.85 492.589 423.995 491.935 423.995ZM497.19 423.847C496.874 423.847 496.62 423.752 496.43 423.562C496.247 423.372 496.155 423.118 496.155 422.801V419.559H494.719V418.64H496.155V416.919H497.243V418.64H498.796V419.559H497.243V422.611C497.243 422.822 497.342 422.928 497.539 422.928H498.627V423.847H497.19ZM502.275 423.995C501.747 423.995 501.286 423.886 500.891 423.667C500.497 423.442 500.187 423.129 499.962 422.727C499.744 422.319 499.635 421.847 499.635 421.312V421.185C499.635 420.643 499.744 420.172 499.962 419.77C500.18 419.362 500.483 419.049 500.87 418.83C501.265 418.605 501.719 418.492 502.233 418.492C502.733 418.492 503.169 418.605 503.542 418.83C503.922 419.049 504.218 419.355 504.429 419.749C504.641 420.143 504.746 420.605 504.746 421.133V421.545H500.743C500.758 422.002 500.909 422.368 501.198 422.643C501.493 422.91 501.859 423.044 502.296 423.044C502.704 423.044 503.011 422.953 503.215 422.77C503.426 422.587 503.588 422.375 503.701 422.136L504.598 422.601C504.5 422.798 504.355 423.006 504.165 423.224C503.982 423.442 503.739 423.625 503.437 423.773C503.134 423.921 502.747 423.995 502.275 423.995ZM500.754 420.71H503.637C503.609 420.316 503.468 420.01 503.215 419.791C502.961 419.566 502.63 419.453 502.222 419.453C501.814 419.453 501.479 419.566 501.219 419.791C500.965 420.01 500.81 420.316 500.754 420.71ZM506.056 423.847V418.64H507.122V419.253H507.291C507.376 419.035 507.51 418.876 507.693 418.778C507.883 418.672 508.115 418.619 508.39 418.619H509.013V419.601H508.347C507.995 419.601 507.707 419.7 507.481 419.897C507.256 420.087 507.143 420.383 507.143 420.784V423.847H506.056ZM512.373 423.995C511.873 423.995 511.419 423.889 511.01 423.678C510.609 423.467 510.289 423.16 510.049 422.759C509.817 422.358 509.701 421.875 509.701 421.312V421.175C509.701 420.612 509.817 420.133 510.049 419.739C510.289 419.337 510.609 419.031 511.01 418.82C511.419 418.602 511.873 418.492 512.373 418.492C512.873 418.492 513.299 418.584 513.651 418.767C514.003 418.95 514.284 419.193 514.496 419.496C514.714 419.798 514.855 420.133 514.918 420.499L513.862 420.721C513.827 420.488 513.753 420.277 513.64 420.087C513.527 419.897 513.369 419.746 513.165 419.633C512.961 419.52 512.704 419.464 512.394 419.464C512.091 419.464 511.816 419.534 511.57 419.675C511.331 419.809 511.141 420.006 511 420.267C510.859 420.52 510.789 420.83 510.789 421.196V421.291C510.789 421.657 510.859 421.971 511 422.231C511.141 422.492 511.331 422.689 511.57 422.822C511.816 422.956 512.091 423.023 512.394 423.023C512.851 423.023 513.2 422.907 513.439 422.675C513.679 422.435 513.83 422.132 513.894 421.766L514.95 422.009C514.865 422.368 514.714 422.699 514.496 423.002C514.284 423.305 514.003 423.548 513.651 423.731C513.299 423.907 512.873 423.995 512.373 423.995ZM476.132 439.995C475.759 439.995 475.425 439.931 475.129 439.805C474.84 439.678 474.608 439.491 474.432 439.245C474.263 438.999 474.178 438.699 474.178 438.347C474.178 437.988 474.263 437.692 474.432 437.46C474.608 437.221 474.844 437.041 475.139 436.921C475.442 436.802 475.784 436.742 476.164 436.742H477.748V436.404C477.748 436.101 477.657 435.858 477.473 435.675C477.29 435.492 477.009 435.401 476.629 435.401C476.255 435.401 475.97 435.489 475.773 435.665C475.576 435.841 475.446 436.07 475.382 436.351L474.368 436.024C474.453 435.742 474.587 435.489 474.77 435.263C474.96 435.031 475.21 434.844 475.52 434.704C475.829 434.563 476.203 434.492 476.639 434.492C477.315 434.492 477.847 434.665 478.234 435.01C478.621 435.355 478.815 435.844 478.815 436.478V438.622C478.815 438.833 478.913 438.939 479.11 438.939H479.554V439.847H478.741C478.494 439.847 478.294 439.784 478.139 439.657C477.984 439.53 477.906 439.358 477.906 439.139V439.108H477.748C477.692 439.213 477.607 439.336 477.495 439.477C477.382 439.618 477.216 439.741 476.998 439.847C476.78 439.945 476.491 439.995 476.132 439.995ZM476.291 439.097C476.727 439.097 477.079 438.974 477.347 438.727C477.614 438.474 477.748 438.129 477.748 437.692V437.587H476.227C475.939 437.587 475.706 437.65 475.53 437.777C475.354 437.897 475.266 438.076 475.266 438.316C475.266 438.555 475.358 438.745 475.541 438.886C475.724 439.027 475.974 439.097 476.291 439.097ZM480.612 439.847V434.64H481.678V435.253H481.847C481.932 435.035 482.066 434.876 482.249 434.778C482.439 434.672 482.671 434.619 482.946 434.619H483.569V435.601H482.904C482.551 435.601 482.263 435.7 482.038 435.897C481.812 436.087 481.7 436.383 481.7 436.784V439.847H480.612ZM486.665 439.995C486.235 439.995 485.838 439.889 485.471 439.678C485.105 439.467 484.81 439.164 484.584 438.77C484.366 438.368 484.257 437.886 484.257 437.323V437.164C484.257 436.608 484.366 436.129 484.584 435.728C484.803 435.327 485.095 435.02 485.461 434.809C485.827 434.598 486.228 434.492 486.665 434.492C487.003 434.492 487.284 434.535 487.51 434.619C487.742 434.704 487.932 434.813 488.08 434.947C488.228 435.073 488.341 435.207 488.418 435.348H488.587V432.454H489.675V439.847H488.608V439.108H488.439C488.305 439.333 488.101 439.537 487.827 439.72C487.559 439.903 487.172 439.995 486.665 439.995ZM486.971 439.044C487.443 439.044 487.83 438.893 488.133 438.59C488.443 438.287 488.598 437.854 488.598 437.291V437.196C488.598 436.64 488.446 436.21 488.143 435.908C487.841 435.605 487.45 435.453 486.971 435.453C486.506 435.453 486.119 435.605 485.809 435.908C485.507 436.21 485.355 436.64 485.355 437.196V437.291C485.355 437.854 485.507 438.287 485.809 438.59C486.119 438.893 486.506 439.044 486.971 439.044Z" fill="#98A2AE"/>
<path d="M474.337 435.23V436.201H477.875L475.826 438.028V439H476.977C477.759 439 478.403 439.496 478.403 440.331C478.403 441.186 477.78 441.799 476.798 441.799C475.752 441.799 475.108 441.176 475.108 440.236V439.803H474.052V440.299C474.052 441.756 475.213 442.77 476.819 442.77C478.276 442.77 479.459 441.788 479.459 440.352C479.459 439.042 478.551 438.197 477.431 438.197H477.157V438.071L479.332 436.17V435.23H474.337ZM480.472 437.067C480.472 438.102 481.212 438.535 481.719 438.704V438.831C481.169 438.979 480.346 439.528 480.346 440.626C480.346 441.894 481.465 442.77 483.049 442.77C484.633 442.77 485.753 441.894 485.753 440.626C485.753 439.528 484.929 438.979 484.38 438.831V438.704C484.887 438.535 485.626 438.102 485.626 437.067C485.626 435.884 484.612 435.082 483.049 435.082C481.486 435.082 480.472 435.884 480.472 437.067ZM481.528 437.173C481.528 436.497 482.109 436.053 483.049 436.053C483.989 436.053 484.57 436.497 484.57 437.173C484.57 437.849 483.989 438.292 483.049 438.292C482.109 438.292 481.528 437.849 481.528 437.173ZM481.402 440.531C481.402 439.75 482.046 439.264 483.049 439.264C484.053 439.264 484.697 439.75 484.697 440.531C484.697 441.313 484.053 441.799 483.049 441.799C482.046 441.799 481.402 441.313 481.402 440.531ZM486.764 437.067C486.764 438.102 487.503 438.535 488.01 438.704V438.831C487.461 438.979 486.637 439.528 486.637 440.626C486.637 441.894 487.756 442.77 489.341 442.77C490.925 442.77 492.044 441.894 492.044 440.626C492.044 439.528 491.22 438.979 490.671 438.831V438.704C491.178 438.535 491.918 438.102 491.918 437.067C491.918 435.884 490.904 435.082 489.341 435.082C487.778 435.082 486.764 435.884 486.764 437.067ZM487.82 437.173C487.82 436.497 488.401 436.053 489.341 436.053C490.281 436.053 490.861 436.497 490.861 437.173C490.861 437.849 490.281 438.292 489.341 438.292C488.401 438.292 487.82 437.849 487.82 437.173ZM487.693 440.531C487.693 439.75 488.337 439.264 489.341 439.264C490.344 439.264 490.988 439.75 490.988 440.531C490.988 441.313 490.344 441.799 489.341 441.799C488.337 441.799 487.693 441.313 487.693 440.531ZM492.844 437.638C492.844 439.158 493.932 440.141 495.167 440.141C496.213 440.141 496.688 439.634 496.942 439.232H497.068V440.225C497.068 441.154 496.466 441.799 495.463 441.799C494.46 441.799 494.005 441.271 494.005 440.468H492.949C492.949 441.894 493.953 442.77 495.463 442.77C497.005 442.77 498.124 441.725 498.124 440.214V437.627C498.124 436.106 496.994 435.082 495.505 435.082C493.974 435.082 492.844 436.117 492.844 437.638ZM495.505 439.211C494.544 439.211 493.9 438.577 493.9 437.638C493.9 436.698 494.544 436.053 495.505 436.053C496.424 436.053 497.068 436.698 497.068 437.638C497.068 438.577 496.424 439.211 495.505 439.211ZM502.421 435.23V436.201H505.959L503.91 438.028V439H505.061C505.843 439 506.487 439.496 506.487 440.331C506.487 441.186 505.864 441.799 504.882 441.799C503.836 441.799 503.192 441.176 503.192 440.236V439.803H502.136V440.299C502.136 441.756 503.298 442.77 504.903 442.77C506.36 442.77 507.543 441.788 507.543 440.352C507.543 439.042 506.635 438.197 505.515 438.197H505.241V438.071L507.417 436.17V435.23H502.421ZM508.609 435.23V436.201H512.147L510.098 438.028V439H511.25C512.031 439 512.675 439.496 512.675 440.331C512.675 441.186 512.052 441.799 511.07 441.799C510.024 441.799 509.38 441.176 509.38 440.236V439.803H508.324V440.299C508.324 441.756 509.486 442.77 511.091 442.77C512.549 442.77 513.731 441.788 513.731 440.352C513.731 439.042 512.823 438.197 511.704 438.197H511.429V438.071L513.605 436.17V435.23H508.609ZM515.967 435.23L513.897 438.461H515.059L516.432 436.212H516.558V442.622H517.614V435.23H515.967ZM521.562 435.23L518.626 440.257V441.186H522.301V442.622H523.357V441.186H524.603V440.214H523.357V435.23H521.562ZM522.174 436.064H522.301V440.214H519.798L522.174 436.064ZM528.526 437.426V438.271H529.846L530.427 438.071L530.48 438.218L529.867 438.525L528.99 439.401L529.592 440.003L530.469 439.127L530.775 438.514L530.923 438.567L530.723 439.148V440.468H531.567V439.148L531.367 438.567L531.515 438.514L531.821 439.127L532.697 440.003L533.299 439.401L532.423 438.525L531.81 438.218L531.863 438.071L532.444 438.271H533.764V437.426H532.444L531.863 437.627L531.81 437.479L532.423 437.173L533.299 436.296L532.697 435.694L531.821 436.571L531.515 437.183L531.367 437.131L531.567 436.55V435.23H530.723V436.55L530.923 437.131L530.775 437.183L530.469 436.571L529.592 435.694L528.99 436.296L529.867 437.173L530.48 437.479L530.427 437.627L529.846 437.426H528.526ZM535.075 437.426V438.271H536.395L536.976 438.071L537.029 438.218L536.416 438.525L535.54 439.401L536.142 440.003L537.018 439.127L537.325 438.514L537.472 438.567L537.272 439.148V440.468H538.117V439.148L537.916 438.567L538.064 438.514L538.37 439.127L539.247 440.003L539.849 439.401L538.972 438.525L538.36 438.218L538.412 438.071L538.993 438.271H540.313V437.426H538.993L538.412 437.627L538.36 437.479L538.972 437.173L539.849 436.296L539.247 435.694L538.37 436.571L538.064 437.183L537.916 437.131L538.117 436.55V435.23H537.272V436.55L537.472 437.131L537.325 437.183L537.018 436.571L536.142 435.694L535.54 436.296L536.416 437.173L537.029 437.479L536.976 437.627L536.395 437.426H535.075ZM541.624 437.426V438.271H542.944L543.525 438.071L543.578 438.218L542.965 438.525L542.089 439.401L542.691 440.003L543.567 439.127L543.874 438.514L544.022 438.567L543.821 439.148V440.468H544.666V439.148L544.465 438.567L544.613 438.514L544.919 439.127L545.796 440.003L546.398 439.401L545.521 438.525L544.909 438.218L544.962 438.071L545.542 438.271H546.863V437.426H545.542L544.962 437.627L544.909 437.479L545.521 437.173L546.398 436.296L545.796 435.694L544.919 436.571L544.613 437.183L544.465 437.131L544.666 436.55V435.23H543.821V436.55L544.022 437.131L543.874 437.183L543.567 436.571L542.691 435.694L542.089 436.296L542.965 437.173L543.578 437.479L543.525 437.627L542.944 437.426H541.624ZM548.173 437.426V438.271H549.494L550.074 438.071L550.127 438.218L549.515 438.525L548.638 439.401L549.24 440.003L550.117 439.127L550.423 438.514L550.571 438.567L550.37 439.148V440.468H551.215V439.148L551.014 438.567L551.162 438.514L551.468 439.127L552.345 440.003L552.947 439.401L552.07 438.525L551.458 438.218L551.511 438.071L552.092 438.271H553.412V437.426H552.092L551.511 437.627L551.458 437.479L552.07 437.173L552.947 436.296L552.345 435.694L551.468 436.571L551.162 437.183L551.014 437.131L551.215 436.55V435.23H550.37V436.55L550.571 437.131L550.423 437.183L550.117 436.571L549.24 435.694L548.638 436.296L549.515 437.173L550.127 437.479L550.074 437.627L549.494 437.426H548.173ZM557.889 437.426V438.271H559.209L559.79 438.071L559.843 438.218L559.23 438.525L558.354 439.401L558.956 440.003L559.832 439.127L560.138 438.514L560.286 438.567L560.086 439.148V440.468H560.93V439.148L560.73 438.567L560.878 438.514L561.184 439.127L562.061 440.003L562.663 439.401L561.786 438.525L561.173 438.218L561.226 438.071L561.807 438.271H563.127V437.426H561.807L561.226 437.627L561.173 437.479L561.786 437.173L562.663 436.296L562.061 435.694L561.184 436.571L560.878 437.183L560.73 437.131L560.93 436.55V435.23H560.086V436.55L560.286 437.131L560.138 437.183L559.832 436.571L558.956 435.694L558.354 436.296L559.23 437.173L559.843 437.479L559.79 437.627L559.209 437.426H557.889ZM564.438 437.426V438.271H565.758L566.339 438.071L566.392 438.218L565.779 438.525L564.903 439.401L565.505 440.003L566.381 439.127L566.688 438.514L566.835 438.567L566.635 439.148V440.468H567.48V439.148L567.279 438.567L567.427 438.514L567.733 439.127L568.61 440.003L569.212 439.401L568.335 438.525L567.723 438.218L567.775 438.071L568.356 438.271H569.676V437.426H568.356L567.775 437.627L567.723 437.479L568.335 437.173L569.212 436.296L568.61 435.694L567.733 436.571L567.427 437.183L567.279 437.131L567.48 436.55V435.23H566.635V436.55L566.835 437.131L566.688 437.183L566.381 436.571L565.505 435.694L564.903 436.296L565.779 437.173L566.392 437.479L566.339 437.627L565.758 437.426H564.438ZM570.987 437.426V438.271H572.307L572.888 438.071L572.941 438.218L572.329 438.525L571.452 439.401L572.054 440.003L572.931 439.127L573.237 438.514L573.385 438.567L573.184 439.148V440.468H574.029V439.148L573.828 438.567L573.976 438.514L574.282 439.127L575.159 440.003L575.761 439.401L574.884 438.525L574.272 438.218L574.325 438.071L574.905 438.271H576.226V437.426H574.905L574.325 437.627L574.272 437.479L574.884 437.173L575.761 436.296L575.159 435.694L574.282 436.571L573.976 437.183L573.828 437.131L574.029 436.55V435.23H573.184V436.55L573.385 437.131L573.237 437.183L572.931 436.571L572.054 435.694L571.452 436.296L572.329 437.173L572.941 437.479L572.888 437.627L572.307 437.426H570.987ZM577.536 437.426V438.271H578.857L579.437 438.071L579.49 438.218L578.878 438.525L578.001 439.401L578.603 440.003L579.48 439.127L579.786 438.514L579.934 438.567L579.733 439.148V440.468H580.578V439.148L580.377 438.567L580.525 438.514L580.832 439.127L581.708 440.003L582.31 439.401L581.434 438.525L580.821 438.218L580.874 438.071L581.455 438.271H582.775V437.426H581.455L580.874 437.627L580.821 437.479L581.434 437.173L582.31 436.296L581.708 435.694L580.832 436.571L580.525 437.183L580.377 437.131L580.578 436.55V435.23H579.733V436.55L579.934 437.131L579.786 437.183L579.48 436.571L578.603 435.694L578.001 436.296L578.878 437.173L579.49 437.479L579.437 437.627L578.857 437.426H577.536Z" fill="#0A0A0A"/>
<defs>
<filter id="filter0_d_20_9926" x="0" y="0" width="628" height="496" filterUnits="userSpaceOnUse" color-interpolation-filters="sRGB">
<feFlood flood-opacity="0" result="BackgroundImageFix"/>
<feColorMatrix in="SourceAlpha" type="matrix" values="0 0 0 0 0 0 0 0 0 0 0 0 0 0 0 0 0 0 127 0" result="hardAlpha"/>
<feOffset dy="4"/>
<feGaussianBlur stdDeviation="20"/>
<feComposite in2="hardAlpha" operator="out"/>
<feColorMatrix type="matrix" values="0 0 0 0 0.054902 0 0 0 0 0.121569 0 0 0 0 0.258824 0 0 0 0.03 0"/>
<feBlend mode="normal" in2="BackgroundImageFix" result="effect1_dropShadow_20_9926"/>
<feBlend mode="normal" in="SourceGraphic" in2="effect1_dropShadow_20_9926" result="shape"/>
</filter>
<filter id="filter1_d_20_9926" x="370.449" y="319.143" width="302.755" height="190.102" filterUnits="userSpaceOnUse" color-interpolation-filters="sRGB">
<feFlood flood-opacity="0" result="BackgroundImageFix"/>
<feColorMatrix in="SourceAlpha" type="matrix" values="0 0 0 0 0 0 0 0 0 0 0 0 0 0 0 0 0 0 127 0" result="hardAlpha"/>
<feOffset dy="4.69388"/>
<feGaussianBlur stdDeviation="18.7755"/>
<feComposite in2="hardAlpha" operator="out"/>
<feColorMatrix type="matrix" values="0 0 0 0 0.054902 0 0 0 0 0.121569 0 0 0 0 0.258824 0 0 0 0.05 0"/>
<feBlend mode="normal" in2="BackgroundImageFix" result="effect1_dropShadow_20_9926"/>
<feBlend mode="normal" in="SourceGraphic" in2="effect1_dropShadow_20_9926" result="shape"/>
</filter>
</defs>
</svg>
