<svg width="32" height="32" viewBox="0 0 32 32" fill="none" xmlns="http://www.w3.org/2000/svg">
<circle cx="16" cy="16.0006" r="16" fill="#F3F6FA"/>
<path d="M11.1811 15.9193C11.1356 16.71 11.7443 17.387 12.535 17.4325C12.5634 17.4325 12.5919 17.4325 12.6203 17.4325C13.4167 17.4325 14.0596 16.7897 14.0539 15.9933C14.0539 15.1969 13.4111 14.554 12.6146 14.5597C11.8524 14.5597 11.2209 15.157 11.1811 15.9193Z" fill="#0033AD"/>
<path d="M5.82271 15.5494C5.56672 15.5324 5.34486 15.7315 5.33348 15.9874C5.32211 16.2434 5.51552 16.4653 5.77151 16.4767C6.0275 16.4937 6.24367 16.2946 6.26073 16.0386C6.2778 15.7827 6.0787 15.5665 5.82271 15.5494Z" fill="#0033AD"/>
<path d="M11.0907 7.57984C11.3183 7.46607 11.4093 7.18163 11.2955 6.95409C11.1818 6.72654 10.8973 6.63553 10.6698 6.7493C10.4422 6.86307 10.3512 7.14181 10.465 7.36936C10.5788 7.60259 10.8575 7.6993 11.0907 7.57984C11.0907 7.57984 11.0851 7.57984 11.0907 7.57984Z" fill="#0033AD"/>
<path d="M12.5468 10.1224C12.8995 9.946 13.0417 9.51367 12.8654 9.16097C12.689 8.80828 12.2567 8.66606 11.904 8.84241C11.5513 9.01876 11.4091 9.45109 11.5855 9.80379C11.7618 10.1565 12.1941 10.2987 12.5468 10.1224Z" fill="#0033AD"/>
<path d="M7.64275 11.8687C7.9158 12.045 8.27987 11.9711 8.46191 11.698C8.63826 11.425 8.5643 11.0609 8.29125 10.8789C8.0182 10.7025 7.65412 10.7765 7.47209 11.0495C7.29005 11.3226 7.36969 11.6924 7.64275 11.8687Z" fill="#0033AD"/>
<path d="M8.51366 15.2933C8.11545 15.2706 7.77982 15.5721 7.75707 15.9703C7.73431 16.3685 8.03581 16.7041 8.43401 16.7269C8.83222 16.7496 9.16785 16.4481 9.1906 16.0499C9.21336 15.6574 8.91186 15.3161 8.51366 15.2933Z" fill="#0033AD"/>
<path d="M7.72272 20.1116C7.4326 20.2595 7.31314 20.6122 7.46104 20.908C7.60895 21.1981 7.96164 21.3175 8.25745 21.1696C8.54757 21.0217 8.66703 20.669 8.51913 20.3732C8.37122 20.0831 8.01284 19.9637 7.72272 20.1116Z" fill="#0033AD"/>
<path d="M10.5102 13.8089C10.9028 14.0648 11.4261 13.9568 11.6764 13.5642C11.9324 13.1717 11.8243 12.6484 11.4318 12.3981C11.0393 12.1421 10.5159 12.2502 10.2656 12.6427C10.0096 13.0295 10.1177 13.5529 10.5102 13.8089Z" fill="#0033AD"/>
<path d="M19.3563 10.0657C19.6862 10.2819 20.1356 10.1909 20.3518 9.86093C20.568 9.53099 20.4769 9.08159 20.147 8.86542C19.8171 8.64925 19.3677 8.74027 19.1515 9.07021C18.9296 9.40584 19.0207 9.84955 19.3563 10.0657Z" fill="#0033AD"/>
<path d="M20.8232 7.53433C21.0394 7.67655 21.3238 7.61397 21.466 7.3978C21.6082 7.18164 21.5457 6.8972 21.3295 6.75499C21.1133 6.61277 20.8289 6.67535 20.6867 6.88583C20.5502 7.10199 20.6127 7.39211 20.8232 7.53433Z" fill="#0033AD"/>
<path d="M19.4638 14.5484C18.6731 14.5029 17.9905 15.1116 17.9506 15.9023C17.9051 16.693 18.5138 17.3757 19.3045 17.4155C19.333 17.4155 19.3614 17.4155 19.3842 17.4155C20.1749 17.4155 20.8177 16.7727 20.8177 15.9763C20.8234 15.2197 20.2261 14.5882 19.4638 14.5484Z" fill="#0033AD"/>
<path d="M13.0192 13.7063C13.2638 14.1899 13.7587 14.4971 14.3048 14.4971C15.0955 14.4971 15.7383 13.8543 15.7383 13.0578C15.7383 12.836 15.6871 12.6141 15.5847 12.4093C15.2264 11.6983 14.3617 11.4138 13.6563 11.7722C12.9452 12.1363 12.6608 13.001 13.0192 13.7063Z" fill="#0033AD"/>
<path d="M24.2763 11.8688C24.5664 11.7209 24.6802 11.3625 24.5323 11.0723C24.3844 10.7822 24.026 10.6685 23.7358 10.8164C23.4457 10.9643 23.332 11.317 23.4742 11.6071C23.6278 11.8972 23.9805 12.0167 24.2763 11.8688Z" fill="#0033AD"/>
<path d="M20.6357 12.3238C20.2204 12.5342 20.0497 13.0405 20.2602 13.4558C20.4707 13.8711 20.977 14.0417 21.3922 13.8312C21.8075 13.6208 21.9782 13.1145 21.7677 12.6992C21.5572 12.2839 21.0509 12.119 20.6357 12.3238Z" fill="#0033AD"/>
<path d="M15.9431 7.31799C16.2673 7.33505 16.5461 7.08475 16.5688 6.7605C16.5916 6.43625 16.3356 6.15751 16.0113 6.13475C15.6871 6.11769 15.4083 6.3623 15.3856 6.68655C15.3685 7.01649 15.6188 7.29523 15.9431 7.31799Z" fill="#0033AD"/>
<path d="M15.9371 11.0326C16.4036 11.0611 16.8018 10.7027 16.8245 10.2362C16.853 9.76977 16.4946 9.37157 16.0281 9.34881C15.5616 9.32037 15.1634 9.67875 15.1407 10.1452C15.1179 10.6117 15.4706 11.0099 15.9371 11.0326Z" fill="#0033AD"/>
<path d="M11.3639 19.6565C11.7792 19.446 11.9499 18.9397 11.7394 18.5245C11.5289 18.1092 11.0226 17.9385 10.6073 18.149C10.1921 18.3595 10.0214 18.8658 10.2319 19.281C10.4424 19.6963 10.9487 19.867 11.3639 19.6565Z" fill="#0033AD"/>
<path d="M16.4832 12.2673C16.0509 12.9328 16.2329 13.8203 16.8985 14.2526C17.5641 14.6849 18.4515 14.5029 18.8839 13.8373C19.3162 13.1718 19.1342 12.2843 18.4686 11.852C18.2353 11.6984 17.9623 11.6188 17.6835 11.6188C17.2 11.6188 16.7506 11.8634 16.4832 12.2673Z" fill="#0033AD"/>
<path d="M18.9802 18.2741C18.6219 17.563 17.7572 17.2786 17.0518 17.637C16.3407 17.9953 16.0563 18.86 16.4147 19.5654C16.7731 20.2765 17.6377 20.5609 18.3431 20.2025C19.0485 19.8498 19.3386 18.9965 18.9859 18.2855C18.9859 18.2798 18.9859 18.2798 18.9802 18.2741Z" fill="#0033AD"/>
<path d="M21.4894 18.172C21.0969 17.916 20.5735 18.0241 20.3232 18.4166C20.0673 18.8091 20.1753 19.3325 20.5679 19.5828C20.9604 19.8388 21.4837 19.7307 21.734 19.3382C21.99 18.9513 21.8819 18.428 21.4894 18.172Z" fill="#0033AD"/>
<path d="M24.2424 16.0157C24.2651 15.6175 23.9636 15.2819 23.5654 15.2591C23.1672 15.2364 22.8316 15.5379 22.8088 15.9361C22.7861 16.3343 23.0876 16.6699 23.4858 16.6927C23.8783 16.7154 24.2196 16.4082 24.2424 16.0157Z" fill="#0033AD"/>
<path d="M26.228 15.5041C25.972 15.487 25.7501 15.6861 25.7388 15.9421C25.7274 16.1981 25.9208 16.4199 26.1768 16.4313C26.4328 16.4484 26.6489 16.2493 26.666 15.9933C26.6774 15.7373 26.484 15.5211 26.228 15.5041Z" fill="#0033AD"/>
<path d="M24.3561 20.1118C24.0831 19.9354 23.719 20.0094 23.537 20.2824C23.3606 20.5555 23.4346 20.9196 23.7076 21.1016C23.9807 21.278 24.3447 21.204 24.5268 20.931C24.7088 20.6579 24.6292 20.2881 24.3561 20.1118Z" fill="#0033AD"/>
<path d="M11.1697 24.4464C10.9535 24.3042 10.6691 24.3668 10.5268 24.5772C10.3846 24.7934 10.4472 25.0778 10.6577 25.22C10.8738 25.3623 11.1583 25.2997 11.3005 25.0892C11.4484 24.8787 11.3858 24.5886 11.1697 24.4464Z" fill="#0033AD"/>
<path d="M20.909 24.4011C20.6815 24.5148 20.5905 24.7993 20.7043 25.0268C20.818 25.2544 21.1025 25.3454 21.33 25.2316C21.5575 25.1178 21.6486 24.8391 21.5348 24.6115C21.421 24.3783 21.1423 24.2816 20.909 24.4011C20.909 24.4011 20.9147 24.4011 20.909 24.4011Z" fill="#0033AD"/>
<path d="M15.5161 19.7136C15.9484 19.0481 15.7664 18.1607 15.1008 17.7226C14.4352 17.2903 13.5478 17.4723 13.1098 18.1379C12.6718 18.8035 12.8595 19.6909 13.5251 20.1289C13.7583 20.2825 14.0313 20.3622 14.3101 20.3622C14.7993 20.3678 15.2487 20.1232 15.5161 19.7136Z" fill="#0033AD"/>
<path d="M12.643 21.9152C12.3131 21.6991 11.8637 21.7901 11.6475 22.12C11.4314 22.45 11.5224 22.8994 11.8523 23.1155C12.1823 23.3317 12.6317 23.2407 12.8478 22.9107C13.0697 22.5808 12.9787 22.1314 12.643 21.9152Z" fill="#0033AD"/>
<path d="M15.9943 24.6626C15.6701 24.6455 15.3913 24.8958 15.3686 25.2201C15.3458 25.5443 15.6018 25.823 15.9261 25.8458C16.2503 25.8629 16.5291 25.6183 16.5518 25.294C16.5689 24.9641 16.3186 24.6853 15.9943 24.6626Z" fill="#0033AD"/>
<path d="M15.9994 20.948C15.5329 20.9196 15.1347 21.2779 15.1119 21.7444C15.0835 22.2109 15.4419 22.6091 15.9083 22.6318C16.3748 22.6546 16.773 22.3019 16.7958 21.8354C16.8242 21.3746 16.4658 20.9707 15.9994 20.948Z" fill="#0033AD"/>
<path d="M19.4528 21.8582C19.1001 22.0402 18.9579 22.4725 19.1399 22.8252C19.322 23.1779 19.7543 23.3201 20.107 23.1381C20.4597 22.9617 20.6019 22.5294 20.4255 22.1767C20.2435 21.824 19.8112 21.6761 19.4528 21.8582Z" fill="#0033AD"/>
</svg>
