<svg width="28" height="28" viewBox="0 0 28 28" fill="none" xmlns="http://www.w3.org/2000/svg">
<path d="M27.5814 17.3869C25.7113 24.8869 18.1137 29.4509 10.6119 27.581C3.11363 25.7111 -1.45132 18.1144 0.419205 10.6148C2.28842 3.11393 9.88558 -1.45092 17.3852 0.418946C24.8865 2.28881 29.451 9.8864 27.5809 17.3869H27.5814Z" fill="#FFF3E4"/>
<path fill-rule="evenodd" clip-rule="evenodd" d="M19.2949 12.628C19.5146 11.157 18.3946 10.3662 16.8632 9.83869L17.3599 7.84605L16.1467 7.54376L15.663 9.4839C15.3445 9.40444 15.017 9.32948 14.6916 9.2552L15.1787 7.30228L13.9664 7L13.4693 8.99196C13.2054 8.93184 12.9463 8.87242 12.6948 8.8099L12.6961 8.80368L11.0234 8.38601L10.7007 9.6815C10.7007 9.6815 11.6007 9.88775 11.5817 9.90053C12.0729 10.0232 12.1621 10.3483 12.1469 10.606L11.581 12.876C11.6148 12.8847 11.6587 12.8971 11.7071 12.9164L11.5793 12.8847L10.7857 16.0647C10.7256 16.2139 10.5733 16.4378 10.2299 16.3528C10.242 16.3704 9.34824 16.1327 9.34824 16.1327L8.74609 17.5215L10.3249 17.915C10.5031 17.9596 10.6791 18.0056 10.8533 18.051C10.966 18.0804 11.078 18.1096 11.1892 18.1382L10.6873 20.154L11.8988 20.4562L12.3963 18.4622C12.7269 18.552 13.0482 18.6349 13.3626 18.713L12.8672 20.6977L14.0801 21L14.582 18.9884C16.6504 19.3798 18.206 19.2219 18.86 17.3515C19.3875 15.8453 18.834 14.9765 17.7458 14.4095C18.5383 14.2261 19.1353 13.7048 19.2945 12.628H19.2949ZM16.5225 16.5143C16.1782 17.8968 14.0138 17.3248 13.0244 17.0633C12.9358 17.0399 12.8567 17.0189 12.7891 17.0021L13.4551 14.332C13.5378 14.3527 13.6387 14.3753 13.7531 14.401L13.7531 14.401C14.7766 14.6307 16.8743 15.1014 16.5229 16.5143H16.5225ZM13.9611 13.1619C14.7866 13.3821 16.5861 13.8622 16.8996 12.6064C17.2201 11.3216 15.4702 10.9344 14.6157 10.7453C14.5196 10.724 14.4348 10.7052 14.3656 10.688L13.7617 13.1097C13.8189 13.1239 13.8859 13.1418 13.9611 13.1619Z" fill="#F7931A"/>
</svg>
