<svg width="175" height="51" viewBox="0 0 175 51" fill="none" xmlns="http://www.w3.org/2000/svg">
<path d="M5.92398 45.5038L1 48V51H174V23L168.986 7.03559L164.472 18.0451L155.948 11.5548L151.936 22.0391L143.913 17.0466L137.394 3L132.963 10.5667L127.054 6.53115L124.099 11.5548L117.698 16.0481L112.774 7.03559L106.866 14.6023L105.388 22.6735H97.51L91.6012 29.7358L86.6772 33.0225L82.2456 25.5338L77.8141 33.0225L73.8749 24.0361L66.9813 25.5338L64.0269 16.0481L60.0877 11.5548L57.6258 18.0451L50.7322 17.0466L46.3006 9.55784L43.3462 22.0391L35.4678 26.5323L33.0059 35.5188L29.5591 37.5158L24.6351 33.0225L18.2339 43.0075L15.7719 40.5113L11.3404 48L5.92398 45.5038Z" fill="url(#paint0_linear_62_379)"/>
<path d="M1 48L5.92398 45.5038L11.3404 48L15.7719 40.5113L18.2339 43.0075L24.6351 33.0225L29.5591 37.5158L33.0059 35.5188L35.4678 26.5323L43.3462 22.0391L46.3006 9.55784L50.7322 17.0466L57.6258 18.0451L60.0877 11.5548L64.0269 16.0481L66.9813 25.5338L73.8749 24.0361L77.8141 33.0225L82.2456 25.5338L86.6772 33.0225L91.6012 29.7358L97.51 22.6735H105.388L106.866 14.6023L112.774 7.03559L117.698 16.0481L124.099 11.5548L127.054 6.53115L132.963 10.5667L137.394 3L143.913 17.0466L151.936 22.0391L155.948 11.5548L164.472 18.0451L168.986 7.03559L174 23" stroke="#EA3943" stroke-width="2"/>
<defs>
<linearGradient id="paint0_linear_62_379" x1="87.5" y1="-16.1977" x2="87.5607" y2="60.375" gradientUnits="userSpaceOnUse">
<stop stop-color="#EA3943" stop-opacity="0.16"/>
<stop offset="1" stop-color="#EA3943" stop-opacity="0"/>
</linearGradient>
</defs>
</svg>
