<svg width="103" height="48" viewBox="0 0 103 48" fill="none" xmlns="http://www.w3.org/2000/svg">
<path fill-rule="evenodd" clip-rule="evenodd" d="M16.1644 28.9441C16.7978 28.9441 17.3903 28.8292 17.9488 28.6063C17.9488 28.6266 19.0862 30.3762 19.1066 30.383C18.0999 30.9179 16.9726 31.1899 15.8307 31.1734C12.3368 31.1801 9.80322 28.89 9.80322 25.2489C9.80322 21.5807 12.4594 19.3041 15.8307 19.3041C17.0225 19.3041 17.9692 19.5608 18.9159 20.0607L17.8262 21.8847C17.2541 21.6617 16.6684 21.5604 16.0554 21.5604C13.9918 21.5604 12.3913 22.8642 12.3913 25.2489C12.3913 27.5052 13.9373 28.9441 16.1644 28.9441ZM24.9706 19.3041C28.4032 19.3041 30.8891 21.7158 30.8891 25.2489C30.8891 28.7617 28.4032 31.1734 24.9638 31.1734C21.5585 31.1734 19.0726 28.7617 19.0726 25.2489C19.0726 21.7158 21.5585 19.3041 24.9706 19.3041ZM24.9706 21.4794C23.0568 21.4794 21.6606 22.9453 21.6606 25.2489C21.6606 27.5322 23.0568 28.9981 24.9706 28.9981C26.9321 28.9981 28.3078 27.5322 28.3078 25.2489C28.3078 22.9453 26.9321 21.4794 24.9706 21.4794ZM32.5168 30.9167V19.5608H35.0777V30.9099H32.5168V30.9167ZM32.1763 16.0683C32.2029 15.6643 32.3834 15.2854 32.6813 15.0086C32.9791 14.7318 33.372 14.5777 33.7802 14.5777C34.1884 14.5777 34.5813 14.7318 34.8792 15.0086C35.1771 15.2854 35.3576 15.6643 35.3841 16.0683C35.3842 16.4925 35.2167 16.8998 34.9175 17.2029C34.6183 17.506 34.2112 17.6807 33.7836 17.6896C33.356 17.6807 32.949 17.506 32.6498 17.2029C32.3506 16.8998 32.183 16.4925 32.1831 16.0683H32.1763ZM37.3116 20.2769C38.989 19.6515 40.7639 19.3223 42.5558 19.3041C45.4844 19.3041 47.3369 20.4052 47.3369 23.6073V30.9167H44.8101V23.8437C44.8101 22.2022 43.7817 21.6145 42.3583 21.6145C41.4525 21.6145 40.5466 21.7361 39.8724 21.9455V30.9099H37.3184V20.2769H37.3116ZM49.4823 13.481H52.0431V19.8648C52.5879 19.5811 53.6436 19.3041 54.6516 19.3041C57.9616 19.3041 60.4406 21.3983 60.4406 25.0462C60.4406 28.7144 57.9888 31.1734 53.7526 31.1734C52.0976 31.1734 50.6469 30.8356 49.4823 30.4303V13.481ZM52.0431 28.7617C52.5334 28.9171 53.1805 28.9981 53.8275 28.9981C56.1772 28.9981 57.8594 27.7146 57.8594 25.1003C57.8594 22.8912 56.2793 21.5874 54.3451 21.5874C53.3371 21.5874 52.5607 21.8441 52.0431 22.1279V28.7617ZM67.8439 23.3033C67.8439 22.0738 66.904 21.5064 65.6372 21.5064C64.3227 21.5064 63.2875 21.8914 62.334 22.4319V20.2228C63.4746 19.608 64.7545 19.2918 66.0526 19.3041C68.559 19.3041 70.3434 20.3309 70.3434 23.175V30.687C69.2537 30.9707 67.7076 31.1463 66.4136 31.1463C63.4442 31.1463 61.2715 30.2546 61.2715 27.6876C61.2715 25.3772 63.2603 24.2491 66.5703 24.2491H67.837V23.3033H67.8439ZM67.8439 25.9379H66.7541C64.9697 25.9379 63.8051 26.4581 63.8051 27.6133C63.8051 28.7887 64.8948 29.2481 66.4409 29.2481C66.8291 29.2481 67.3739 29.2008 67.837 29.1265V25.9447L67.8439 25.9379ZM72.2027 27.8429C73.2007 28.6273 74.4242 29.0767 75.6966 29.1265C76.834 29.1265 77.5831 28.7414 77.5831 27.8429C77.5831 26.9175 76.9089 26.5864 75.4378 26.2014C73.054 25.6609 72.0529 24.7152 72.0529 22.7359C72.0529 20.4323 73.81 19.3041 76.1393 19.3041C77.4333 19.3041 78.4617 19.5811 79.422 20.1756V22.5062C78.5093 21.7836 77.3817 21.38 76.2142 21.3578C75.104 21.3578 74.5115 21.8982 74.5115 22.6413C74.5115 23.3844 74.9951 23.7627 76.3163 24.1275C78.9316 24.6882 80.0622 25.6609 80.0622 27.7078C80.0622 30.0992 78.2301 31.1734 75.7511 31.1734C74.5076 31.198 73.2816 30.8799 72.2095 30.2546V27.8429H72.2027ZM83.5697 25.8163V25.8636C83.7264 27.8902 85.4767 28.9981 87.2679 28.9981C88.8412 28.9981 89.9786 28.6333 91.116 27.8902V30.1195C90.0807 30.8423 88.5551 31.1734 87.084 31.1734C83.5152 31.1734 81.0906 28.9171 81.0906 25.3299C81.0906 21.7158 83.4676 19.3041 86.6209 19.3041C89.9581 19.3041 91.5314 21.4321 91.5314 24.5328V25.8163H83.5629H83.5697ZM89.1272 24.1748C89.0727 22.4048 88.1942 21.4321 86.5392 21.4321C85.0681 21.4321 83.9852 22.4589 83.6446 24.1748H89.1272Z" fill="#CFD8E1"/>
</svg>
