<svg width="164" height="48" viewBox="0 0 164 48" fill="none" xmlns="http://www.w3.org/2000/svg">
<path d="M28.1636 26.4934C27.7102 26.7705 27.1813 26.8208 26.7783 26.5941C26.2746 26.2919 25.9723 25.6119 25.9723 24.6799V21.8338C25.9723 20.4737 25.4434 19.4915 24.5367 19.2396C23.0003 18.7862 21.8417 20.6752 21.4135 21.3805L18.6933 25.7378V20.373C18.6682 19.1388 18.2652 18.4084 17.5096 18.1817C17.0058 18.0306 16.2502 18.1062 15.5198 19.2144L9.44978 28.9365C8.6438 27.4001 8.21563 25.6874 8.21563 23.9495C8.21563 18.081 12.9256 13.3207 18.6933 13.3207C24.4611 13.3207 29.1711 18.081 29.1711 23.9495V23.9747V23.9999C29.2214 25.1333 28.8688 26.04 28.1636 26.4934ZM31.4883 23.9495V23.9243V23.8992C31.4631 16.7713 25.7205 10.9531 18.6933 10.9531C11.641 10.9531 5.89844 16.7713 5.89844 23.9495C5.89844 31.1026 11.641 36.9459 18.6933 36.9459C21.9424 36.9459 25.0152 35.7118 27.3828 33.4701C27.8614 33.0168 27.8865 32.2864 27.4332 31.8078C27.005 31.3293 26.2746 31.3041 25.796 31.7323C25.796 31.7323 25.796 31.7323 25.7708 31.7574C23.8566 33.5709 21.2876 34.6036 18.643 34.6036C15.545 34.6036 12.7744 33.2435 10.8602 31.0774L16.3258 22.3124V26.3675C16.3258 28.3069 17.0814 28.9365 17.7111 29.1128C18.3407 29.2891 19.2978 29.1632 20.3305 27.5261L23.3277 22.665C23.4285 22.5139 23.504 22.3628 23.6048 22.262V24.7303C23.6048 26.5438 24.3352 28.0046 25.5945 28.7098C26.7279 29.3647 28.1636 29.2891 29.3474 28.5587C30.8082 27.6016 31.589 25.9393 31.4883 23.9495ZM49.3205 19.5166C49.6228 19.693 49.8998 20.1211 49.8998 20.4989C49.8998 21.1034 49.3961 21.6072 48.8168 21.6072C48.6657 21.6072 48.5397 21.5568 48.4138 21.5316C47.7338 21.0279 46.8774 20.7004 45.9707 20.7004C43.8298 20.7004 42.369 22.4383 42.369 24.6044C42.369 26.7705 43.855 28.4832 45.9707 28.4832C47.0285 28.4832 47.9856 28.055 48.6909 27.3749C48.8672 27.249 49.0939 27.1734 49.3205 27.1734C49.8998 27.1734 50.3532 27.6268 50.3532 28.2061C50.3532 28.5839 50.1265 28.9113 49.8495 29.0876C48.8168 29.9692 47.4315 30.5485 45.9959 30.5485C42.7216 30.5485 40.0518 27.8535 40.0518 24.5288C40.0518 21.2042 42.7216 18.5092 45.9959 18.5092C47.2048 18.484 48.3634 18.8618 49.3205 19.5166ZM55.315 22.0353C57.5566 22.0353 59.4205 23.9243 59.4205 26.2667C59.4205 28.5839 57.5314 30.5737 55.315 30.5737C52.9726 30.5737 51.0332 28.6091 51.0332 26.2667C51.0332 23.9243 52.9726 22.0353 55.315 22.0353ZM55.2898 28.4832C56.2721 28.4832 57.1033 27.5512 57.1033 26.2919C57.1033 25.0326 56.2721 24.2266 55.2898 24.2266C54.232 24.2266 53.3504 25.0074 53.3504 26.2919C53.3504 27.5261 54.232 28.4832 55.2898 28.4832ZM60.8309 29.2639V23.3199C60.8309 22.665 61.3347 22.1361 61.9895 22.1361C62.6192 22.1361 63.1481 22.665 63.1481 23.3199V29.2639C63.1481 29.9188 62.6192 30.4477 61.9895 30.4477C61.3598 30.4477 60.8309 29.8936 60.8309 29.2639ZM60.6546 19.8944C60.6546 19.1137 61.2591 18.5092 61.9895 18.5092C62.7451 18.5092 63.3496 19.1388 63.3496 19.8944C63.3496 20.6501 62.7451 21.2545 61.9895 21.2545C61.2339 21.2293 60.6546 20.6249 60.6546 19.8944ZM67.581 26.04V29.2639C67.581 29.9188 67.0521 30.4477 66.4224 30.4477C65.7927 30.4477 65.2638 29.9188 65.2638 29.2639V23.0428C65.2638 22.5391 65.6668 22.1361 66.1705 22.1361C66.6743 22.1361 67.0521 22.5643 67.0521 23.0428C67.984 22.1613 68.8151 22.0353 69.5959 22.0353C71.9131 22.0353 72.9458 23.7732 72.9458 25.763V29.2639C72.9458 29.9188 72.4169 30.4477 71.7872 30.4477C71.1575 30.4477 70.6286 29.9188 70.6286 29.2639V26.04C70.6286 25.0326 70.5027 24.1762 69.0418 24.1762C68.0092 24.1762 67.581 25.0326 67.581 26.04ZM80.4515 27.2742C80.1744 27.2742 79.9981 27.1483 79.847 26.9719L77.152 24.0503V29.2639C77.152 29.9188 76.6231 30.4477 75.9934 30.4477C75.3637 30.4477 74.8348 29.9188 74.8348 29.2639V18.9374C74.9103 18.761 75.0867 18.6351 75.263 18.6351C75.4645 18.6351 75.6408 18.8114 75.7667 18.9374L80.0737 23.7732C80.1996 23.9243 80.3507 23.9999 80.4515 23.9999C80.527 23.9999 80.7033 23.9243 80.8293 23.7732L85.1362 18.9374C85.2621 18.8114 85.4133 18.6351 85.6399 18.6351C85.8414 18.6351 86.0177 18.761 86.0681 18.9374V29.2639C86.0681 29.9188 85.5644 30.4477 84.9095 30.4477C84.2799 30.4477 83.7509 29.9188 83.7509 29.2639V24.0503L81.0559 26.9719C80.8544 27.1483 80.6781 27.2742 80.4515 27.2742ZM91.584 28.4832C92.6167 28.4832 93.4982 27.5512 93.4982 26.2919C93.4982 25.0326 92.5915 24.2014 91.584 24.2014C90.5766 24.2014 89.7454 25.0577 89.7454 26.2919C89.7454 27.5009 90.5514 28.4832 91.584 28.4832ZM94.0523 29.541L94.002 29.2639C93.5486 30.1455 92.113 30.5485 91.2062 30.5485C89.0402 30.5485 87.4282 28.5839 87.4282 26.2415C87.4282 23.9243 89.0653 22.0101 91.3322 22.0101C91.71 22.0101 93.0197 22.1109 94.0272 23.2947L94.0775 23.0176C94.0775 22.5139 94.4553 22.1109 94.9591 22.1109C95.4628 22.1109 95.8658 22.5391 95.8658 23.0176V29.5158C95.8658 30.0196 95.4628 30.4225 94.9591 30.4225C94.4301 30.4477 94.0523 30.0196 94.0523 29.541ZM102.238 24.1762H101.986C100.525 24.2518 100.248 25.0829 100.248 26.04V29.2639C100.248 29.9188 99.7194 30.4477 99.0897 30.4477C98.46 30.4477 97.9311 29.9188 97.9311 29.2639V23.0428C97.9311 22.5391 98.3341 22.1361 98.8378 22.1361C99.3416 22.1361 99.7194 22.5643 99.7194 23.0428C100.576 22.2368 101.281 22.0605 101.986 22.0353H102.213C102.767 22.0353 103.271 22.5139 103.271 23.1184C103.296 23.6725 102.792 24.1762 102.238 24.1762ZM111.179 28.7098C111.28 28.8861 111.356 29.0625 111.356 29.2639C111.356 29.8684 110.802 30.4225 110.197 30.4225C109.794 30.4225 109.441 30.1203 109.164 29.7677L106.495 26.6697V29.2388C106.495 29.8936 105.966 30.4225 105.336 30.4225C104.706 30.4225 104.177 29.8936 104.177 29.2388V19.7937C104.177 19.1388 104.681 18.6099 105.336 18.6099C105.991 18.6099 106.495 19.1388 106.495 19.7937V25.6874L109.164 22.7406C109.441 22.4383 109.769 22.1109 110.172 22.1109C110.751 22.1109 111.28 22.6398 111.28 23.2443C111.28 23.4206 111.23 23.6221 111.129 23.7732L109.013 26.0904L111.179 28.7098ZM115.713 24.2014C115.083 24.2014 114.051 24.5288 114.051 25.5111H117.401C117.375 24.5288 116.318 24.2014 115.713 24.2014ZM118.735 26.9971H114.051C114.051 28.3824 115.386 28.6091 115.965 28.6091C116.393 28.6091 116.998 28.5335 117.476 28.3068C117.627 28.2061 117.854 28.1305 118.081 28.1305C118.584 28.1305 119.012 28.5587 119.012 29.0876C119.012 29.4403 118.786 29.7425 118.509 29.9188C117.804 30.4477 116.872 30.5737 115.99 30.5737C113.648 30.5737 111.708 29.3143 111.708 26.3675C111.708 24.0503 112.892 22.0353 115.663 22.0353C117.904 22.0353 119.592 23.4962 119.642 26.0904C119.642 26.569 119.239 26.9971 118.735 26.9971ZM125.183 30.5485H124.554C122.791 30.5485 121.758 29.7677 121.758 27.0223V24.1762H121.153C120.599 24.1762 120.121 23.6725 120.121 23.1184C120.121 22.5139 120.624 22.0353 121.153 22.0353H121.758V19.8441C121.758 19.1892 122.262 18.6603 122.916 18.6603C123.546 18.6603 124.075 19.1892 124.075 19.8441V22.0353H125.032C125.586 22.0353 126.065 22.5139 126.065 23.1184C126.065 23.6725 125.561 24.1762 125.032 24.1762H124.075V26.569C124.075 28.1557 124.151 28.4832 124.856 28.4832H125.183C125.737 28.4832 126.216 28.9365 126.216 29.5158C126.216 30.0699 125.737 30.5485 125.183 30.5485ZM136.391 19.5166C136.694 19.693 136.971 20.1211 136.971 20.4989C136.971 21.1034 136.467 21.6072 135.888 21.6072C135.737 21.6072 135.611 21.5568 135.485 21.5316C134.805 21.0279 133.948 20.7004 133.042 20.7004C130.901 20.7004 129.44 22.4383 129.44 24.6044C129.44 26.7705 130.926 28.4832 133.042 28.4832C134.099 28.4832 135.056 28.055 135.762 27.3749C135.938 27.249 136.165 27.1734 136.391 27.1734C136.971 27.1734 137.424 27.6268 137.424 28.2061C137.424 28.5839 137.197 28.9113 136.92 29.0876C135.888 29.9692 134.502 30.5485 133.067 30.5485C129.792 30.5485 127.123 27.8535 127.123 24.5288C127.123 21.2042 129.792 18.5092 133.067 18.5092C134.276 18.484 135.459 18.8618 136.391 19.5166ZM142.26 28.4832C143.293 28.4832 144.174 27.5512 144.174 26.2919C144.174 25.0326 143.267 24.2014 142.26 24.2014C141.227 24.2014 140.421 25.0577 140.421 26.2919C140.421 27.5009 141.252 28.4832 142.26 28.4832ZM144.728 29.541L144.678 29.2639C144.225 30.1455 142.789 30.5485 141.882 30.5485C139.716 30.5485 138.104 28.5839 138.104 26.2415C138.104 23.9243 139.741 22.0101 142.008 22.0101C142.386 22.0101 143.696 22.1109 144.703 23.2947L144.753 23.0176C144.753 22.5139 145.131 22.1109 145.635 22.1109C146.139 22.1109 146.542 22.5391 146.542 23.0176V29.5158C146.542 30.0196 146.139 30.4225 145.635 30.4225C145.106 30.4477 144.728 30.0196 144.728 29.541ZM152.864 28.4832C153.896 28.4832 154.702 27.5009 154.702 26.2919C154.702 25.0326 153.871 24.2014 152.864 24.2014C151.831 24.2014 150.949 25.0326 150.949 26.2919C150.949 27.5512 151.831 28.4832 152.864 28.4832ZM150.949 29.8684V32.8153C150.949 33.4702 150.42 33.9991 149.791 33.9991C149.161 33.9991 148.632 33.4702 148.632 32.8153V23.0428C148.632 22.5391 149.035 22.1361 149.539 22.1361C150.043 22.1361 150.42 22.5642 150.42 23.1435C151.277 22.262 152.335 22.0353 153.141 22.0353C155.382 22.0353 157.045 23.9243 157.045 26.2667C157.045 28.5839 155.458 30.5737 153.267 30.5737C152.587 30.5485 151.579 30.347 150.949 29.8684Z" fill="#CFD8E1"/>
</svg>
