<svg width="120" height="120" viewBox="0 0 120 120" fill="none" xmlns="http://www.w3.org/2000/svg">
<g filter="url(#filter0_d_20_9856)">
<circle cx="60" cy="52" r="28" fill="white"/>
</g>
<path d="M57.4934 47.8685C57.7411 47.7034 58.047 47.5558 58.4 47.4416L58.4 50.1584C58.047 50.0442 57.7411 49.8966 57.4934 49.7315C56.9108 49.3431 56.8 48.9822 56.8 48.8C56.8 48.6178 56.9108 48.2569 57.4934 47.8685Z" fill="#0054F8"/>
<path d="M61.6 56.5584L61.6 53.8416C61.953 53.9558 62.259 54.1034 62.5066 54.2685C63.0892 54.6569 63.2 55.0178 63.2 55.2C63.2 55.3822 63.0892 55.7431 62.5066 56.1315C62.259 56.2966 61.953 56.4442 61.6 56.5584Z" fill="#0054F8"/>
<path fill-rule="evenodd" clip-rule="evenodd" d="M60 64.8C67.0693 64.8 72.8 59.0692 72.8 52C72.8 44.9308 67.0693 39.2 60 39.2C52.9308 39.2 47.2 44.9308 47.2 52C47.2 59.0692 52.9308 64.8 60 64.8ZM61.6 44C61.6 43.1163 60.8837 42.4 60 42.4C59.1164 42.4 58.4 43.1163 58.4 44V44.1472C57.4055 44.334 56.4856 44.6945 55.7184 45.206C54.5637 45.9758 53.6 47.2149 53.6 48.8C53.6 50.3851 54.5637 51.6242 55.7184 52.394C56.4856 52.9055 57.4055 53.266 58.4 53.4528L58.4 56.5588C57.7744 56.3557 57.3107 56.051 57.0507 55.7514C56.4716 55.084 55.461 55.0124 54.7936 55.5915C54.1262 56.1706 54.0546 57.1812 54.6337 57.8486C55.5337 58.8858 56.8953 59.5693 58.4 59.8522L58.4 60C58.4 60.8836 59.1163 61.6 60 61.6C60.8836 61.6 61.6 60.8837 61.6 60L61.6 59.8528C62.5946 59.666 63.5145 59.3055 64.2817 58.794C65.4364 58.0242 66.4 56.7851 66.4 55.2C66.4 53.6149 65.4363 52.3758 64.2817 51.606C63.5145 51.0945 62.5946 50.734 61.6 50.5472L61.6 47.4412C62.2256 47.6443 62.6894 47.949 62.9494 48.2486C63.5285 48.916 64.539 48.9876 65.2065 48.4085C65.8739 47.8294 65.9455 46.8188 65.3663 46.1514C64.4664 45.1142 63.1047 44.4306 61.6 44.1478V44Z" fill="#0054F8"/>
<defs>
<filter id="filter0_d_20_9856" x="0" y="0" width="120" height="120" filterUnits="userSpaceOnUse" color-interpolation-filters="sRGB">
<feFlood flood-opacity="0" result="BackgroundImageFix"/>
<feColorMatrix in="SourceAlpha" type="matrix" values="0 0 0 0 0 0 0 0 0 0 0 0 0 0 0 0 0 0 127 0" result="hardAlpha"/>
<feOffset dy="8"/>
<feGaussianBlur stdDeviation="16"/>
<feComposite in2="hardAlpha" operator="out"/>
<feColorMatrix type="matrix" values="0 0 0 0 0 0 0 0 0 0 0 0 0 0 0 0 0 0 0.05 0"/>
<feBlend mode="normal" in2="BackgroundImageFix" result="effect1_dropShadow_20_9856"/>
<feBlend mode="normal" in="SourceGraphic" in2="effect1_dropShadow_20_9856" result="shape"/>
</filter>
</defs>
</svg>
