<svg width="28" height="28" viewBox="0 0 28 28" fill="none" xmlns="http://www.w3.org/2000/svg">
<path d="M14 28C21.7322 28 28 21.7322 28 14C28 6.2678 21.7322 0 14 0C6.2678 0 0 6.2678 0 14C0 21.7322 6.2678 28 14 28Z" fill="#070A0E"/>
<path fill-rule="evenodd" clip-rule="evenodd" d="M8.08691 18.6943C7.66831 18.4381 7.41211 17.9831 7.41211 17.4931V14.7575C7.41211 14.4327 7.67671 14.1695 8.00151 14.1709C8.10511 14.1709 8.20731 14.1989 8.29691 14.2507L14.4695 17.8501C14.8307 18.0601 15.0533 18.4465 15.0533 18.8651V21.6987C15.0547 22.0879 14.7397 22.4043 14.3505 22.4043C14.2203 22.4043 14.0915 22.3679 13.9809 22.3007L8.08691 18.6943ZM17.287 13.5015C17.6482 13.7115 17.8694 14.0993 17.8708 14.5165V20.2677C17.8708 20.4371 17.7798 20.5939 17.6314 20.6765L16.2804 21.4367C16.2636 21.4465 16.2454 21.4535 16.2258 21.4591V18.2657C16.2258 17.8527 16.0088 17.4691 15.6532 17.2563L10.2324 14.0139V10.4089C10.2324 10.0841 10.497 9.82087 10.8218 9.82227C10.9254 9.82227 11.0276 9.85027 11.1172 9.90207L17.287 13.5015ZM19.9901 9.25399C20.3527 9.46399 20.5753 9.85179 20.5753 10.2704V18.6704C20.5739 18.8426 20.4787 19.0008 20.3275 19.0834L19.0465 19.775V13.9272C19.0465 13.5142 18.8295 13.132 18.4767 12.9192L12.9355 9.59559V6.17679C12.9355 6.07319 12.9635 5.97099 13.0139 5.88139C13.1777 5.60139 13.5375 5.50619 13.8175 5.66859L19.9901 9.25399Z" fill="#00D395"/>
</svg>
