<svg width="56" height="56" viewBox="0 0 56 56" fill="none" xmlns="http://www.w3.org/2000/svg">
<path opacity="0.2" d="M28 56C43.464 56 56 43.464 56 28C56 12.536 43.464 0 28 0C12.536 0 0 12.536 0 28C0 43.464 12.536 56 28 56Z" fill="#00CBA0"/>
<path fill-rule="evenodd" clip-rule="evenodd" d="M27.9871 55.9236C43.416 55.9236 55.9235 43.4161 55.9235 27.9873C55.9235 12.5584 43.416 0.0509033 27.9871 0.0509033C12.5583 0.0509033 0.0507812 12.5584 0.0507812 27.9873C0.0507812 43.4161 12.5583 55.9236 27.9871 55.9236Z" fill="#002352"/>
<path fill-rule="evenodd" clip-rule="evenodd" d="M16.623 22.7983H30.9922C30.9922 22.7983 35.9519 22.7523 32.5218 29.0978C32.5218 29.0978 30.0188 34.0639 23.8076 33.9719L27.1589 25.4938C27.2399 25.2884 27.2145 25.0566 27.0909 24.8733C26.9672 24.69 26.761 24.5782 26.5387 24.5741L22.1389 24.4996L16.5767 37.9264C16.5767 37.9264 18.4307 38.1103 19.4505 38.0183L18.8943 39.3978H21.5224C21.6701 39.3976 21.8023 39.3068 21.8543 39.1697L22.3243 37.9264L23.4368 37.8344L22.7879 39.3978H25.3465C25.5369 39.3977 25.7079 39.282 25.7776 39.1063L26.497 37.2826C26.497 37.2826 34.2841 35.9951 37.8069 29.7416C37.8069 29.7416 42.5348 22.4764 36.9726 19.9015C35.8885 19.4085 34.7293 19.0977 33.5425 18.9818L34.197 17.3945C34.2372 17.2969 34.2257 17.1858 34.1663 17.0983C34.107 17.0109 34.0076 16.9585 33.9013 16.9586H31.5021L30.7604 18.8899H29.7407L30.3164 17.3899C30.3539 17.292 30.3405 17.1821 30.2805 17.096C30.2205 17.0098 30.1216 16.9584 30.016 16.9586H27.6057L26.8641 18.8899H19.3745C18.9636 18.8886 18.5859 19.1135 18.3937 19.4738L16.623 22.7983Z" fill="white"/>
</svg>
