<svg width="56" height="56" viewBox="0 0 56 56" fill="none" xmlns="http://www.w3.org/2000/svg">
<path d="M55.8482 28.0005C55.8482 43.3831 43.3784 55.8531 27.996 55.8531C12.6135 55.8531 0.143555 43.3831 0.143555 28.0005C0.143555 12.6181 12.6135 0.148193 27.996 0.148193C43.3783 0.148193 55.8482 12.6181 55.8482 28.0005Z" fill="#EBF5FF"/>
<path d="M43.9551 21.9888C43.9223 21.441 43.7616 20.9085 43.4858 20.4341C43.2413 19.9452 42.8062 19.5639 42.2978 19.3683C41.7793 19.1099 41.2048 18.9839 40.6257 19.0016H18.9287L17.374 23.6608H37.0324L33.9279 33.1844H14.2744L12.7197 37.8436H34.5195C35.169 37.8248 35.8113 37.701 36.4213 37.4769C37.0324 37.1298 37.7315 36.7778 38.3231 36.2889C38.9006 35.8336 39.4224 35.3118 39.8777 34.7342C40.2541 34.1684 40.575 33.5675 40.836 32.94L43.7156 23.8857C43.9775 23.29 44.0607 22.6309 43.9551 21.9888Z" fill="#2573C2"/>
<path d="M25.1219 26.2616H13.5547L12 30.5687H23.6845L25.1219 26.2616Z" fill="#2573C2"/>
</svg>
