<svg width="56" height="56" viewBox="0 0 56 56" fill="none" xmlns="http://www.w3.org/2000/svg">
<path opacity="0.2" d="M28 56C43.464 56 56 43.464 56 28C56 12.536 43.464 0 28 0C12.536 0 0 12.536 0 28C0 43.464 12.536 56 28 56Z" fill="#00CBA0"/>
<path fill-rule="evenodd" clip-rule="evenodd" d="M27.9871 55.9238C43.416 55.9238 55.9235 43.4162 55.9235 27.9874C55.9235 12.5586 43.416 0.0510254 27.9871 0.0510254C12.5583 0.0510254 0.0507812 12.5586 0.0507812 27.9874C0.0507812 43.4162 12.5583 55.9238 27.9871 55.9238Z" fill="white"/>
<path fill-rule="evenodd" clip-rule="evenodd" d="M16.623 22.7984H30.9922C30.9922 22.7984 35.9519 22.7525 32.5218 29.098C32.5218 29.098 30.0188 34.064 23.8076 33.972L27.1589 25.4939C27.2399 25.2885 27.2145 25.0567 27.0909 24.8734C26.9672 24.6901 26.761 24.5784 26.5387 24.5743L22.1389 24.4998L16.5767 37.9265C16.5767 37.9265 18.4307 38.1104 19.4505 38.0184L18.8943 39.3979H21.5224C21.6701 39.3977 21.8023 39.3069 21.8543 39.1698L22.3243 37.9265L23.4368 37.8345L22.7879 39.3979H25.3465C25.5369 39.3978 25.7079 39.2822 25.7776 39.1064L26.497 37.2827C26.497 37.2827 34.2841 35.9952 37.8069 29.7417C37.8069 29.7417 42.5348 22.4766 36.9726 19.9016C35.8885 19.4086 34.7293 19.0978 33.5425 18.9819L34.197 17.3946C34.2372 17.297 34.2257 17.1859 34.1663 17.0985C34.107 17.011 34.0076 16.9586 33.9013 16.9587H31.5021L30.7604 18.89H29.7407L30.3164 17.3901C30.3539 17.2922 30.3405 17.1822 30.2805 17.0961C30.2205 17.0099 30.1216 16.9586 30.016 16.9587H27.6057L26.8641 18.89H19.3745C18.9636 18.8888 18.5859 19.1137 18.3937 19.474L16.623 22.7984Z" fill="#002352"/>
</svg>
