<svg width="56" height="56" viewBox="0 0 56 56" fill="none" xmlns="http://www.w3.org/2000/svg">
<path d="M55.16 34.7739C51.4202 49.774 36.2267 58.902 21.2249 55.1623C6.22998 51.4225 -2.89889 36.229 0.841733 21.2298C4.57973 6.2279 19.7724 -2.90185 34.7699 0.837896C49.7709 4.57765 58.8989 19.7729 55.1591 34.7739H55.16Z" fill="#FFF3E4"/>
<path fill-rule="evenodd" clip-rule="evenodd" d="M36.4328 24.747C36.8103 22.2195 34.8859 20.8608 32.2545 19.9544L33.1081 16.5306L31.0234 16.0112L30.1924 19.3448C29.6451 19.2083 29.0824 19.0795 28.5233 18.9518L29.3602 15.5963L27.2773 15.0769L26.4231 18.4995C25.9696 18.3962 25.5245 18.2941 25.0923 18.1867L25.0947 18.176L22.2205 17.4584L21.6661 19.6843C21.6661 19.6843 23.2124 20.0387 23.1798 20.0607C24.0239 20.2714 24.177 20.83 24.1509 21.2728L23.1786 25.1732C23.2368 25.1881 23.3122 25.2094 23.3953 25.2427L23.1756 25.1881L21.8122 30.652C21.7089 30.9085 21.4471 31.2931 20.8571 31.1471C20.8779 31.1774 19.3422 30.769 19.3422 30.769L18.3076 33.1552L21.0203 33.8313C21.3265 33.908 21.6291 33.987 21.9282 34.065L21.93 34.0655C22.1232 34.1159 22.315 34.1659 22.5055 34.2148L21.643 37.6783L23.7247 38.1977L24.5795 34.7715C25.1475 34.9259 25.6996 35.0683 26.2397 35.2025L25.3885 38.6126L27.4726 39.132L28.3351 35.6756C31.8889 36.3481 34.5618 36.0768 35.6855 32.8632C36.5919 30.2751 35.641 28.7822 33.7712 27.8082C35.1328 27.493 36.1586 26.5972 36.4322 24.747H36.4328ZM31.6705 31.4243C31.0788 33.7996 27.36 32.8168 25.66 32.3675L25.6599 32.3675C25.5077 32.3273 25.3717 32.2913 25.2556 32.2624L26.4 27.6746C26.542 27.71 26.7154 27.749 26.9119 27.7931C28.6707 28.1877 32.2749 28.9965 31.6711 31.4243H31.6705ZM27.2654 25.6641C28.6839 26.0425 31.7759 26.8674 32.3145 24.7096C32.8652 22.5021 29.8586 21.8368 28.3902 21.5118C28.2251 21.4753 28.0795 21.4431 27.9605 21.4134L26.9229 25.5745C27.0211 25.5989 27.1364 25.6297 27.2654 25.6641Z" fill="#F7931A"/>
</svg>
