<svg width="56" height="56" viewBox="0 0 56 56" fill="none" xmlns="http://www.w3.org/2000/svg">
<path d="M55.8482 28.0005C55.8482 43.3831 43.3784 55.8531 27.996 55.8531C12.6135 55.8531 0.143555 43.3831 0.143555 28.0005C0.143555 12.6181 12.6135 0.148193 27.996 0.148193C43.3783 0.148193 55.8482 12.6181 55.8482 28.0005Z" fill="#505050"/>
<g opacity="0.8">
<path d="M27.9069 15.0769L27.7349 15.6616V32.6292L27.9069 32.8009L35.7831 28.1454L27.9069 15.0769Z" fill="white"/>
<path d="M27.9069 15.0769L20.0308 28.1454L27.9069 32.801V24.5654V15.0769Z" fill="white"/>
<path d="M27.907 35.3634L27.8101 35.4816V41.5258L27.907 41.809L35.7879 30.7102L27.907 35.3634Z" fill="white"/>
<path d="M27.9069 41.809V35.3634L20.0308 30.7102L27.9069 41.809Z" fill="white"/>
<path d="M27.9067 32.8009L35.7828 28.1453L27.9067 24.5654V32.8009Z" fill="white"/>
<path d="M20.0308 28.1453L27.9068 32.8009V24.5654L20.0308 28.1453Z" fill="white"/>
</g>
</svg>
