<svg width="26" height="26" viewBox="0 0 26 26" fill="none" xmlns="http://www.w3.org/2000/svg">
<path d="M10.4934 8.86854C10.7411 8.70342 11.047 8.55584 11.4 8.44161L11.4 11.1584C11.047 11.0442 10.7411 10.8966 10.4934 10.7315C9.91084 10.3431 9.80001 9.98224 9.80001 9.8C9.80001 9.61776 9.91084 9.25692 10.4934 8.86854Z" fill="#0054F8"/>
<path d="M14.6 17.5584L14.6 14.8416C14.953 14.9558 15.259 15.1034 15.5066 15.2685C16.0892 15.6569 16.2 16.0178 16.2 16.2C16.2 16.3822 16.0892 16.7431 15.5066 17.1315C15.259 17.2966 14.953 17.4442 14.6 17.5584Z" fill="#0054F8"/>
<path fill-rule="evenodd" clip-rule="evenodd" d="M13 25.8C20.0693 25.8 25.8 20.0692 25.8 13C25.8 5.93076 20.0693 0.200001 13 0.200001C5.93077 0.200001 0.200012 5.93076 0.200012 13C0.200012 20.0692 5.93077 25.8 13 25.8ZM14.6 5C14.6 4.11634 13.8837 3.4 13 3.4C12.1164 3.4 11.4 4.11634 11.4 5V5.14719C10.4055 5.33396 9.48558 5.69451 8.71838 6.20598C7.5637 6.97577 6.60001 8.21493 6.60001 9.8C6.60001 11.3851 7.5637 12.6242 8.71838 13.394C9.48558 13.9055 10.4055 14.266 11.4 14.4528L11.4 17.5588C10.7744 17.3557 10.3107 17.051 10.0507 16.7514C9.47155 16.084 8.46102 16.0124 7.7936 16.5915C7.12617 17.1706 7.05459 18.1812 7.63372 18.8486C8.5337 19.8858 9.8953 20.5693 11.4 20.8522L11.4 21C11.4 21.8836 12.1163 22.6 13 22.6C13.8836 22.6 14.6 21.8837 14.6 21L14.6 20.8528C15.5946 20.666 16.5145 20.3055 17.2817 19.794C18.4364 19.0242 19.4 17.7851 19.4 16.2C19.4 14.6149 18.4363 13.3758 17.2817 12.606C16.5145 12.0945 15.5946 11.734 14.6 11.5472L14.6 8.4412C15.2256 8.64433 15.6894 8.94895 15.9494 9.2486C16.5285 9.91603 17.539 9.98761 18.2065 9.40848C18.8739 8.82936 18.9455 7.81882 18.3663 7.1514C17.4664 6.11419 16.1047 5.43064 14.6 5.14777V5Z" fill="#0054F8"/>
</svg>
