<svg width="32" height="32" viewBox="0 0 32 32" fill="none" xmlns="http://www.w3.org/2000/svg">
<circle cx="16" cy="15.9999" r="16" fill="#988430"/>
<circle cx="16.0002" cy="16.0001" r="15.4875" fill="#7A6A2A"/>
<circle cx="16" cy="15.9999" r="15.1612" fill="#BA9F33"/>
<path fill-rule="evenodd" clip-rule="evenodd" d="M6.99541 14.2911C6.90479 14.2083 6.80904 14.1254 6.72098 14.0426C6.63292 13.9598 6.54246 13.8769 6.45184 13.7941L6.18253 13.5381C6.13849 13.4941 6.0919 13.4553 6.04787 13.4111C6.00384 13.3724 5.95213 13.3283 5.90809 13.2894C5.55072 12.9503 5.19129 12.6112 4.83887 12.2719C5.20392 12.6059 5.5613 12.9375 5.92636 13.2765L6.05316 13.4034C6.09719 13.4473 6.14378 13.4862 6.18782 13.5302L6.45696 13.7787C6.54758 13.8615 6.63565 13.9444 6.72627 14.0347C6.81689 14.125 6.90496 14.2081 6.99558 14.2907L6.99541 14.2911ZM2.25195 14.2397C2.25195 14.2397 3.55158 14.3742 4.18595 14.4648C4.77355 14.5477 6.6118 14.8299 6.6118 14.8299L2.25195 14.2397ZM2.25212 14.2397C2.61718 14.2708 2.98224 14.3095 3.34729 14.3484C3.53366 14.3665 3.71235 14.3872 3.89104 14.4053L4.1653 14.4365C4.25592 14.4493 4.34399 14.4623 4.43461 14.4752L5.5221 14.6486L6.06567 14.7393C6.24436 14.7703 6.42305 14.8041 6.60941 14.8352C6.43073 14.8171 6.24436 14.7911 6.06567 14.7652L5.5221 14.6875L4.43461 14.5271C4.34399 14.5141 4.25592 14.4959 4.1653 14.4831L3.89086 14.4515C3.71218 14.4334 3.52581 14.4075 3.34712 14.3867C2.98207 14.3428 2.61701 14.296 2.25195 14.2392L2.25212 14.2397ZM6.48221 15.1689C6.48221 15.1689 5.09452 15.5211 4.62587 15.6558C4.16507 15.7826 2.76953 16.2072 2.76953 16.2072L6.48204 15.1691L6.48221 15.1689Z" fill="#CFB66C"/>
<path fill-rule="evenodd" clip-rule="evenodd" d="M6.48237 15.1689C6.17432 15.2595 5.86797 15.3476 5.55548 15.4305L4.62859 15.679C4.32054 15.7696 4.01419 15.8577 3.70699 15.9483L3.24619 16.0751C3.09345 16.1192 2.93814 16.1579 2.78027 16.2021C2.93285 16.1509 3.08833 16.0985 3.24107 16.0545L3.70187 15.907C4.00993 15.8111 4.31627 15.7205 4.62347 15.6247C4.93665 15.5471 5.24487 15.4641 5.55804 15.389C5.85569 15.314 6.16903 15.239 6.48237 15.1691V15.1689ZM2.96387 17.0614C3.11644 17.0044 4.87704 16.1839 5.28613 15.9922C5.49093 15.8963 6.08621 15.685 6.08621 15.685L2.96387 17.0614Z" fill="#CFB66C"/>
<path fill-rule="evenodd" clip-rule="evenodd" d="M2.96404 17.0614C3.09852 17.0102 3.2255 16.9476 3.35486 16.888L3.73801 16.7093L4.50704 16.3391C4.76304 16.2174 5.01187 16.0831 5.27589 15.9688C5.41054 15.912 5.5452 15.8654 5.67969 15.8213L5.88449 15.7566C5.95429 15.7386 6.01914 15.7177 6.08929 15.6996C5.83329 15.8213 5.5638 15.9249 5.30746 16.0439C5.05146 16.1709 4.78966 16.2745 4.52547 16.3883L3.74364 16.7325C3.48116 16.8388 3.22516 16.9527 2.96387 17.0614H2.96404ZM3.13467 17.7782C3.13467 17.7782 4.72938 16.8436 5.27824 16.5432C5.56564 16.3828 6.49509 15.9219 6.49509 15.9219L3.13467 17.7782Z" fill="#CFB66C"/>
<path fill-rule="evenodd" clip-rule="evenodd" d="M3.13574 17.7784C3.40488 17.6127 3.67932 17.4444 3.95375 17.2736L4.36335 17.0249C4.50312 16.9421 4.63778 16.8645 4.78029 16.7817C4.92006 16.6988 5.05472 16.616 5.19705 16.5383C5.26481 16.4965 5.33581 16.4601 5.40936 16.4296L5.62679 16.3209C5.9142 16.1811 6.2016 16.0386 6.50453 15.9169C6.2301 16.0905 5.94782 16.2381 5.6657 16.3907C5.52593 16.4684 5.38342 16.5383 5.24365 16.616C5.10387 16.6936 4.96921 16.7766 4.82671 16.8517C4.68693 16.9344 4.55228 17.0121 4.40994 17.0872L3.98788 17.3176L3.13608 17.7784H3.13574ZM6.4829 16.1264C6.4829 16.1264 5.49133 16.8876 5.1703 17.1309C4.84928 17.3743 3.9043 18.0578 3.9043 18.0578L6.4829 16.1264Z" fill="#CFB66C"/>
<path fill-rule="evenodd" clip-rule="evenodd" d="M12.1734 22.2655L11.666 21.305L11.9611 20.1036L14.0659 19.2907L13.1701 17.4527L13.6128 15.5963L14.444 13.934L17.0123 13.5302L18.8996 11.7309L22.9747 12.0389L23.7746 16.3962L22.2342 21.8823L21.3566 24.7226L17.7993 24.8572L16.1476 23.7129L14.2136 22.905L12.1734 22.2655Z" fill="#E2CC85"/>
<path fill-rule="evenodd" clip-rule="evenodd" d="M18.413 22.2341C18.413 22.2341 17.921 22.4594 17.0818 22.4075C16.839 22.0813 15.1381 21.9286 15.1381 21.9286C15.1381 21.9286 14.9258 21.8639 14.5503 22.0192C14.1725 22.1728 13.8151 22.1539 13.4811 22.2367C13.1471 22.3194 12.8155 21.8846 12.5595 21.7939C12.3035 21.6982 11.964 21.4678 11.964 21.4678L11.2472 21.3978L9.80783 20.7894L7.52106 18.5112L6.89967 19.484L6.70801 20.6879L7.39938 22.1145L9.26084 23.8102L12.8906 24.7318L15.042 24.0979L17.7372 22.9587L18.413 22.2339V22.2341Z" fill="#F1D789"/>
<path fill-rule="evenodd" clip-rule="evenodd" d="M5.51755 14.1823L5.97835 12.787L6.52738 11.8858L8.29549 11.7382L7.76472 13.2865L6.28657 15.917L6.90012 18.2652L5.8128 18.8088L5.47864 18.2963L5.2095 17.1209L5.19141 15.8004L5.51755 14.1823Z" fill="#F4ECB4"/>
<path fill-rule="evenodd" clip-rule="evenodd" d="M7.5005 22.1383L7.16138 21.6645C7.16138 21.6645 7.07076 21.4392 7.12264 21.2424C7.17384 21.0431 7.1665 21.0301 7.14073 20.955C7.11496 20.8799 6.89736 20.621 6.91033 20.3983C6.92313 20.173 6.89224 20.0979 7.05779 19.9194C7.23118 19.746 7.17947 19.4457 7.17947 19.4457L7.40475 19.5854L7.45595 19.5078C7.45595 19.5078 7.53872 19.5725 7.53872 19.6735C7.55682 19.5337 7.48172 18.8864 7.65256 18.7389C7.8234 18.5915 8.12633 19.4301 8.12633 19.4301L7.93996 18.2133L7.4609 16.9655L6.6091 15.8263L6.5579 14.5706V14.4619C6.5579 14.4619 6.16691 15.0626 6.05819 15.5371C5.98054 15.8632 6.16691 16.2593 6.12816 16.728C6.09693 17.1941 6.05819 17.1577 6.17203 17.3424C6.28586 17.527 6.56302 17.9068 6.45431 18.1812C6.35856 18.4169 6.03225 18.2512 6.03225 18.2512C6.03225 18.2512 5.96757 18.4427 5.8795 18.5126C5.84844 18.3988 5.81482 18.3263 5.7527 18.2566C5.74741 18.3007 5.73461 18.3602 5.73461 18.3602C5.73461 18.3602 5.6776 18.1815 5.6206 17.9563C5.54312 17.6561 5.46018 17.2599 5.38508 17.0476C5.35402 17.1693 5.27637 17.5395 5.27637 17.5395L5.3204 18.1092L5.53271 18.891L5.73751 19.403L5.93685 20.0295L6.11007 20.4504L6.24985 20.7714L6.37154 21.4938L6.95914 22.1151L7.27248 22.255L7.50015 22.1384L7.5005 22.1383Z" fill="#F3E19D"/>
<path fill-rule="evenodd" clip-rule="evenodd" d="M5.82534 13.0433C5.82534 13.0433 5.40328 13.7601 5.28177 14.4827C5.16026 15.2053 5.05137 15.9689 5.12817 16.9526C5.20582 17.9444 5.35345 18.5526 5.47258 18.9876C5.67738 19.7101 6.20781 20.7146 6.20781 20.7146L6.2259 20.6757C6.13674 20.5067 6.06558 20.3288 6.01359 20.1449C5.94362 19.8705 5.91767 19.5444 5.85299 19.3967C5.79599 19.2493 5.70024 19.1223 5.65365 18.941C5.60962 18.7676 5.60245 18.4932 5.46728 18.2888C5.41028 18.2058 5.34031 17.9884 5.31966 17.771C5.29372 17.4446 5.33263 17.0796 5.30157 16.7794C5.24456 16.2797 5.20582 15.9406 5.25754 15.6789C5.30925 15.4173 5.57873 14.6746 5.74445 14.0842C5.85316 13.7062 5.78831 13.3877 5.98765 13.0588C6.18699 12.7327 6.30884 12.4453 6.3527 12.246C6.4039 12.0647 5.82466 13.0433 5.82466 13.0433H5.82534Z" fill="#F2E8B0"/>
<path fill-rule="evenodd" clip-rule="evenodd" d="M7.82629 12.7558C7.82629 12.7558 7.60886 12.8207 7.50527 12.9345C7.40167 13.0432 7.35764 13.1338 7.21787 13.3176C7.07809 13.5014 7.07024 13.6516 6.95623 13.882C6.8424 14.1073 6.59118 14.4464 6.56012 14.5681C6.52906 14.6898 6.47734 15.2593 6.41266 15.5286C6.35566 15.7979 6.47734 16.1294 6.47734 16.1294L6.6248 16.0981C6.6248 16.0981 6.6248 16.2898 6.77243 16.4193C6.91988 16.5461 6.94582 15.9894 6.94582 15.9894L7.49725 14.128L8.32822 13.5636L8.41885 13.1079L7.82595 12.7558H7.82629Z" fill="#F5EEC0"/>
<path fill-rule="evenodd" clip-rule="evenodd" d="M8.23086 13.6C8.23086 13.6 7.83986 13.6257 7.64837 13.7657C7.57072 13.8225 7.53966 13.8691 7.45688 13.9391C7.30414 14.0659 7.14866 14.1824 7.07374 14.3487C6.99079 14.5142 6.90017 14.7654 6.83805 15.2392C6.8121 15.4385 6.8121 15.6224 6.79401 15.783C6.76807 16.0004 6.72933 16.1738 6.74998 16.295C6.77592 16.5434 7.03227 16.673 7.05718 16.9551L7.58796 16.6859L8.08767 14.7156L9.14921 14.05L8.54847 13.3769L8.23017 13.5988L8.23086 13.6Z" fill="#E6DB9D"/>
<path fill-rule="evenodd" clip-rule="evenodd" d="M5.42986 26.8676C5.43208 26.8482 5.4343 26.8287 5.43651 26.8087C5.514 26.1431 5.52714 25.6387 5.58397 25.3228C5.66674 24.8749 5.72375 24.7084 5.71078 24.5408C5.69268 24.2716 5.67203 24.0748 5.69798 23.8676C5.73672 23.5932 6.00603 23.2671 5.99835 23.0418C5.99306 22.8631 5.90243 22.7467 5.82478 22.638C5.74713 22.5293 5.685 22.4387 5.685 22.4387C5.685 22.4387 6.21578 22.0736 6.21066 20.603C6.2215 20.606 6.23193 20.6104 6.24172 20.6159L6.50318 21.3588L6.68187 21.5763L7.36795 22.8553L8.25081 23.7123L9.55555 24.5899L10.3737 25.4803L10.4565 27.8544L9.38728 29.2421L9.21217 29.5592C7.82102 28.8608 6.54533 27.953 5.42969 26.8675L5.42986 26.8676Z" fill="#E5CB7A"/>
<path fill-rule="evenodd" clip-rule="evenodd" d="M8.69629 29.1392C8.69629 29.1392 8.71438 28.8441 8.95775 28.6524C8.99666 28.7171 9.02243 28.7794 9.01475 28.8258C9.05879 28.7483 9.36684 28.2512 10.0633 28.1216C10.7598 27.9948 10.9281 27.4874 10.9281 27.4874L12.4062 26.1438L14.0969 24.5878L16.1525 23.8654L17.1132 23.6297C17.1132 23.6297 17.1313 23.6997 17.0951 23.855C17.2737 23.8422 17.6698 23.7516 18.0814 23.6065C18.2471 23.5418 18.4026 23.5159 18.4854 23.6014C18.6071 23.7152 18.6252 23.9845 18.6328 24.1449C18.8322 24.1009 19.0626 23.9094 19.2472 23.9275C19.5425 23.9586 19.804 24.3055 20.1043 24.3055C20.5004 24.3055 20.679 24.0622 20.9561 23.8705C21.1218 23.7567 21.3599 23.6145 21.4946 23.5184C21.8156 23.2827 25.2124 22.2446 25.2124 22.2446L26.4033 22.3222L26.595 23.6012L26.4926 26.9446C26.4799 26.9567 26.4673 26.9693 26.4545 26.9814L21.0396 29.8095L13.5337 30.9602C11.8523 30.6855 10.2298 30.1274 8.7352 29.3097L8.6968 29.139L8.69629 29.1392Z" fill="#D8C173"/>
<path fill-rule="evenodd" clip-rule="evenodd" d="M5.88574 27.2932C5.99241 27.0701 6.08832 26.8836 6.10522 26.8168C6.11853 26.9513 6.14294 27.2464 6.19209 27.5601C6.08889 27.4724 5.98678 27.3833 5.88574 27.293V27.2932Z" fill="#F1D789"/>
<path fill-rule="evenodd" clip-rule="evenodd" d="M11.3684 30.4397L12.3391 30.1697L12.4219 30.1956C12.4219 30.1956 12.4659 30.2215 12.4659 30.3094C12.5876 30.2396 12.6912 30.2524 12.7663 30.206C12.8051 30.2888 12.8438 30.5632 13.0148 30.5968C13.1933 30.6358 13.385 30.5192 13.5792 30.3717C13.7707 30.219 13.9888 30.0273 14.1538 29.9497C14.2144 30.061 14.268 30.176 14.3144 30.2939C14.5319 30.1205 14.9099 29.4163 15.4483 29.4291C15.604 29.0614 15.864 28.7472 16.1962 28.5256C16.6959 28.1865 17.0091 28.1606 17.4001 28.1916C17.5554 27.9899 17.7467 27.8187 17.9645 27.6868C18.0292 27.7127 18.2078 27.8215 18.4306 27.7179C18.6558 27.6144 18.9095 27.213 19.2435 27.1613C19.4234 27.1366 19.6064 27.175 19.7613 27.27C19.7613 27.27 20.7341 26.3042 21.4053 25.9832C21.3793 25.9056 21.3276 25.613 22.1146 24.9657C22.1586 25.0046 22.1276 25.1133 22.1586 25.1193C22.1714 25.1193 22.3634 25.0365 22.6064 24.85C22.9068 24.6249 23.2666 24.3892 23.484 24.3245C23.8936 24.2028 24.3281 24.4513 24.3281 24.4513C24.3651 24.4254 24.4063 24.4061 24.4498 24.3943C24.5532 24.3762 24.6283 24.3632 24.6853 24.3431C24.6802 24.4778 24.7553 24.7082 24.6853 24.9075C24.7664 24.9531 24.8522 24.9895 24.9413 25.0162C24.8975 25.112 24.8016 25.3553 24.6411 25.4719C24.7756 25.5366 24.7937 25.6117 24.9854 25.6767C24.9077 25.7854 24.7806 25.9719 24.7239 26.0863C24.6669 26.208 24.4623 26.7128 24.3716 26.9043C24.2759 27.096 24.1465 27.448 24.0842 27.5187C24.022 27.5894 23.7968 27.8889 23.6234 28.0363C23.777 27.9793 24.4054 27.7878 24.672 27.7153C24.5927 27.8317 24.1904 28.4285 23.8037 29.0025C20.0578 31.2476 15.5269 31.7722 11.3672 30.4422L11.3684 30.4397Z" fill="#E0CD81"/>
<path fill-rule="evenodd" clip-rule="evenodd" d="M8.29448 13.53C8.29448 13.53 8.06937 13.53 8.02534 13.5611C7.98131 13.5922 8.25062 13.657 8.33339 13.6881C8.41616 13.7191 8.59485 13.8615 8.64144 13.9755C8.68548 14.0842 10.2595 14.7184 10.2595 14.7184L11.3728 14.6614L11.7566 14.1311L11.0265 13.4916L11.5385 11.9823L10.8603 12.091L9.22922 13.0638L8.41104 13.3771L8.29448 13.53Z" fill="#DFC57C"/>
<path fill-rule="evenodd" clip-rule="evenodd" d="M10.7388 14.0298C10.7715 14.0829 10.8301 14.1144 10.8924 14.1126C11.1228 14.1126 11.3349 14.1696 11.423 14.286C11.5706 14.4726 11.9797 15.068 11.9797 15.068L12.9583 15.4201L13.0214 14.2678L11.9522 13.5248L10.7354 13.9727V14.0297H10.7381L10.7388 14.0298Z" fill="#E5CC7C"/>
<path fill-rule="evenodd" clip-rule="evenodd" d="M10.5471 14.4569C10.5471 14.4569 10.7257 14.4699 10.9509 14.387C11.1762 14.304 11.5464 14.1255 11.707 14.1955C11.9321 14.2912 11.8855 14.5916 12.1291 14.8611C12.2765 15.0268 12.5458 15.0217 12.6986 15.2004C12.8513 15.3791 13.3768 15.2961 13.3768 15.2961L13.5761 16.3713L12.7762 17.3967L12.5146 18.6704H11.4329L10.4447 18.2783L9.95801 17.1007L10.2014 15.9098L10.5471 14.4569Z" fill="#D2C281"/>
<path fill-rule="evenodd" clip-rule="evenodd" d="M12.6397 14.5086C12.6665 14.5169 12.6944 14.5213 12.7224 14.5216C12.6914 14.5475 12.6265 14.6044 12.6525 14.752C12.6784 14.8996 12.7612 15.086 12.6914 15.1998C12.7471 15.2608 12.7886 15.3333 12.8131 15.4121C12.8571 15.5391 12.8701 15.6555 13.1573 15.6738C13.1158 15.6993 13.0776 15.7297 13.0435 15.7644C13.0435 15.7644 13.2428 15.9378 13.3438 16.0982C13.4473 16.0938 13.7217 16.0085 13.7217 16.0085L13.7787 16.0474L13.9004 15.9962C13.9004 15.9962 13.7865 15.9521 13.8693 15.6751C13.947 15.4318 14.0169 15.4447 14.0229 15.4267C14.0289 15.4086 14.0799 15.1522 14.0799 15.0486C14.1187 14.9141 14.1497 14.5051 14.1497 14.5051L14.0669 13.6015L13.601 13.3193L13.2221 12.9535L12.8648 13.6266L12.6294 13.8613L12.6113 14.4438L12.6397 14.5086Z" fill="#E2C270"/>
<path fill-rule="evenodd" clip-rule="evenodd" d="M13.7607 13.7527C13.7607 13.7527 13.8435 13.9882 13.8747 14.1694C13.8858 14.1342 13.8918 14.0976 13.8928 14.0607C13.8928 14.0607 13.9575 14.4181 13.9703 14.5657C13.9963 14.5604 14.0215 14.5527 14.0273 14.5785C14.0331 14.6043 14.0922 14.8919 14.0785 15.0523C14.1863 14.8744 14.3355 14.7252 14.5134 14.6174C14.617 14.5526 14.7387 14.4828 14.8656 14.4775C15.065 14.4724 15.2099 14.6045 15.4481 14.6045C16.0228 14.6045 16.5433 14.1824 16.9264 14.053C17.2086 13.9571 17.4519 13.8873 17.6228 13.7318C17.7057 13.662 17.8533 13.5067 17.9878 13.2762C18.1665 12.969 18.3529 12.7015 18.5394 12.6679C18.455 12.6834 18.3691 12.6895 18.2834 12.686C18.2834 12.686 18.3404 12.629 18.437 12.5513C18.5336 12.4737 18.6493 12.3779 18.8149 12.3779C19.1101 12.3779 19.2576 12.4218 19.4233 12.4218C19.589 12.4167 19.6848 12.3779 19.6848 12.3779C19.6848 12.3779 19.8583 12.4996 20.2491 12.4996C20.6401 12.5047 20.9016 12.5384 21.1062 12.5566C21.3109 12.5749 21.9968 12.4996 22.1936 12.5054C22.3218 12.5104 22.4478 12.5412 22.5639 12.596L21.9295 10.7528L19.6508 8.76117L18.2942 9.72168L16.2072 11.8084L14.1879 12.5566L13.7659 13.0304V13.7527H13.7607Z" fill="#CCB360"/>
<path fill-rule="evenodd" clip-rule="evenodd" d="M18.2913 12.6965C18.2913 12.6965 18.3483 12.6397 18.4439 12.562C18.5395 12.4844 18.6564 12.3885 18.8219 12.3885C19.117 12.3885 19.2647 12.4325 19.4304 12.4325C19.5961 12.4274 19.6918 12.3885 19.6918 12.3885C19.6918 12.3885 19.8656 12.51 20.2562 12.51C20.6472 12.5151 20.9087 12.5487 21.1133 12.5668C21.3179 12.5849 22.0039 12.51 22.2006 12.5156C22.3289 12.5204 22.4548 12.5513 22.5708 12.6062L22.2834 11.7751L21.9496 11.1409L20.9968 10.0974C20.9968 10.0974 19.8533 9.42432 19.8446 9.4192C19.8395 9.41408 19.4485 9.31049 19.4485 9.31049L18.4129 9.937L17.4732 12.3681L17.4551 12.8802L18.0633 13.1676C18.2161 12.9116 18.3845 12.7068 18.5424 12.6808C18.3999 12.6963 18.2912 12.6963 18.2912 12.6963L18.2913 12.6965Z" fill="#D5B457"/>
<path fill-rule="evenodd" clip-rule="evenodd" d="M18.2786 12.8701C18.188 12.8752 18.1131 12.8572 18.0922 12.7925C18.0146 12.575 17.9525 12.544 17.8874 12.544C17.8224 12.544 17.7347 12.6838 17.6826 12.6966C17.6306 12.7094 17.5688 12.5361 17.5688 12.5361L17.5118 12.5102C17.5118 12.5102 17.1778 12.7276 16.9423 12.984C16.7068 13.2403 16.3209 13.6753 16.1475 13.7528C15.9741 13.8303 15.3785 13.8564 15.1747 13.9004C14.9709 13.9445 14.745 14.0921 14.7139 14.1257C14.6828 14.1593 14.8047 14.1955 14.8228 14.2291C14.8409 14.2602 14.6233 14.2472 14.6052 14.2803C14.5924 14.3063 14.6564 14.4537 14.6881 14.5288C14.7437 14.5012 14.8046 14.4862 14.8666 14.4848C15.066 14.4797 15.2111 14.6118 15.4491 14.6118C16.0239 14.6118 16.5443 14.1897 16.9274 14.0602C17.2097 13.9644 17.4531 13.8945 17.6239 13.7392C17.7067 13.6694 17.8543 13.5139 17.989 13.2835C18.0873 13.1256 18.1832 12.978 18.2791 12.8693L18.2786 12.8701Z" fill="#D2B257"/>
<path fill-rule="evenodd" clip-rule="evenodd" d="M10.0347 25.6831C10.0347 25.6831 9.98352 25.4914 9.50906 24.997C9.37441 24.8572 9.29163 24.741 9.20101 24.6579C8.97573 24.4454 8.84363 24.3886 8.68321 24.2669C8.33112 24.0054 7.94797 24.0054 7.65289 23.6844C7.35781 23.3634 7.01392 22.75 6.77498 22.1232C6.53946 21.4966 6.47461 21.2973 6.47461 21.2792C6.47461 21.2611 6.53946 21.1394 6.62224 21.1575C6.70501 21.1756 6.70501 21.336 6.72583 21.375C6.76707 21.4385 6.81384 21.4982 6.86561 21.5535C6.98729 21.6934 7.16069 21.8607 7.24875 22.1102C7.23066 21.8979 7.15813 21.6624 7.15813 21.6624C7.15813 21.6624 7.61381 21.9498 8.00208 22.25C8.39307 22.5503 8.5535 22.6539 8.66768 22.8454C8.78185 23.0369 9.05082 23.5419 9.17968 23.6895C9.30853 23.8372 11.0741 24.3937 11.0741 24.3937L11.9139 25.0199L12.3309 25.9338L12.0046 26.4458L11.378 26.5805L10.3605 26.1248L10.0347 25.6829V25.6831Z" fill="#D2B159"/>
<path fill-rule="evenodd" clip-rule="evenodd" d="M7.77441 22.5346C7.77441 22.5346 7.98672 22.8738 8.50453 23.1948C8.97062 23.4771 9.70841 23.7334 10.3662 23.8861C10.744 23.9768 11.122 24.0466 11.4612 24.0519C12.3751 24.0647 13.0042 23.8034 13.7836 23.7179C14.2056 23.6738 14.7234 23.6402 15.2619 23.5131C15.9531 23.3474 16.3622 23.1608 16.9189 22.8987C17.3227 22.7123 17.693 22.5725 17.9933 22.3938C18.4153 22.1453 18.7234 21.8684 19.0807 21.7856C19.0367 21.9073 18.9901 22.1247 18.638 22.35C18.8244 22.3447 19.0807 22.3319 19.0807 22.3319C19.0807 22.3319 18.8322 22.4793 18.3947 22.8108C18.1253 23.0156 17.7681 23.3622 17.4031 23.5926C17.1674 23.7402 16.9111 23.8486 16.7428 23.937C16.3332 24.1623 16.168 24.2761 15.8988 24.5514C15.9946 24.5463 16.0024 24.5514 16.0024 24.5514C16.0024 24.5514 15.6631 24.5954 15.4199 24.7248C15.3687 24.7248 15.28 24.7067 15.1247 24.7507C15.003 24.7895 14.8424 24.8777 14.6769 24.9241C14.4412 24.9941 14.3637 24.9631 14.3637 24.9631L14.4024 25.0407C14.4024 25.0407 14.0952 25.0354 13.9928 25.0458C14.0109 25.0509 14.0058 25.0588 14.0058 25.0588C13.9878 25.0618 13.9705 25.0679 13.9546 25.0769C13.9053 25.1088 13.8511 25.1324 13.7942 25.1467C13.7631 25.1518 13.7372 25.1518 13.6983 25.1597C13.7112 25.1907 13.8123 25.3645 13.8589 25.4669C13.8201 25.4928 13.2375 25.933 13.2375 25.933C13.2555 25.9614 13.2703 25.9918 13.2815 26.0236C13.2996 26.0804 13.3074 26.1634 13.3255 26.2021C13.3694 26.2797 13.3953 26.2927 13.3953 26.2927C13.3953 26.2927 13.3255 26.3057 13.2037 26.3368C13.1002 26.3627 12.9733 26.4066 12.7941 26.4325C12.7391 26.4396 12.6838 26.444 12.6283 26.4455C12.6543 26.5025 12.7681 26.7199 12.5584 26.9709C12.3486 27.222 12.2839 27.2585 12.2193 27.4189C12.1867 27.3943 12.152 27.3726 12.1157 27.3541C12.0459 27.323 11.9499 27.2766 11.9163 27.2143C11.8967 27.2973 11.8708 27.3787 11.8387 27.4577C11.774 27.6311 11.6782 27.8021 11.6602 27.9315C11.5902 27.8538 11.4608 27.7011 11.2821 27.7321C11.1034 27.7632 10.9611 28.0066 10.93 28.0765C10.93 28.0325 10.899 27.9989 10.8913 28.0506C10.886 28.1076 10.7877 28.7029 10.2388 29.1845C10.2337 29.0628 10.2337 28.7935 10.2208 28.7056C10.1695 28.7568 10.1069 28.8324 9.73401 28.993C9.36895 29.1534 9.42681 29.314 9.42681 29.314C9.42681 29.314 9.39575 29.058 9.59253 28.7884C9.79186 28.5192 9.91355 28.3923 9.91355 28.3716C9.91033 28.3506 9.90135 28.3308 9.88761 28.3146C9.86167 28.2887 9.80996 28.2576 9.80996 28.237C9.84102 28.2242 10.1491 28.0765 10.131 27.7709C10.1129 27.4966 9.99649 27.3541 9.91355 27.2532C9.90075 27.2403 10.0354 27.1445 10.0171 27.1135C10.0042 27.0954 9.83863 26.9735 9.81781 26.9087C9.8227 26.87 9.83139 26.8318 9.84375 26.7948C9.86184 26.7378 9.87481 26.6989 9.86969 26.6602C9.85672 26.5955 9.78674 26.4168 9.76609 26.3987C9.78418 26.4038 9.91355 26.3987 9.91355 26.3987C9.91355 26.3987 9.81013 26.233 9.79186 26.1553C9.7736 26.0777 9.73486 25.8731 9.71421 25.8343C9.75824 25.8394 9.86696 25.8471 9.86696 25.8343C9.87225 25.7954 9.77121 25.7307 9.81576 25.6807C9.84682 25.6858 9.90638 25.7118 9.96321 25.7843C9.93215 25.7014 9.88044 25.5409 9.77156 25.4763C9.82276 25.4582 9.99684 25.4114 10.1496 25.502C10.3023 25.5926 10.3544 25.7195 10.3544 25.7195C10.3544 25.7195 10.445 25.7894 10.585 25.893C10.7454 26.0198 10.9498 26.2002 11.2762 26.3279C11.3461 26.3668 11.5246 26.3668 11.6542 26.3408C11.7106 26.3274 11.7647 26.3056 11.8146 26.2762C11.8326 26.2655 11.8517 26.2568 11.8716 26.2502C11.8438 26.1944 11.8118 26.1407 11.7759 26.0896C11.8199 26.0896 11.8716 26.0949 11.8716 26.0949C11.8716 26.0949 11.9027 26.0249 11.7629 25.8901C11.794 25.8591 11.8329 25.8389 11.8329 25.7865C11.7888 25.7814 11.7112 25.7167 11.6931 25.6908C11.7189 25.6727 11.7578 25.6131 11.8018 25.595C11.7629 25.564 11.6671 25.4344 11.6231 25.4216C11.6652 25.406 11.7059 25.387 11.7448 25.3646C11.7448 25.3646 11.5274 25.3076 11.4574 25.261C11.3874 25.2098 11.284 25.1213 11.2219 25.0953C11.157 25.0694 11.0432 25.0566 10.9966 25.0047C11.0405 25.0177 11.1104 25.0047 11.1623 25.0047C11.2011 25.0047 11.2193 25.0098 11.2321 25.0098C11.227 24.9917 11.227 24.9528 11.328 24.94C11.3766 24.9327 11.4238 24.9178 11.4678 24.896C11.4678 24.896 11.3719 24.8909 11.263 24.7873C11.1541 24.6837 11.0637 24.6009 11.0015 24.5879C10.9369 24.575 10.8152 24.632 10.7401 24.6267C10.6365 24.6139 10.5925 24.562 10.5925 24.562C10.5925 24.562 10.2482 24.5931 9.48449 24.1271C8.82418 23.7232 8.53678 23.366 8.53678 23.366C8.47499 23.3435 8.41526 23.3158 8.35826 23.283C8.10977 23.1536 7.76537 22.8843 7.77578 22.5321L7.77441 22.5346Z" fill="#C2A44D"/>
<path fill-rule="evenodd" clip-rule="evenodd" d="M17.3 6.99524C17.3599 7.01469 17.4131 7.05059 17.4536 7.09883C17.5753 7.23861 17.6529 7.50263 17.3759 7.78491C17.4846 7.82365 17.5295 7.83611 17.6244 7.82365C17.5287 7.93766 17.3112 8.18103 17.2983 8.39334C17.2853 8.56674 17.394 8.61862 17.394 8.61862C17.394 8.61862 17.2283 8.81011 17.2206 9.13062C17.2989 9.04237 17.3845 8.96095 17.4766 8.88725C17.6683 8.7345 17.9323 8.5611 18.111 8.45239C18.1086 8.49795 18.1147 8.54357 18.1291 8.58687C18.1291 8.58687 18.4629 8.31244 18.7435 8.4343C18.8703 8.4913 18.8133 8.66982 18.8133 8.66982C18.8133 8.66982 18.9868 8.60514 19.1085 8.72682C19.2302 8.84851 19.4022 9.16236 19.4905 9.28405C19.5292 9.34105 19.6303 9.44977 19.7337 9.61804C19.875 9.85364 19.993 10.1025 20.0859 10.361C20.0911 10.2263 20.1247 10.0167 20.508 10.1486C20.8911 10.2833 21.326 10.5656 21.6911 11.1214C22.0561 11.6773 22.1466 12.3048 22.3304 12.5438C22.5167 12.7742 22.7084 13.1573 22.7214 13.3179C22.7343 13.4785 22.6644 13.9962 23.0475 15.3968C23.1562 14.962 23.322 13.9962 23.322 13.9962L23.4126 13.1444L23.5162 10.5088L20.764 8.22233L18.6126 6.66107L17.2119 6.79573L17.2998 6.99507L17.3 6.99524Z" fill="#CAA13E"/>
<path fill-rule="evenodd" clip-rule="evenodd" d="M22.4127 10.9178C22.4127 10.9178 22.3738 10.6618 21.7267 10.2266C21.0793 9.79689 20.5745 9.79689 20.1086 9.43183C19.7512 9.14443 19.3784 8.48412 19.1358 8.26669C18.9001 8.05182 18.8613 7.43043 18.8613 7.43043L19.6561 6.76483L20.8382 5.05628L21.8374 3.95599L22.3163 4.62159L22.9819 5.40342L23.3521 6.97236L23.4867 9.26885L22.4115 10.918L22.4127 10.9178Z" fill="#B59544"/>
<path fill-rule="evenodd" clip-rule="evenodd" d="M23.2127 13.6705C23.2323 13.3223 23.1893 12.9733 23.0857 12.6402C22.9151 12.1095 22.5422 11.167 22.3689 10.8141C22.299 10.4231 22.3509 10.392 22.4259 10.348C22.501 10.304 22.7833 10.1432 22.9379 9.57915C23.0926 9.0151 23.5723 8.99667 23.5723 8.99667L23.8674 8.77924L24.3154 9.90017L24.7062 10.9126L24.8279 11.6867L24.9185 12.3469L24.7062 13.7424L23.6578 14.6899L23.2126 13.6705H23.2127Z" fill="#C89D3A"/>
<path fill-rule="evenodd" clip-rule="evenodd" d="M8.58301 29.2249V29.1963C8.60479 29.1827 8.62403 29.1653 8.63984 29.1451C8.65793 29.1191 8.67107 29.0881 8.68387 29.0804C8.70981 29.0674 8.8315 29.0292 8.89618 29.0415C8.96086 29.0538 9.13187 29.1242 9.2225 29.1191C9.40886 29.114 9.62629 28.9715 9.9707 29.0364C10.4885 29.1321 10.6102 29.4842 10.9106 29.6835C11.1154 29.8235 11.3273 29.7612 11.3584 29.7612H11.4282C11.4412 29.7612 11.5369 29.6525 11.5888 29.6578C11.6924 29.6629 11.7026 29.7484 11.7673 29.7535C11.9201 29.7716 12.2153 29.6758 12.3629 29.7148C12.4518 29.7426 12.5214 29.8121 12.5493 29.901C12.5804 29.9967 12.5544 30.1184 12.4793 30.1884C12.3189 30.3358 12.1662 30.4758 12.1351 30.598C12.1746 30.6281 12.2125 30.6602 12.2488 30.6942C10.9678 30.3678 9.73527 29.8744 8.58301 29.2265V29.2249Z" fill="#CEB052"/>
<path fill-rule="evenodd" clip-rule="evenodd" d="M22.3691 24.0519C22.3691 24.0519 22.7729 23.5135 22.9129 23.2467C23.0527 22.9718 22.4702 19.4902 22.4702 19.4902L23.6404 15.656L23.6092 14.4081C23.6092 14.4081 23.6662 13.2559 23.8009 12.7562C23.9615 13.0436 24.4612 13.3905 24.5699 13.5744C24.6211 13.2221 24.795 12.4792 24.7692 11.687C24.865 11.8344 25.0954 13.318 25.0954 13.318L25.3258 14.3173L25.6261 15.3788L25.9601 16.4999L26.1595 17.2741L26.2733 17.4604L26.3692 17.7866L26.4598 18.1388L26.7213 18.9647L26.8749 19.6429L26.9966 20.8727C27.0231 20.9669 27.0421 21.063 27.0536 21.1601C27.0587 21.2948 27.0355 21.3725 27.0355 21.3958C27.0355 21.4192 27.0795 21.6909 27.0615 21.8955C27.0355 22.1003 27.0355 22.2606 26.8749 22.4075C26.7143 22.5545 26.6134 23.4327 26.6134 23.4327L26.326 23.2413C26.326 23.2413 26.383 22.9796 26.2484 22.7415C26.1137 22.5035 25.8523 22.4541 25.7046 22.4931C25.5572 22.5241 25.2621 22.5705 25.1662 22.6535C25.0756 22.7363 24.853 22.9926 24.6484 23.1092C24.3924 23.2628 23.9753 23.2749 23.7527 23.3266C23.5275 23.3778 23.279 23.5314 23.0173 23.7097C22.8122 23.8425 22.5956 23.9568 22.3702 24.0511L22.3691 24.0519Z" fill="#CCA847"/>
<path fill-rule="evenodd" clip-rule="evenodd" d="M22.3691 29.7085C22.3691 29.7085 22.3862 29.7196 22.4191 29.7377C24.2585 28.8759 25.9066 27.6544 27.2661 26.1452C27.2512 25.6212 27.2319 25.0842 27.2108 24.8852C27.1669 24.4631 27.198 24.0334 27.185 23.7849C27.172 23.5364 27.0323 22.524 26.9676 22.2625C26.8976 22.0011 26.7628 21.8715 26.7423 21.8715C26.7242 21.8768 26.6153 22.3636 26.6153 22.4859C26.6153 22.6083 26.5894 22.9029 26.5894 22.978C26.5713 22.9727 26.5636 22.9268 26.5636 22.908C26.5377 22.9727 26.5066 23.0867 26.4936 23.0996C26.4807 23.1126 26.5117 22.9909 26.4936 22.965C26.4756 22.939 26.4424 22.952 26.4496 22.8873C26.4527 22.849 26.4587 22.8109 26.4677 22.7735C26.4677 22.7735 26.39 22.8873 26.3332 23.1773C26.2762 23.4647 26.2762 23.4725 26.2556 23.4983C26.2375 23.5295 26.1339 23.633 26.1286 23.6719C26.1235 23.7417 26.2245 23.8117 26.2322 23.8504C26.2373 23.9153 26.1416 24.2155 26.1105 24.3624C26.0794 24.5093 26.0924 24.7973 26.0593 24.9449C26.0334 25.0795 26.0081 25.1572 25.9195 25.214C25.9842 25.227 26.0463 25.2451 26.0463 25.2451C26.0463 25.2451 26.1369 25.6282 25.9065 25.9546C25.8238 26.0684 25.8031 26.1203 25.7151 26.2239C25.5415 26.4153 25.4068 26.6335 25.3939 26.7753C25.3849 26.7334 25.3789 26.691 25.3758 26.6483C25.3758 26.6483 25.1066 26.9617 24.9926 27.1403C24.8452 27.3707 24.6405 27.3578 24.583 27.4148C24.5255 27.4718 24.5131 27.5752 24.5318 27.6581C24.4806 27.6709 24.3844 27.6892 24.3195 27.8885C24.2885 27.992 24.2108 28.0933 24.0891 28.163C23.9674 28.2326 23.8198 28.2536 23.7447 28.2717C23.8094 28.2898 23.8353 28.2898 23.8664 28.3104C23.8277 28.3751 23.649 28.4762 23.4496 28.6057C23.2503 28.7274 23.1544 28.9059 23.1052 29.0225C23.054 29.1312 22.9784 29.2011 22.8567 29.2141C22.9079 29.2452 22.9837 29.3175 23.0225 29.3409C22.9654 29.3539 22.8689 29.3539 22.6963 29.5015C22.5151 29.6517 22.4529 29.6957 22.37 29.7087L22.3691 29.7085Z" fill="#C39D3C"/>
<path fill-rule="evenodd" clip-rule="evenodd" d="M18.7665 30.9087C18.8656 30.8392 18.973 30.7822 19.0861 30.7392C19.4899 30.5788 19.9171 30.5477 20.0854 30.496C20.246 30.4448 20.3728 30.3741 20.5721 30.3354C20.5668 30.3808 20.5624 30.4235 20.5576 30.4637C19.9699 30.6485 19.3715 30.7971 18.7656 30.9087H18.7665Z" fill="#D2BA6B"/>
<path fill-rule="evenodd" clip-rule="evenodd" d="M26.2145 20.2875C26.2145 20.2875 26.1318 20.7353 25.9841 21.0176C25.8365 21.2999 25.6769 21.6907 25.6769 21.6907C25.6779 21.6027 25.6883 21.515 25.708 21.4291C25.5216 21.5378 25.0685 21.7994 24.94 21.9158C24.8183 22.0246 24.6137 22.2162 24.562 22.3068C24.6837 21.9496 24.8105 21.6286 24.8313 21.481C24.6449 21.6156 23.7749 22.3328 23.3219 22.8066L21.9108 23.9483C21.748 24.0362 21.5803 24.1147 21.4086 24.1835C21.1654 24.2869 20.878 24.375 20.6657 24.4579C20.7227 24.3052 20.8131 24.1704 20.9401 24.041C21.0747 23.9142 21.4785 23.4766 21.5407 23.273C21.5977 23.0607 21.6106 22.9339 21.5355 22.7552C21.4656 22.7733 21.3051 22.7811 21.1964 22.8122C21.0877 22.8432 20.9712 22.9596 20.9712 22.9596C20.9712 22.9596 21.0539 22.4859 21.2326 22.038C21.098 22.0432 20.8676 22.0819 20.8676 22.0819C20.8676 22.0819 21.1886 21.5434 21.738 21.1682C21.5697 21.204 21.4051 21.255 21.2461 21.3207C20.9251 21.4554 20.573 21.6547 20.3115 21.7634C20.459 21.5586 21.4946 20.0807 22.1109 18.7032C22.7253 17.3285 22.9548 16.9764 23.0895 16.2386C23.1593 15.8736 23.1407 15.3341 23.1593 14.8509C23.1774 14.3719 23.2369 13.9421 23.1982 13.6547C23.3586 13.8541 23.9594 14.4159 23.98 15.6717C23.9981 16.9273 23.4054 18.6232 22.7761 19.5369C22.9297 19.581 23.3277 19.6328 23.7366 18.9225C24.1456 18.2122 24.1406 18.0139 24.2882 17.7186C24.3063 17.8663 24.301 17.918 24.301 17.918C24.301 17.918 24.8967 17.1957 25.1788 16.2869C25.2358 16.6779 25.404 17.0223 25.1399 17.7395C24.9043 18.3866 24.5963 18.5447 24.5963 18.5447C24.5963 18.5447 24.749 18.5187 24.9741 18.3841C25.013 18.4798 25.0054 18.5889 25.0701 18.6274C25.1347 18.666 25.2228 18.731 25.2358 18.7932C25.3056 18.6896 25.4143 18.5575 25.4481 18.4592C25.4221 18.664 25.404 19.5595 25.4993 20.0151C25.6988 19.997 25.9032 19.9841 26.043 19.6241C25.9473 19.9764 25.9473 20.1885 26.012 20.4889C26.1181 20.4165 26.2139 20.287 26.2139 20.287L26.2145 20.2875Z" fill="#C0993A"/>
<path fill-rule="evenodd" clip-rule="evenodd" d="M19.4879 6.01684C19.4879 6.01684 19.2885 6.09961 18.9494 6.09961C18.6543 6.09961 18.7371 5.98578 18.2763 5.98578C17.567 5.98578 15.0893 6.39538 14.6542 6.38958C14.372 6.38446 15.6069 6.51126 15.6069 6.51126L18.763 6.55529L19.3972 6.50409L19.6329 6.02452L19.4879 6.01684Z" fill="#A88F33"/>
<path fill-rule="evenodd" clip-rule="evenodd" d="M11.3039 12.1862C11.3039 12.1862 10.9 12.4942 10.7291 12.7299C10.5583 12.9656 10.4677 13.1207 10.2734 13.3124C10.319 13.3141 10.3646 13.308 10.4081 13.2943C10.4081 13.2943 10.4081 13.3455 10.377 13.359C10.4314 13.3529 10.4856 13.3717 10.5245 13.4102C10.4675 13.4413 10.3122 13.5967 10.4339 13.7805C10.5245 13.9203 10.7161 13.9331 10.7161 13.9331C10.7161 13.9331 10.6721 14.0601 10.8559 14.0471C11.252 14.029 11.6947 13.8555 11.8992 13.8995C12.104 13.9507 12.2204 13.9695 12.3653 14.2207C12.5189 14.4692 12.6527 14.5081 12.6527 14.5081C12.6527 14.5081 12.7433 14.2775 12.7227 13.9333C12.797 13.7477 12.8382 13.5506 12.8444 13.3508L12.7097 12.3592L12.1221 11.6161L11.3609 12.0382L11.3039 12.1857V12.1862Z" fill="#E3C571"/>
<path fill-rule="evenodd" clip-rule="evenodd" d="M12.0254 12.039C12.0254 12.039 12.0824 12.1736 12.3206 12.1864C12.2947 12.2434 12.2947 12.2513 12.3026 12.2952C12.3077 12.3392 12.3154 12.4039 12.3154 12.4039C12.3416 12.3912 12.3653 12.3738 12.3853 12.3527C12.3983 12.4097 12.3724 12.5001 12.3853 12.565C12.3933 12.6044 12.4063 12.6427 12.4241 12.6788C12.4278 12.67 12.4322 12.6614 12.437 12.653C12.4422 12.6401 12.4882 12.7928 12.6157 12.909C12.6156 12.8912 12.62 12.8736 12.6285 12.8578C12.6305 12.8903 12.6412 12.9216 12.6596 12.9485C12.65 12.9439 12.6413 12.9378 12.6338 12.9304C12.6338 12.9304 12.6466 13.34 12.7166 13.5518C12.7283 13.5381 12.7387 13.5234 12.7477 13.5077C12.7477 13.4949 12.7425 13.6218 12.7296 13.7125C12.7115 13.8032 12.7244 13.93 12.7244 13.93C12.7711 13.8932 12.8224 13.8628 12.877 13.8394C12.9547 13.8081 13.0818 13.7124 13.1593 13.5001C13.2042 13.3798 13.2389 13.256 13.2629 13.1299C13.2879 13.1781 13.3052 13.2299 13.3141 13.2835C13.3194 13.3482 13.4411 13.3146 13.4411 13.3146L13.467 13.0323L13.6206 12.3928L13.7604 11.9967L14.4335 10.9483L15.6497 10.0116L16.7112 10.255L17.6069 9.03816L16.0639 8.11127L14.6037 8.26401L13.2784 10.0995L12.217 11.7644L12.0254 12.0388L12.0254 12.039Z" fill="#D8B65B"/>
<path fill-rule="evenodd" clip-rule="evenodd" d="M19.6734 9.38229C19.6734 9.38229 19.5828 9.40038 19.3213 9.53589C19.0599 9.6714 18.8786 9.71441 18.7776 9.91375C18.6766 10.1131 18.6689 10.2711 18.6689 10.2711C18.6689 10.2711 18.8476 10.1935 18.9512 10.1675C19.0599 10.1418 19.1816 10.1494 19.1686 10.1935C19.1561 10.2237 19.1388 10.2516 19.1174 10.2762C19.1174 10.2762 19.3222 10.2711 19.3167 10.3722C19.3113 10.4732 19.278 10.5845 19.2392 10.6336C19.2003 10.6848 19.0399 10.7606 19.0218 10.8202C18.9778 10.9418 19.0399 10.947 19.0165 11.0453C18.9984 11.1412 18.9131 11.3276 18.6334 11.6537C18.346 11.98 18.2238 12.2104 18.2238 12.2104C18.2238 12.2104 18.084 11.9489 18.0115 11.7237C17.9603 11.7494 17.6853 11.9022 17.6853 11.9022L17.0484 9.68352L17.0612 9.53589C17.0612 9.53589 17.1182 9.46609 17.1312 9.33655C17.0354 9.30549 17.0225 9.27955 16.8955 9.15804C16.7685 9.03652 16.6651 8.88873 16.4529 8.78769C16.4219 8.73069 16.383 8.65321 16.2277 8.62197C16.0724 8.59074 15.9792 8.56514 15.9792 8.56514C15.9792 8.56514 16.0619 8.53391 16.1009 8.46923C16.0049 8.4822 15.9275 8.51326 15.7177 8.50814C15.5054 8.50285 15.482 8.49517 15.3656 8.51326C15.2492 8.53135 15.1096 8.58323 15.0576 8.40454C15.0006 8.36051 14.8789 8.39942 14.7753 8.552C14.6717 8.70458 14.6355 8.82643 14.4362 8.88599C14.4222 8.97386 14.3914 9.05822 14.3455 9.13449C14.2885 9.2304 14.1979 9.32614 14.0762 9.46848C13.8846 9.69376 13.9156 10.0639 13.6101 10.3462C13.3021 10.6283 13.6613 9.56422 13.6613 9.56422L14.1532 8.38662L15.5539 7.01702L17.7287 6.86957L17.941 7.99597L19.0025 8.36102L19.6731 9.38366L19.6734 9.38229Z" fill="#D3AE4D"/>
<path fill-rule="evenodd" clip-rule="evenodd" d="M20.0181 9.63099L19.1042 8.31327L18.4647 7.82124C18.4647 7.82124 18.0091 6.98259 17.978 6.95664C17.9521 6.93855 17.5223 6.89196 17.2479 6.87387L17.2991 7.00068C17.359 7.02013 17.4122 7.05603 17.4527 7.10427C17.5744 7.24405 17.652 7.50807 17.375 7.79035C17.4837 7.82909 17.5286 7.84155 17.6235 7.82909C17.5278 7.9431 17.3104 8.18647 17.2974 8.39878C17.2844 8.57217 17.3931 8.62389 17.3931 8.62389C17.3931 8.62389 17.2274 8.81555 17.2197 9.13589C17.298 9.04763 17.3836 8.96621 17.4757 8.89252C17.6674 8.73892 17.9314 8.5662 18.1101 8.45749C18.1077 8.50311 18.1138 8.54878 18.1282 8.59214C18.1282 8.59214 18.462 8.31771 18.7426 8.4394C18.8694 8.4964 18.8124 8.67509 18.8124 8.67509C18.8124 8.67509 18.986 8.6104 19.1076 8.73209C19.2293 8.85377 19.4027 9.16695 19.4908 9.2888C19.5295 9.34581 19.6306 9.45452 19.734 9.62263C19.8753 9.85827 19.9933 10.1071 20.0862 10.3657C20.0914 10.2621 20.1122 10.1172 20.291 10.1172L20.0192 9.63048L20.0181 9.63099Z" fill="#CAA13E"/>
<path fill-rule="evenodd" clip-rule="evenodd" d="M6.31683 13.3747C6.31683 13.3747 6.25215 13.2141 6.31683 12.9009C6.38152 12.5877 6.48255 12.4401 6.51617 11.9793C6.54979 11.5185 6.85017 10.9437 6.85017 10.9437L7.68114 10.5659L8.26892 10.7263L8.44232 11.5134L7.69923 11.923C7.69923 11.923 7.66049 12.0964 7.45074 12.2362C7.24099 12.3759 6.95103 12.4847 6.88123 12.6272C6.8395 12.7144 6.80905 12.8066 6.7906 12.9016C6.7906 12.9016 6.5783 12.8576 6.45149 12.9973C6.31683 13.1399 6.32195 13.2667 6.31683 13.3754V13.3747Z" fill="#F4EFC8"/>
<path fill-rule="evenodd" clip-rule="evenodd" d="M7.99515 13.1648C7.99515 13.1648 7.92518 13.2088 7.87346 13.3184C7.82226 13.2356 7.6999 12.7436 7.69478 12.3009C7.68966 11.8581 7.6632 11.7484 7.7656 11.5958C7.868 11.4433 8.26958 11.2825 8.21258 11.0077C8.15558 10.7462 7.91732 10.6375 7.6248 10.7126C7.42 10.7638 7.2676 11.1994 7.05529 11.4168C6.89469 11.5825 6.7032 11.5566 6.65149 11.6472C6.58152 11.7689 6.6462 11.8906 6.62555 11.9682C6.62026 11.9942 6.55558 12.1339 6.43901 12.3022C6.20349 12.6413 5.80481 13.1204 5.75293 13.5501C5.77102 13.3068 5.75822 13.3016 5.8229 13.0323L5.78399 12.9676L6.03999 12.1288L6.20571 11.4376L6.57606 10.2802L7.22834 9.0971L7.86271 8.38763L8.52285 8.43167L8.6005 9.42324L8.97853 11.2849L9.77332 12.2635L8.49947 13.1207L7.99464 13.1648H7.99515Z" fill="#EBCC73"/>
<path fill-rule="evenodd" clip-rule="evenodd" d="M8.39085 13.5167C8.39085 13.5167 8.28213 13.5426 8.24322 13.522C8.20431 13.5013 8.16574 13.4779 8.17854 13.452C8.19134 13.4261 8.26131 13.3822 8.26131 13.3614C8.2643 13.3223 8.23564 13.2879 8.19663 13.2837C8.13707 13.2761 8.11898 13.3148 8.11898 13.3148C8.11898 13.3148 8.06197 13.2709 8.01555 13.2636C8.04302 13.2602 8.07066 13.2585 8.09833 13.2583C8.02678 13.2259 7.95089 13.2041 7.87305 13.1936C7.93773 13.1549 8.06471 13.0409 8.14748 13.0409C8.23025 13.0409 8.28213 13.0281 8.26916 12.984C8.25619 12.94 8.19151 12.8753 8.12171 12.8494C8.14748 12.8183 8.16574 12.7717 8.10362 12.6446C8.03876 12.5178 8.06471 12.4323 8.08553 12.4014C8.10362 12.3625 8.1683 12.2927 8.19936 12.2486C8.23042 12.2046 8.25636 12.145 8.30808 12.114C8.33402 12.0959 8.41679 12.0628 8.49973 12.0312C8.59036 12.0001 8.66545 11.9612 8.71716 12.0001C8.77417 12.0389 8.74823 12.0908 8.74823 12.0908C8.74823 12.0908 8.92691 12.0259 9.08734 12.1089C9.24794 12.1863 9.63893 12.2357 9.63893 12.2357L9.77905 12.5179L8.85216 13.3127L8.46901 13.5044L8.39136 13.5172L8.39085 13.5167Z" fill="#E5C66B"/>
<path fill-rule="evenodd" clip-rule="evenodd" d="M9.67741 12.2174C9.67741 12.2174 9.39001 12.4091 9.32533 12.4789C9.36407 12.4842 9.42875 12.5101 9.40281 12.5489C9.37175 12.5876 9.18538 12.7223 9.08179 12.8492C8.97307 12.976 8.86948 13.1366 8.8333 13.2143C8.79455 13.2841 8.4993 13.4887 8.39844 13.5145C8.61075 13.5145 9.03793 13.253 9.19835 13.253C9.19323 13.3307 9.24238 13.4187 9.33301 13.4264C9.42363 13.4341 9.68509 13.4834 10.0372 13.266C10.3893 13.0537 10.2729 12.8956 10.4203 12.7922C10.7026 12.6057 10.8164 12.44 10.9717 12.3365C11.1271 12.2331 11.2074 12.2096 11.2074 12.2096C11.2074 12.2096 11.2126 12.1319 11.2586 12.1398C11.2843 12.1427 11.3063 12.1597 11.3156 12.1838C11.3156 12.1838 11.585 11.9921 11.93 11.9404C11.922 11.9368 11.9156 11.9304 11.912 11.9223C11.912 11.9223 11.9377 11.9094 11.943 11.8964C11.943 11.8964 11.9611 11.8705 11.9741 11.8834C11.987 11.8964 12.0051 11.9921 12.0311 12.0311C12.0881 12.0051 12.1968 11.7617 12.1968 11.7617L12.4584 11.0135V10.33L12.2536 10.3689L10.7176 11.0212L9.78545 11.987L9.67673 12.2174H9.67741Z" fill="#E6BD62"/>
<path fill-rule="evenodd" clip-rule="evenodd" d="M14.0999 8.86475C14.1829 8.8446 14.2626 8.81228 14.3362 8.76884C14.3052 8.85178 14.3052 8.94241 14.1705 9.13919C14.0359 9.33597 14.0307 9.36447 13.922 9.56893C13.8133 9.78123 13.8003 10.0867 13.6967 10.2212C13.7432 10.1987 13.793 10.1838 13.8442 10.1774C13.8442 10.1774 13.7408 10.268 13.6967 10.3637C13.6527 10.4595 13.5751 10.6588 13.3836 10.7807C13.1921 10.9025 12.9485 10.98 12.6871 11.2674C12.4255 11.5495 12.1563 11.9069 12.0215 12.0354C12.0915 11.9137 12.1872 11.6703 12.2131 11.5099C12.2391 11.3495 12.2079 11.1577 12.2519 10.9455C12.2959 10.7334 12.2959 10.5805 12.5079 10.2101C12.7199 9.83977 13.0827 8.55312 13.0827 8.55312L13.8645 8.30463L14.1002 8.8639L14.0999 8.86475Z" fill="#B6933F"/>
<path fill-rule="evenodd" clip-rule="evenodd" d="M13.5354 8.39088C13.5354 8.39088 13.2999 8.72999 13.2352 9.03037C13.1706 9.33074 13.2299 9.3048 13.1912 9.45243C13.168 9.54244 13.168 9.63685 13.1912 9.72686C13.2728 9.59545 13.3845 9.48535 13.517 9.40566C13.7397 9.27118 13.921 9.17526 14.029 9.06143C14.1377 8.93974 14.2283 8.7404 14.4639 8.58766C14.3681 8.57469 14.2335 8.53065 14.2079 8.53646C14.3038 8.42774 14.591 8.26203 14.881 8.06269C15.1684 7.85789 15.1503 7.77528 15.6164 7.57083C15.4636 7.59677 15.3911 7.55785 15.2641 7.57083C15.3153 7.46211 15.4945 7.41023 15.6737 7.23171C15.8529 7.05319 15.5599 6.789 15.5599 6.789L14.1946 7.61486L13.5344 8.39156L13.5354 8.39088Z" fill="#C49937"/>
<path fill-rule="evenodd" clip-rule="evenodd" d="M9.83008 7.77461L9.86114 7.52612L10.2521 6.8996L10.6612 5.79931V4.29506L10.6302 3.42517L10.6948 2.85548L10.744 2.6744L10.7959 2.60443L11.1297 2.77783L11.5907 3.40435L11.6347 4.61352L11.1867 6.52157L9.90773 7.91711L9.83008 7.77461Z" fill="#DFC068"/>
<path fill-rule="evenodd" clip-rule="evenodd" d="M10.848 2.53468C10.848 2.53468 10.6432 2.53997 10.5995 3.39176C10.5558 4.24356 10.5346 4.69139 10.5036 5.11345C10.4725 5.53551 10.4001 5.79168 10.3638 6.04034C10.3274 6.289 10.3068 6.62795 10.1904 6.83513C10.1392 6.93088 10.0298 7.23125 9.77344 7.45653C9.48604 7.70502 9.05664 7.87859 8.99161 7.89156C8.87761 7.91733 8.30024 7.97433 8.06472 8.10387C7.98195 8.1479 7.83944 8.19961 7.68158 8.34724C7.36823 8.62935 6.95147 9.13419 6.65109 9.74261C6.19029 10.6514 5.72949 13.217 5.72949 13.217L5.83309 13.0436C5.83309 13.0436 5.84606 12.8132 6.07646 12.4093C6.30174 12.0055 6.23705 11.5524 6.55023 10.7782C6.67191 10.4831 6.82466 10.1 7.01103 9.77367C7.30628 9.2429 7.66349 8.78722 8.02342 8.53873C8.61103 8.13493 9.25837 8.04687 9.25837 8.04687L9.95486 7.58607C9.95486 7.58607 10.0765 7.35055 10.2371 7.08124C10.4622 6.70338 10.7491 6.28132 10.8118 5.66777C10.9077 4.75897 10.6771 4.16352 10.6901 3.62507C10.7031 3.08661 10.7082 2.69049 10.8171 2.59458C10.926 2.49867 10.8481 2.53502 10.8481 2.53502L10.848 2.53468Z" fill="#A88F33"/>
<path fill-rule="evenodd" clip-rule="evenodd" d="M10.848 6.59905C10.848 6.59905 11.1552 5.843 11.2958 5.17245C11.3218 5.03779 11.3735 4.90331 11.3864 4.79459C11.4511 4.16022 11.4692 3.89876 11.3864 3.5518C11.3218 3.2958 11.0733 3.06506 10.9437 2.8862C10.8169 2.69966 10.7574 2.6302 10.7833 2.59094C10.8093 2.55169 10.9101 2.48752 11.0084 2.4952C11.2196 2.50135 11.419 2.59389 11.56 2.7512C11.7594 2.9816 11.9172 3.76359 11.9172 3.76359L12.0833 4.79544L12.5053 6.09507L10.8483 6.60007L10.848 6.59905Z" fill="#C99E3D"/>
<path fill-rule="evenodd" clip-rule="evenodd" d="M13.7345 5.81232C13.7345 5.81232 13.6775 5.83809 13.5741 5.81232C13.5831 5.89849 13.5431 5.98245 13.4705 6.02975C13.3618 5.98572 12.3441 6.07378 12.3441 6.07378C12.3441 6.07378 11.8703 5.99084 11.7227 5.36432C11.6193 4.94738 11.8004 4.37275 11.7408 3.99472C11.6502 3.43801 11.5234 3.32912 11.5104 3.1559C11.4974 2.98267 11.4845 2.93847 11.4845 2.82975C11.4275 2.81678 11.3938 2.79869 11.337 2.79869C11.324 2.74749 11.3498 2.70278 11.293 2.61215C11.324 2.62512 11.5363 2.65106 11.7848 2.88658C11.9896 3.07824 11.9896 3.14805 12.0205 3.18696C12.0593 3.2257 12.3726 3.49416 12.5073 3.76176C12.6419 4.02937 12.9034 4.8827 12.9629 5.02248C12.981 5.07948 13.0199 5.13648 13.1165 5.26585C13.2667 5.45239 13.4867 5.76078 13.7352 5.81198L13.7345 5.81232Z" fill="#B58634"/>
<path fill-rule="evenodd" clip-rule="evenodd" d="M12.0566 3.20013C12.2135 3.45349 12.3544 3.71637 12.4785 3.98725C12.6313 4.33148 12.7219 4.61377 12.9136 4.84417C12.81 4.54396 12.6262 3.95363 12.5174 3.74388C12.3958 3.52201 12.1473 3.28308 12.0566 3.2003V3.20013Z" fill="#A88F33"/>
<path fill-rule="evenodd" clip-rule="evenodd" d="M10.2969 7.45616C10.2969 7.45616 10.0354 7.52085 9.5487 7.77719C9.38811 7.85996 9.23553 7.92976 9.0879 7.99462C8.70442 8.16802 8.29311 8.32827 7.96679 8.41668C7.99274 8.44774 8.00554 8.46054 8.00554 8.46054C8.00554 8.46054 8.00554 8.58751 8.07551 8.65988C8.03677 8.69879 7.51879 9.05087 7.67171 10.2288C7.77514 10.1901 7.89682 10.1382 7.91491 10.1382C7.94614 10.1435 7.95382 10.2288 7.99256 10.2288C8.03131 10.2288 8.15828 10.1776 8.29294 10.0035C8.28782 10.0735 8.21016 10.7777 8.62693 11.2514C8.70459 11.1608 8.90136 10.8605 8.90136 10.8605L8.90648 10.7647C8.90648 10.7647 8.92458 10.4307 9.03346 10.1252C9.14235 9.81973 9.35448 9.59445 9.35448 9.59445L10.4623 8.01254L10.2966 7.45599L10.2969 7.45616Z" fill="#E6C367"/>
<path fill-rule="evenodd" clip-rule="evenodd" d="M9.26066 9.77893C9.20994 9.81477 9.15406 9.84268 9.09494 9.86171C9.07685 9.79702 9.05091 9.5743 9.20366 9.35687C9.38235 9.09524 9.77317 8.75613 9.88189 8.48647C9.95186 8.31291 9.9208 7.87805 10.5422 7.32133C11.1636 6.76462 11.4068 6.57313 11.4068 6.57313L12.4113 6.0683L13.6463 6.55504L13.0327 8.95973L12.5564 10.0861L10.662 9.72893L9.26049 9.77893H9.26066Z" fill="#DCBA5A"/>
<path fill-rule="evenodd" clip-rule="evenodd" d="M9.98438 9.12634L10.2201 8.83126V8.62151C10.2201 8.62151 10.4815 8.55154 10.7636 8.26413C11.0458 7.97673 11.4367 7.42531 11.7812 7.45893C12.1256 7.49784 12.1592 8.20713 12.1722 8.40664C12.1851 8.60615 12.2292 9.05893 12.299 9.30247C12.3766 9.54584 11.4601 10.4674 11.4601 10.4674L10.8377 10.9412L9.98438 9.12634Z" fill="#E9CE77"/>
<path fill-rule="evenodd" clip-rule="evenodd" d="M10.7129 11.5831C10.7129 11.5831 10.9045 11.2828 10.7641 11.2181C10.8469 11.0317 10.9996 10.8349 10.9996 10.8349C10.9996 10.8349 11.1083 10.5658 11.4604 10.2344C11.8125 9.90294 12.0301 9.68278 12.0871 9.46023C12.1222 9.31519 12.1414 9.16673 12.1441 9.01752C12.1822 9.04861 12.2229 9.07631 12.2658 9.10029C12.3228 9.12623 12.5919 9.34878 12.5532 9.79678C12.5144 10.2448 12.3484 10.4311 12.3484 10.4311C12.3484 10.4311 12.188 10.5916 12.0741 10.6745C11.9523 10.7573 11.9084 10.853 11.7038 10.8609C11.7248 10.8442 11.7485 10.831 11.7738 10.822C11.7738 10.822 11.5614 10.7962 11.4474 10.8996C11.3334 11.0031 11.0911 11.3217 10.9694 11.4176C10.8477 11.4953 10.7134 11.5833 10.7134 11.5833L10.7129 11.5831Z" fill="#CDAE50"/>
<path fill-rule="evenodd" clip-rule="evenodd" d="M19.3212 6.54746C19.0154 6.43598 18.6939 6.37309 18.3686 6.36109C17.8248 6.343 17.03 6.37406 16.2508 6.37918C15.4119 6.3843 14.6508 6.09178 13.5945 6.04007C13.4211 5.93647 12.9801 5.48335 11.6035 6.44386C11.6863 6.43874 12.6029 6.23155 12.9212 6.6304C13.2423 7.02652 13.1516 7.69963 13.1078 7.86005C13.0248 8.21743 12.7555 8.73779 12.647 9.10285C12.5384 9.46791 12.564 9.65973 12.4864 9.91573C12.4087 10.1717 12.2379 10.2989 12.3387 10.594C12.4734 10.5112 12.5435 10.5112 12.7685 10.0064C12.9934 9.50153 12.9472 9.14159 13.3201 8.71441C13.6851 8.28467 14.2929 7.6969 14.524 7.54927C14.755 7.40164 16.5899 6.44898 18.5111 7.35778C18.9744 7.30863 19.3214 6.54729 19.3214 6.54729L19.3212 6.54746Z" fill="#D2A83E"/>
<path fill-rule="evenodd" clip-rule="evenodd" d="M12.3783 6.19517C12.3764 6.17571 12.3721 6.15657 12.3655 6.13817C12.3475 6.1003 12.3239 6.06538 12.2955 6.03457C12.2955 6.03457 11.8398 5.9518 11.6094 5.97757C11.2054 6.0216 10.8404 6.52131 10.6695 6.77765C10.4987 7.034 10.2864 7.42994 10.056 7.63457C10.0585 7.61464 10.0539 7.59445 10.043 7.57757C10.043 7.57757 10.056 7.59566 10.0302 7.6216C10.0045 7.64754 10.0043 7.66034 10.0173 7.6728L10.0562 7.71154C10.069 7.71154 10.4263 7.55094 10.9131 7.09714C11.4309 6.62337 11.827 6.38034 12.0342 6.29706C12.1447 6.2501 12.2602 6.21592 12.3784 6.19517H12.3783Z" fill="#C29637"/>
<path fill-rule="evenodd" clip-rule="evenodd" d="M21.2167 4.24847C21.2167 4.24847 21.1338 4.3519 21.0302 4.4659C20.7998 4.70927 20.4994 4.98354 20.2431 5.26582C19.9999 5.53513 19.7254 5.74488 19.4172 6.09696C19.109 6.44905 18.7516 6.83988 18.6612 6.95388C18.5784 7.06789 18.5137 7.25426 18.5137 7.35C18.4697 7.31894 18.418 7.28532 18.418 7.28532C18.4397 7.32596 18.4658 7.36418 18.4956 7.39932C18.5603 7.48995 18.6612 7.60412 18.7131 7.67375C18.7767 7.7624 18.8224 7.86264 18.8475 7.96884C18.8786 7.97396 19.0779 8.01287 19.3266 7.60378C19.5753 7.19469 19.9012 6.74686 19.9012 6.74686L20.419 5.97784L20.7453 5.32555L21.155 4.59544L21.2172 4.24847H21.2167Z" fill="#AC8132"/>
<path fill-rule="evenodd" clip-rule="evenodd" d="M21.7479 3.72552C21.7479 3.72552 21.4346 3.98152 21.3129 4.13512C21.1912 4.28872 20.9033 4.69184 20.9033 4.69184L21.0069 4.67887L21.5326 4.21295L21.7374 3.84789L21.7478 3.72621L21.7479 3.72552Z" fill="#A88F33"/>
<path fill-rule="evenodd" clip-rule="evenodd" d="M21.6518 24.3001C21.6518 24.3001 21.6466 24.0878 21.7658 23.961C21.8874 23.834 22.1955 23.6477 22.4959 22.9486C22.7962 22.2496 22.8297 22.0917 22.8297 22.0917C22.8297 22.0917 22.2912 22.5525 21.9593 22.6612C22.037 22.5006 22.081 22.3868 22.1199 22.3038C22.0759 22.2651 21.8895 22.2211 21.8714 22.2004C21.9748 22.0968 22.0318 21.843 22.2416 21.6748C22.5109 21.47 23.0028 21.118 23.385 20.8044C23.7673 20.4907 24.519 19.7611 24.6149 19.5488C24.6719 19.6315 24.6847 19.6833 24.6847 19.6833C24.6847 19.6833 24.3068 20.1753 24.11 20.4885C23.9365 20.7578 23.9494 20.9105 23.9494 20.9105L24.3068 20.7569C24.3068 20.7569 24.4102 21.1401 23.9418 21.7227C24.1466 21.6451 24.2292 21.6917 24.3456 21.6268C24.1539 21.7487 23.8899 21.9144 23.6414 22.3699C23.398 22.8256 23.0666 23.3563 22.5075 23.6876C21.9637 24.0371 21.6504 24.2986 21.6504 24.2986L21.6518 24.3001Z" fill="#A67A2E"/>
<path fill-rule="evenodd" clip-rule="evenodd" d="M20.2489 6.81682C20.2489 6.81682 20.0366 7.25936 20.0055 7.60376C20.0004 7.68671 19.9796 7.75139 19.9796 7.84713C19.9745 8.15519 19.9977 8.49959 19.9284 8.66002C19.9024 8.59533 19.8895 8.5513 19.8635 8.52553C19.8248 8.63425 19.7548 8.97336 19.6978 9.10017C19.672 9.01739 19.615 8.72999 19.6203 8.39088C19.6256 8.05176 19.6331 7.98691 19.6331 7.91711C19.6203 8.02053 19.5504 8.16048 19.5244 8.24325C19.4857 8.17345 19.4416 8.08282 19.3898 8.00773C19.3587 8.05893 19.32 8.13453 19.2863 8.17345C19.281 8.14239 19.2682 8.05944 19.2604 7.94305C19.2553 7.80839 19.2474 7.63499 19.2553 7.59864C19.2681 7.52884 19.377 7.25441 19.6074 7.00319C19.8818 6.70281 20.1641 6.12562 20.2469 5.94693C20.3296 5.76824 20.6817 5.02533 20.6817 5.02533H20.951L20.56 5.91587C20.56 5.91587 20.3245 6.40261 20.2028 6.58147C20.0811 6.76033 19.8248 7.27284 19.7108 7.47218C19.7936 7.36346 19.8635 7.30646 19.9465 7.20287C20.0267 7.13033 20.2492 6.81716 20.2492 6.81716L20.2489 6.81682Z" fill="#8C6228"/>
<path fill-rule="evenodd" clip-rule="evenodd" d="M21.7531 3.69183C21.7091 3.82723 21.6396 3.95294 21.5483 4.06218C21.3877 4.25384 21.0433 4.51001 20.8752 4.71447C20.7216 4.91381 20.4144 5.45755 20.554 6.10216C20.6052 5.96238 20.7016 5.68539 20.958 5.37205C21.2143 5.0587 21.4888 4.69894 21.6236 4.41939C21.7581 4.1371 21.7762 3.91455 21.7762 3.91455L21.8274 3.84987L21.7963 3.70224L21.7523 3.69183L21.7531 3.69183Z" fill="#CBA94C"/>
<path fill-rule="evenodd" clip-rule="evenodd" d="M26.996 20.8646C26.996 20.8646 26.8924 20.5825 26.8613 20.3261C26.8303 20.0698 26.9125 20.0189 26.8173 19.7255C26.7603 19.5469 26.6569 19.5719 26.6309 19.5469C26.605 19.5218 26.5869 19.2518 26.592 19.1042C26.5971 18.9565 26.5869 18.765 26.561 18.6821C26.5222 18.651 26.4963 18.6251 26.4393 18.4336C26.3746 18.2419 26.3435 18.1462 26.3125 18.0894C26.2814 18.0325 26.1906 17.9807 26.1906 17.9236C26.1906 17.8096 26.2942 17.7503 26.2942 17.7189C26.2891 17.6542 26.2114 17.706 26.1906 17.6878C26.1648 17.6567 26.2555 17.4704 26.2218 17.4444C26.2089 17.4316 26.1182 17.5403 26.0949 17.5093C26.0689 17.478 26.0379 17.17 25.9913 16.9655C25.9474 16.7662 25.9006 16.6213 25.8955 16.5617C25.8904 16.5047 25.5382 15.5002 25.4528 15.2568C25.384 15.0512 25.3262 14.842 25.2794 14.6303C25.2535 14.5086 25.2354 14.2599 25.2224 14.2859C25.2094 14.3118 25.2173 14.4386 25.1965 14.4335C25.1784 14.4282 25.1137 13.9857 25.0931 13.9157C25.075 13.8457 24.9661 13.6085 24.9395 13.4368C24.9135 13.2633 24.8567 12.8101 24.8178 12.5021C24.7789 12.194 24.7608 12.0672 24.7608 11.9901C24.7671 11.8014 24.7567 11.6125 24.7297 11.4257C24.6785 11.0994 24.5761 10.7033 24.4863 10.473C24.3129 10.038 23.852 8.92474 23.7695 8.64775C23.7695 8.57777 23.8602 8.61668 23.8602 8.61668C23.8602 8.61668 24.0853 9.18108 24.251 9.61594C24.4116 10.051 24.5643 10.4341 24.6032 10.473C24.6343 10.5118 24.8777 10.9389 24.9864 11.638C25.0951 12.337 25.1338 12.9817 25.1987 13.4114C25.2298 13.6162 25.2557 13.8335 25.3204 14.0509C25.3902 14.2866 25.4989 14.5299 25.6414 14.9027C25.7631 15.216 25.8537 15.4775 25.9029 15.7028C25.9599 15.9902 25.9599 16.2076 25.9935 16.3501C26.0247 16.4718 26.0711 16.715 26.18 17.0669C26.2889 17.4188 26.4492 17.8721 26.5579 18.1542C26.7704 18.7186 26.8651 19.1898 26.8972 19.441C26.9255 19.6999 27.0214 20.5958 26.9955 20.8649L26.996 20.8646Z" fill="#A88F33"/>
<path fill-rule="evenodd" clip-rule="evenodd" d="M21.7658 3.66073L21.7528 3.69179C21.7528 3.69179 21.7916 3.70476 21.7839 3.75665C21.7844 3.82763 21.7801 3.89857 21.7709 3.96896C21.7581 4.05958 21.7322 4.12938 21.727 4.18639C21.727 4.30807 21.7451 4.44785 21.5734 4.79481C21.5222 4.89056 21.4907 4.97333 21.4647 5.03033C21.4001 5.17011 21.3871 5.19093 21.3301 5.25561C21.4207 5.20441 21.747 4.99961 21.9126 5.03033C21.7987 5.09501 21.6252 5.22199 21.5164 5.38771C21.5424 5.39283 21.6511 5.41365 21.8236 5.38771C22.111 5.34368 22.4321 5.24008 22.7142 5.26073C23.0224 5.27882 22.9007 4.89056 22.9007 4.89056L22.5451 4.10873L21.8719 3.63513L21.7658 3.6609V3.66073Z" fill="#BE9C44"/>
<path fill-rule="evenodd" clip-rule="evenodd" d="M23.5213 9.51693C23.5213 9.51693 23.2209 9.21656 23.0992 8.18573C22.9776 7.15012 23.0035 5.62573 23.0035 5.62573L22.7601 5.03027C22.7601 5.03027 22.7089 4.63416 22.5814 4.4867C22.454 4.33924 22.2036 4.09058 22.0896 3.9689C21.9756 3.84721 21.8462 3.68149 21.7686 3.65555C21.8073 3.59087 21.9809 3.22581 22.6461 3.22069C23.3114 3.21557 23.5165 3.58575 23.586 3.72041C23.6554 3.85506 23.9691 4.43721 24.0855 5.54654C24.1942 6.65451 24.1995 6.73745 24.1814 7.1206C24.1685 7.33291 24.0985 7.82477 23.9766 8.35025C23.8654 8.79569 23.7437 9.29284 23.521 9.51795L23.5213 9.51693Z" fill="#A17C34"/>
<path fill-rule="evenodd" clip-rule="evenodd" d="M22.5792 10.4002C22.6793 10.4074 22.7793 10.3848 22.8666 10.3353C22.9624 10.3302 23.3093 10.3742 23.5759 10.0351C23.594 10.1126 23.6408 10.3225 23.5189 10.5089C23.5838 10.444 23.6795 10.4182 23.6925 10.4002C23.6976 10.4959 23.7882 10.791 23.4051 11.5081C23.5085 11.3943 23.6302 11.3994 23.7389 11.3864C23.7442 11.5211 23.8166 11.974 23.6251 12.2176C23.4983 12.3833 23.2911 12.3314 23.2911 12.3314C23.2941 12.2952 23.2941 12.2589 23.2911 12.2227C23.286 12.1527 23.26 12.0829 23.2783 12.0363C23.1782 11.9906 23.087 11.9274 23.009 11.8498C22.7837 11.6375 22.4912 11.2752 22.4705 11.0058C22.4446 10.7055 22.7139 10.6408 22.7139 10.6408C22.6913 10.6206 22.6721 10.597 22.6569 10.5708C22.6439 10.527 22.6309 10.457 22.5792 10.4002Z" fill="#8C6228"/>
<path fill-rule="evenodd" clip-rule="evenodd" d="M20.5828 7.14304C20.5828 7.14304 20.5698 7.12495 20.5 7.20772C20.513 7.12495 20.5259 7.04712 20.5311 6.97203C20.5641 6.90251 20.6069 6.83803 20.658 6.78054C20.6191 6.85802 20.5932 6.928 20.5932 6.928C20.5932 6.928 20.6891 6.74931 20.8289 6.64059C20.9246 6.56294 21.0463 6.52676 21.098 6.45423C21.155 6.37657 21.142 6.3636 21.155 6.35063C21.155 6.35063 21.282 6.26786 21.4762 6.02432C21.502 5.99326 21.5409 5.95963 21.5668 5.92857C21.6107 5.91048 21.7143 5.86389 21.836 5.8016C21.963 5.73179 22.1053 5.63605 22.1934 5.5968C22.3668 5.51914 22.5507 5.52699 22.6361 5.40514C22.7007 5.38705 22.7705 5.19283 22.7577 5.02728C22.8535 5.06602 23.3454 5.37152 23.5138 6.03951C23.6355 6.51328 23.4179 7.24339 23.3273 7.59565C23.2366 7.9479 23.2238 8.20919 23.0969 8.36962C22.9363 8.5821 22.4186 8.88162 22.2917 9.02993C22.1829 9.15161 21.8568 9.45967 21.8696 9.68222C21.8826 9.84793 22.087 9.93822 22.1312 9.96962C22.1754 10.001 22.1751 10.0396 22.258 10.0208C22.341 10.002 22.3719 9.96382 22.4057 9.96382C22.4444 9.96894 22.4444 9.97679 22.4625 9.97679C22.4756 9.9764 22.4887 9.97462 22.5014 9.9715C22.5014 9.9715 22.4884 10.2072 21.937 10.2787C21.8981 10.284 21.8594 10.2968 21.81 10.3046C21.8749 10.2736 21.9136 10.2736 21.9836 10.1778C21.906 10.1649 21.6832 10.1519 21.6262 10.1338C21.6443 10.1027 21.7039 10.0198 21.753 9.98105C21.7971 9.94231 21.7479 9.92985 21.7092 9.94999C21.6425 9.99537 21.5785 10.0446 21.5175 10.0974C21.4528 10.1545 21.3958 10.2321 21.2922 10.3022C21.2612 10.1987 21.2663 10.0019 21.3881 9.85954C21.3569 9.86466 21.2974 9.95528 21.2405 9.93719C21.2302 9.84276 21.2364 9.74726 21.2586 9.65491C21.2897 9.53834 21.458 9.33388 21.458 9.33388L22.2708 7.88134L22.4442 6.78105L20.5828 7.1427V7.14304Z" fill="#92723A"/>
<path fill-rule="evenodd" clip-rule="evenodd" d="M20.5381 7.20507C20.5381 7.20507 20.4941 7.23613 20.5821 7.29569C20.5692 7.31378 20.5381 7.37846 20.4992 7.4225C20.4553 7.4737 20.4086 7.50544 20.3905 7.54947C20.3517 7.6401 20.3207 7.70222 20.3207 7.74113C20.3207 7.78004 20.3077 8.02853 20.199 8.18896C20.1601 8.24596 20.116 8.34171 20.085 8.40639C20.0203 8.52022 19.9633 8.61119 19.9503 8.66239C19.9246 8.75301 19.9065 9.0015 19.9065 9.0015C19.9065 9.0015 19.9635 8.93153 19.9841 8.90576C19.9529 8.97044 19.9193 9.04025 19.8701 9.09213C19.9012 9.06619 19.9918 9.0015 20.1445 8.86685C20.3569 8.68833 20.6883 8.38796 21.0923 8.15005C20.9704 8.19408 20.867 8.19408 20.7842 8.20705C20.8489 8.14237 21.4314 7.45885 21.7369 7.39417C21.7554 7.37065 21.7647 7.34112 21.7628 7.31122L21.5012 7.28545L20.9704 7.39929L20.8929 6.98969L20.5381 7.20455V7.20507Z" fill="#B18E3E"/>
<path fill-rule="evenodd" clip-rule="evenodd" d="M21.3828 9.5355C21.3828 9.5355 21.3128 9.6053 21.2481 9.77887C21.1983 9.72687 21.1556 9.6685 21.1211 9.6053C21.0254 9.44487 20.8779 9.24024 20.5335 9.35681C20.5284 9.24809 20.5205 9.19109 20.5335 9.11344C20.5905 9.10064 20.7639 8.96086 20.9373 8.75623C21.0592 8.61646 21.173 8.45586 21.2507 8.2514C21.3019 8.21249 21.3904 8.1478 21.5067 8.07271C21.6724 7.95888 21.8717 7.8034 21.9028 7.63C21.8251 7.66106 21.6594 7.73872 21.4107 7.72592C21.5067 7.68188 21.6541 7.63529 21.636 7.44363C21.6749 7.41769 21.706 7.3996 21.706 7.3996C21.6768 7.38987 21.6461 7.38547 21.6154 7.38663C21.6101 7.36854 21.6024 7.34277 21.5584 7.35557C21.5143 7.36837 21.5072 7.36854 21.5014 7.38663C21.4833 7.39192 21.4237 7.38663 21.3797 7.41786C21.3357 7.4491 21.214 7.55235 21.1674 7.57044C21.1855 7.53938 21.2112 7.49296 21.2112 7.49296C21.2112 7.49296 21.0844 7.50576 20.9938 7.54416C20.8281 7.60116 20.6366 7.70475 20.4424 7.80562C20.4605 7.77456 20.4683 7.75442 20.4811 7.74862C20.4939 7.74281 20.5252 7.73582 20.5252 7.73052C20.5252 7.72523 20.5124 7.67932 20.52 7.66072C20.5781 7.53771 20.6466 7.41992 20.7248 7.30864C20.8155 7.18678 20.8336 7.01338 20.8336 7.01338L21.2297 6.81404L22.3429 6.55804L23.0654 6.60208L22.9747 7.10179L22.5481 7.97424L22.183 8.76903L21.7661 9.25594L21.3829 9.5355H21.3828Z" fill="#543E26"/>
<path fill-rule="evenodd" clip-rule="evenodd" d="M23.1874 7.37281C23.1874 7.37281 22.7524 7.91126 22.6307 7.99421C22.7084 7.82849 23.1874 6.84203 23.3608 6.5676C23.3221 6.53654 23.2702 6.53654 23.3919 6.0556C23.2885 6.2988 23.2521 6.42578 23.1668 6.49046C23.0814 6.55514 23.0709 6.53449 23.0132 6.53449C23.0241 6.51479 23.0285 6.49218 23.026 6.46981C23.026 6.46981 22.6609 6.42578 22.4116 6.42578C22.1622 6.42578 21.6687 6.56043 21.3941 6.66915C21.1766 6.75977 21.0549 6.75977 20.9773 6.81661C20.8996 6.88129 20.8556 6.95126 20.8167 6.96935C20.7856 6.98744 20.6382 7.03403 20.6044 7.08319C20.5733 7.13439 20.5216 7.1919 20.5216 7.20487C20.5216 7.21784 20.5086 7.2361 20.5475 7.22296C20.5603 7.21784 20.6563 7.16596 20.765 7.10128C20.9124 7.0185 21.0911 6.92276 21.2207 6.86576C21.5908 6.71813 21.7074 6.74407 21.8729 6.71301C22.0463 6.68195 22.295 6.60942 22.4606 6.60942C22.6263 6.6043 22.9396 6.60942 23.0121 6.62239C22.9811 6.64833 22.9551 6.67939 22.9681 6.7881C22.9681 6.81917 22.9422 6.85279 22.9169 6.92788C22.8394 7.14019 22.6918 7.49227 22.6097 7.67096C22.4959 7.91416 22.3665 8.11879 22.3025 8.2456C22.2385 8.3724 22.0977 8.7064 21.9583 8.88509C21.8188 9.06377 21.746 9.17249 21.7023 9.2114C21.6586 9.25031 21.3449 9.48054 21.3683 9.56349C21.4253 9.54539 21.7852 9.40989 22.0465 9.11566C22.3078 8.82143 22.3599 8.64189 22.5643 8.48129C22.7688 8.32069 22.9294 8.05155 23.0251 7.829C23.1053 7.62181 23.0872 7.55713 23.1881 7.37332L23.1874 7.37281Z" fill="#806031"/>
<path fill-rule="evenodd" clip-rule="evenodd" d="M13.8121 11.3914C13.8121 11.3914 13.7551 11.6269 13.6256 11.7435C13.4988 11.8575 13.2735 11.9558 13.2477 12.1475C13.2167 12.339 13.473 12.4349 13.473 12.4349C13.473 12.4349 13.3331 12.6653 13.3331 12.8387C13.3331 13.0174 13.3279 13.051 13.346 13.2218C13.3255 13.235 13.308 13.2525 13.2948 13.273C13.2948 13.273 13.3076 13.4387 13.4346 13.5422C13.5616 13.6456 13.6701 13.7079 13.7348 13.6819C13.7447 13.7031 13.7533 13.7247 13.7608 13.7468C13.7608 13.7468 13.8567 13.5034 13.9213 13.2911C13.986 13.0737 14.043 13.1046 14.0688 12.8121C14.0946 12.5195 14.376 12.0173 14.376 12.0173L14.568 11.588L14.2548 11.3447L13.8121 11.3913V11.3914Z" fill="#B6903C"/>
<path fill-rule="evenodd" clip-rule="evenodd" d="M14.3946 11.8134C14.33 11.8797 14.2704 11.9507 14.2162 12.0257C14.1334 12.1397 14.0687 12.2432 13.9471 12.2874C13.8254 12.3316 13.7477 12.3312 13.7554 12.4531C13.7631 12.5749 13.8771 12.6265 13.9418 12.6886C14.0117 12.7533 14.0687 12.862 14.0377 12.9838C14.0764 12.9658 14.1464 12.9449 14.2111 12.8052C14.2758 12.6654 14.7282 11.8136 14.7282 11.8136H14.3946V11.8134Z" fill="#685026"/>
<path fill-rule="evenodd" clip-rule="evenodd" d="M16.1797 9.84845C16.1797 9.84845 16.2184 9.74503 16.1797 9.66994C16.1407 9.59228 15.9052 9.56634 15.7887 9.47828C15.667 9.38765 15.5193 9.32468 15.3977 9.36444C15.4158 9.32041 15.4883 9.2245 15.4287 9.20385C15.3717 9.18576 15.1596 9.2815 15.1026 9.32553C15.0456 9.36956 14.916 9.42128 14.8903 9.45251C14.8645 9.48374 14.8203 9.54313 14.7944 9.51719C14.7684 9.4991 14.7556 9.45251 14.7116 9.47828C14.6675 9.50405 14.4556 9.67762 14.4165 9.77865C14.3774 9.87969 14.2895 10.105 14.0255 10.3611C13.7615 10.6173 13.6475 10.7832 13.7251 10.8789C13.8028 10.9747 13.8391 10.9049 13.8521 10.9877C13.8621 11.0689 13.8577 11.1513 13.8391 11.231C13.8081 11.3657 13.7564 11.4925 13.8262 11.5184C14.0048 11.5754 14.1784 11.4672 14.2172 11.5003C14.2948 11.5701 14.1731 11.8214 14.3569 11.8705C14.5435 11.9217 14.7273 11.8265 14.7273 11.8265L15.4055 11.4614L16.058 11.1172L16.3918 10.4569L16.2128 9.90546L16.1786 9.84845H16.1797Z" fill="#D4B968"/>
<path fill-rule="evenodd" clip-rule="evenodd" d="M15.5389 11.425C15.5389 11.425 15.4249 11.2516 15.5648 11.0987C15.7048 10.9458 15.9039 10.8812 15.9816 10.7855C15.9668 10.7673 15.947 10.7538 15.9246 10.7468C15.9761 10.6545 16.0548 10.5803 16.1499 10.5343C16.1111 10.4955 16.0593 10.4645 16.0024 10.4645C15.8754 10.4645 15.7976 10.5421 15.6812 10.5421C15.5674 10.5421 15.5544 10.4851 15.5544 10.4851C15.5544 10.4851 15.7461 10.467 15.7278 10.3815C15.7097 10.2909 15.6766 10.2909 15.6766 10.2909C15.6766 10.2909 16.0468 10.1373 16.1115 10.0554C16.1762 9.97347 16.1685 9.8767 16.1815 9.83796C16.2253 9.83796 16.4817 9.7033 16.5853 9.7603C16.6888 9.81731 16.6163 9.97261 16.6163 9.97261C16.6163 9.97261 16.9298 9.73692 17.0896 9.50584C17.2293 9.51881 17.2944 9.4101 17.3968 9.4101C17.5237 9.4101 17.7231 9.58349 17.7618 9.95367C17.7878 10.166 17.8265 10.2877 17.7878 10.6631C17.7697 10.8754 17.7748 11.3287 17.839 11.5537C17.8828 11.7324 17.9864 11.7143 17.9864 11.7143C17.9705 11.7687 17.939 11.8173 17.8958 11.854C17.8258 11.9187 17.8181 12.0897 17.8258 12.1544C17.8361 12.2017 17.8491 12.2484 17.8647 12.2942C17.8647 12.2942 17.782 12.3899 17.7611 12.4548C17.7431 12.5195 17.6577 12.5635 17.5954 12.5635C17.5331 12.5635 17.5644 12.5582 17.4816 12.5635C17.3988 12.5688 17.3729 12.5816 17.321 12.5635C17.2691 12.5454 17.2304 12.5246 17.2512 12.3587C17.2693 12.193 16.6117 11.8073 16.6117 11.8073L15.5365 11.4241L15.5389 11.425Z" fill="#CCA849"/>
<path fill-rule="evenodd" clip-rule="evenodd" d="M14.3046 13.0616C14.3046 13.0616 14.5401 13.3749 15.5084 13.3749C15.9692 13.3749 16.1298 13.3309 16.2252 13.305C16.3288 13.279 16.7171 13.1265 17.1081 12.6655C17.4602 12.2487 17.3825 12.0779 17.3825 12.0779L17.1777 12.0468L16.5121 12.1374L14.5426 12.9763L14.3037 13.0616H14.3046Z" fill="#585136"/>
<path fill-rule="evenodd" clip-rule="evenodd" d="M15.0263 13.1389C15.0263 13.1389 14.1875 13.3254 14.1875 12.7946C14.1875 12.2768 14.7053 11.7331 14.8348 11.6374C14.9695 11.5414 15.2905 11.4326 15.2905 11.4326H16.0647L16.2121 11.8236L16.1474 12.6675L15.0263 13.1387V13.1389Z" fill="#252211"/>
<path fill-rule="evenodd" clip-rule="evenodd" d="M15.8004 11.5907C15.8004 11.5907 15.64 11.4431 15.2749 11.6419C14.9098 11.8408 14.6146 12.2563 14.5965 12.6337C14.5784 12.9675 14.8709 13.2162 15.3266 13.2291C15.6657 13.2419 15.8704 13.2032 15.9739 13.1779C15.948 13.1469 15.8134 12.9786 15.8134 12.9786L15.8006 11.5909L15.8004 11.5907Z" fill="#C3B378"/>
<path fill-rule="evenodd" clip-rule="evenodd" d="M15.6425 11.6737C15.6425 11.6737 15.6038 11.6427 15.4889 11.7048C15.3932 11.756 15.2534 11.8913 15.1447 11.9871C15.0747 12.0441 15.0307 12.0698 14.9911 12.1139C14.8305 12.3055 14.6958 12.6189 14.7737 12.7742C14.8515 12.9295 15.1077 13.1082 15.7601 12.9865L15.6407 11.6739L15.6425 11.6737Z" fill="#E6D89C"/>
<path fill-rule="evenodd" clip-rule="evenodd" d="M15.4305 11.9946C15.4305 11.9946 15.3269 12.1552 15.3269 12.4115C15.3269 12.673 15.4745 13.0898 16.0182 13.1208C16.435 13.1468 16.7146 12.5202 17.0175 12.2769C17.2479 12.0905 17.3877 12.0852 17.3877 12.0852C17.3877 12.0852 17.1521 11.8292 16.5231 11.4976C15.9017 11.1636 15.2052 11.1196 14.8271 11.6323C15.0058 11.6193 15.5832 11.4717 15.5832 11.4717L15.8655 11.5623L15.4305 11.9948V11.9946Z" fill="#252211"/>
<path fill-rule="evenodd" clip-rule="evenodd" d="M16.2434 12.3338C16.2254 12.2951 16.2124 12.2432 16.2875 12.2304C16.3626 12.2176 16.3962 12.2251 16.4221 12.2816C16.4481 12.3381 16.4733 12.3852 16.4349 12.4086C16.3962 12.4292 16.2952 12.4086 16.2433 12.3335L16.2434 12.3338ZM16.1221 11.9689C16.1221 11.9689 16.0961 11.987 16.1091 11.9508C16.1142 11.907 16.148 11.8291 16.2308 11.8474C16.3136 11.8657 16.2956 11.9561 16.282 11.982C16.2683 12.008 16.1992 12.0519 16.1473 12.0332C16.134 12.0298 16.1231 12.0203 16.1179 12.0075C16.1128 11.9947 16.1141 11.9802 16.1214 11.9686L16.1221 11.9689Z" fill="#6F674D"/>
<path fill-rule="evenodd" clip-rule="evenodd" d="M9.11328 12.1345C9.11328 12.1345 9.31808 12.2881 9.55599 12.2822C9.79151 12.2769 10.0944 12.0337 10.2342 11.8782C10.317 11.7876 10.3878 11.6918 10.4646 11.6167C10.5295 11.5521 10.5733 11.521 10.6044 11.477C10.6484 11.4258 10.695 11.3295 10.7184 11.2983C10.6614 11.3423 10.5786 11.4201 10.4931 11.4718C10.4103 11.523 10.2317 11.6193 10.1591 11.6452C10.0893 11.6712 9.36433 12.0548 9.36433 12.0548L9.11328 12.1345Z" fill="#AC924C"/>
<path fill-rule="evenodd" clip-rule="evenodd" d="M9.42676 10.2214C9.42676 10.2214 9.54059 10.1438 9.76075 10.0945C9.97306 10.0433 10.4002 10.0038 10.4002 10.0038L10.7523 10.1574L10.8921 10.6882L10.6361 11.2398L10.31 11.4446L9.93961 10.8492L9.42761 10.2225L9.42676 10.2214Z" fill="#9F8E57"/>
<path fill-rule="evenodd" clip-rule="evenodd" d="M8.96561 10.6949L8.84375 10.7859C8.84375 10.7859 8.87498 10.7289 8.90075 10.5555C8.92652 10.3821 9.06135 9.96006 9.25813 9.71669C9.45491 9.47332 9.44979 9.48629 9.44979 9.48629C9.41316 9.47959 9.37541 9.48898 9.34619 9.51206C9.37213 9.45471 9.53785 9.24991 9.70357 9.14751C9.86929 9.04511 9.93397 9.01286 10.1074 9.09631C10.2808 9.17977 10.3248 9.22312 10.4518 9.218C10.5787 9.21288 10.6873 9.07822 10.6873 9.07822C10.6873 9.07822 10.7132 9.161 10.6175 9.35266C10.5217 9.54431 10.1437 9.93514 10.1437 9.93514L9.3566 10.4736L8.96561 10.6955V10.6949Z" fill="#EAC970"/>
<path fill-rule="evenodd" clip-rule="evenodd" d="M9.54853 10.1564C9.54853 10.1564 10.1182 10.2341 10.2916 10.0737C10.2967 10.0917 10.3176 10.0917 10.3176 10.1047C10.3162 10.1145 10.3116 10.1235 10.3046 10.1305C10.3234 10.1275 10.3425 10.1258 10.3616 10.1254C10.3844 10.1322 10.4078 10.1365 10.4316 10.1383C10.4507 10.1379 10.4697 10.1362 10.4886 10.133C10.4849 10.159 10.4709 10.1825 10.4497 10.1979C10.4756 10.1979 10.5009 10.203 10.5009 10.2237C10.5009 10.2443 10.506 10.3066 10.4749 10.3196C10.4492 10.3267 10.4218 10.3248 10.3973 10.3143C10.3993 10.3633 10.4126 10.4112 10.4362 10.4542C10.4874 10.55 10.5966 10.659 10.7434 10.6276C10.7434 10.6276 10.8209 10.814 10.4947 11.2282C10.4508 11.2852 10.4041 11.3629 10.3473 11.4276C10.3248 11.4765 10.3076 11.5277 10.2961 11.5803C10.2961 11.5803 10.8476 11.368 11.0055 10.8838C11.1661 10.3971 11.1972 9.91818 11.1661 9.47035C11.1608 9.34337 11.1402 9.25292 11.1091 9.18806C11.0315 9.02747 10.8139 9.05341 10.726 9.14403C10.599 9.27101 10.3867 9.58674 10.0916 9.80417C9.79122 10.0216 9.77842 10.0602 9.54785 10.1564H9.54853Z" fill="#D7BC6B"/>
<path fill-rule="evenodd" clip-rule="evenodd" d="M8.8644 10.8555C8.8644 10.8555 8.75569 10.9202 8.69868 11.1627C8.64168 11.4112 8.74988 11.7141 8.81252 11.8099C8.87515 11.9056 9.01732 12.1673 9.31223 12.1802C9.38523 12.1798 9.45741 12.1649 9.52454 12.1362C9.62749 12.089 9.72406 12.0289 9.81194 11.9575C9.93892 11.8618 10.0423 11.779 10.0294 11.7711C9.99831 11.7582 9.24755 11.1368 9.24755 11.1368L8.96526 10.8217L8.86423 10.8558L8.8644 10.8555Z" fill="#585136"/>
<path fill-rule="evenodd" clip-rule="evenodd" d="M9.57451 11.8859C9.57451 11.8859 9.72726 11.8731 9.81788 11.8161C9.90851 11.7591 9.28711 11.143 9.28711 11.143L9.33114 11.8086L9.57451 11.8859Z" fill="#453A25"/>
<path fill-rule="evenodd" clip-rule="evenodd" d="M8.9142 10.809C8.9142 10.809 8.83655 10.9566 8.83655 10.9955C8.82358 11.1223 8.86249 11.521 8.89355 11.6478C8.92461 11.7825 9.09289 11.9869 9.31049 11.9869C9.44497 11.9869 9.63151 11.9042 9.63151 11.8835C9.63151 11.8576 9.43985 11.8323 9.38814 11.7359C9.35708 11.6847 9.34411 11.5574 9.33694 11.4287C9.33182 11.3459 9.33182 11.2553 9.36288 11.2239C9.43286 11.1462 9.44566 10.9235 9.44566 10.9235L9.69415 10.4619H9.36732L8.97632 10.7052L8.9142 10.809Z" fill="#84754B"/>
<path fill-rule="evenodd" clip-rule="evenodd" d="M8.81836 10.9516C8.81836 10.9516 9.07436 10.6125 9.3051 10.5347C9.53584 10.4568 9.6391 10.5036 9.6391 10.5036L9.50444 10.848L9.31278 11.0603L9.32575 11.169C9.32575 11.169 9.29452 11.4564 9.48618 11.6558C9.67784 11.8551 9.82017 11.8474 9.90312 11.8474C9.98606 11.8474 10.2241 11.7774 10.3458 11.49C10.4545 11.2209 10.5452 10.8756 10.3277 10.5295C10.1153 10.1851 9.73996 10.1718 9.66743 10.1718C9.59489 10.1718 9.02538 10.2003 8.81836 10.9511V10.9516Z" fill="#252211"/>
<path fill-rule="evenodd" clip-rule="evenodd" d="M15.3913 12.1032C15.2956 12.0592 15.3862 11.79 15.482 11.7071C15.5777 11.6242 15.6994 11.5286 15.9119 11.5154C15.9893 11.5103 16.0644 11.5595 16.0516 11.6114C16.0335 11.7071 15.8989 11.8418 15.7772 11.9375C15.6089 12.0696 15.5 12.1524 15.3913 12.1032Z" fill="#F7F7E7"/>
<path fill-rule="evenodd" clip-rule="evenodd" d="M10.2136 10.6355C10.2835 10.6304 10.3742 10.6867 10.3923 10.7625C10.4103 10.8453 10.3482 11.011 10.2136 11.011C10.1049 11.011 10.0479 10.8764 10.0479 10.8376C10.0491 10.8058 10.058 10.7747 10.0738 10.747C10.0789 10.7391 10.0919 10.6485 10.2136 10.6355Z" fill="#F8F6DE"/>
<path fill-rule="evenodd" clip-rule="evenodd" d="M9.20406 10.6953C9.20406 10.6953 9.02537 10.778 8.9426 10.9513C8.88345 11.0792 8.86556 11.2223 8.8914 11.3609C8.90437 11.4255 8.96905 11.586 9.01308 11.643C9.05711 11.7 9.11668 11.7389 9.16071 11.7336C9.20474 11.7283 9.29519 11.6119 9.29519 11.5421C9.29519 11.4723 9.30048 11.177 9.38582 11.0164C9.46091 10.856 9.20457 10.6954 9.20457 10.6954L9.20406 10.6953Z" fill="#D4C38B"/>
<path fill-rule="evenodd" clip-rule="evenodd" d="M9.23017 10.682C9.19911 10.7001 9.1474 10.7261 9.1602 10.7597C9.17317 10.7907 9.28189 10.8109 9.3208 10.8867C9.36483 10.9643 9.36483 11.0471 9.35186 11.086C9.38568 11.0699 9.41636 11.048 9.44248 11.0211C9.49949 10.9565 9.56929 10.8686 9.62885 10.8686C9.66776 10.8686 9.7065 10.8867 9.74286 10.8867C9.79986 10.8867 9.85669 10.8686 9.86454 10.809C9.87734 10.7314 9.75583 10.6614 9.68585 10.6743C9.69882 10.6231 9.71692 10.5475 9.65991 10.4957C9.60291 10.4438 9.42439 10.5346 9.38548 10.5605C9.34657 10.5865 9.23017 10.6822 9.23017 10.6822V10.682Z" fill="#E2D59D"/>
<path fill-rule="evenodd" clip-rule="evenodd" d="M13.3436 16.1214L13.7267 16.0082L13.8354 16.0859C13.8354 16.0859 13.9129 16.2516 14.0348 16.2723C13.9959 16.355 13.8948 16.4259 13.9001 16.4846C13.9054 16.5433 13.9571 16.5882 13.9571 16.5882C13.9571 16.5882 13.6127 17.1577 14.2911 17.7316C14.1305 17.7963 13.9261 17.8852 13.8173 17.9364C13.8948 17.9545 14.0605 17.9876 14.1305 18.0504C14.2005 18.1132 14.2005 18.1332 14.2652 18.1721C14.3299 18.211 14.3686 18.2627 14.3558 18.286C14.3118 18.26 14.1641 18.1825 14.1384 18.2549C14.1126 18.3273 13.4989 18.2989 13.4989 18.2989L12.4633 18.4983C12.4633 18.4983 12.502 18.3947 12.3933 18.2989C12.2665 18.1851 12.1112 18.304 11.9455 18.1772C11.728 18.0115 11.7202 17.8199 11.6504 17.7475C11.7202 17.7035 11.8627 17.6388 12.2018 17.5939C12.1888 17.568 12.1448 17.4903 12.1708 17.4205C12.2018 17.3299 12.3312 17.2729 12.2924 17.1645C12.3494 17.1515 12.3752 17.1515 12.5177 16.9728C12.6524 16.7942 12.7351 16.7554 12.8387 16.7424C12.9423 16.7295 13.0045 16.7424 13.1961 16.5638C13.3306 16.437 13.2867 16.3282 13.2867 16.3282C13.2867 16.3282 13.3746 16.2997 13.3437 16.1211L13.3436 16.1214Z" fill="#CBAC5A"/>
<path fill-rule="evenodd" clip-rule="evenodd" d="M12.2125 16.179C12.2176 16.1531 12.2385 16.1401 12.3782 16.1531C12.518 16.166 13.4034 16.0703 13.6442 16.0573C13.8876 16.0392 14.7445 16.052 15.1615 16.1401C15.5784 16.2282 16.0003 16.3317 16.2047 16.3835C16.4095 16.4405 16.4741 16.4609 16.4662 16.4869C16.4611 16.5128 16.415 16.5381 16.3886 16.5309C16.3628 16.5258 15.6844 16.3186 15.4748 16.2749C15.2652 16.2312 14.5401 16.1143 14.1436 16.1213C13.7734 16.1266 13.6258 16.1162 13.3126 16.1524C12.9993 16.1913 12.4815 16.243 12.3262 16.2223C12.1726 16.2043 12.2043 16.2043 12.2122 16.1783L12.2125 16.179Z" fill="#D6BC6F"/>
<path fill-rule="evenodd" clip-rule="evenodd" d="M14.2968 18.2084C14.2968 18.2084 14.8275 18.4958 15.0192 18.8478C15.159 19.1093 14.9364 19.2388 14.9364 19.2388C14.9364 19.2388 15.2368 19.2388 15.1979 19.4046C15.1798 19.508 14.6801 19.7875 14.3461 19.9352C14.007 20.0828 14.0199 20.0751 13.8542 20.1009C13.6936 20.1268 13.2535 20.0497 13.1628 20.1785C13.0722 20.3074 13.1116 20.4402 13.1369 20.4608C13.1628 20.4789 13.3726 20.5048 13.3726 20.5048C13.3726 20.5048 13.3286 20.6265 12.8937 20.6395C12.4588 20.6525 12.35 20.6834 12.324 20.7301C12.2981 20.774 12.4068 20.7482 12.6063 20.7813C12.8056 20.8124 13.0852 20.8325 13.0852 20.8325C13.0852 20.8325 12.9946 20.9102 12.7591 20.9723C12.4897 21.0421 12.0677 21.107 11.9409 21.1846C12.0056 21.2286 12.1015 21.2933 12.1457 21.2984C12.037 21.3244 11.884 21.3814 11.8583 21.402C11.897 21.428 11.9489 21.459 11.9489 21.459C11.9489 21.459 11.7313 21.7205 11.6045 21.7854C11.4777 21.8502 10.7476 22.1892 10.4964 22.1245C9.86983 21.9588 9.79218 21.2727 9.63943 21.221C9.40903 21.1433 9.30032 21.2984 9.09569 21.1897C9.18631 21.125 9.23564 21.0863 9.33138 21.0423C9.22779 20.9911 8.69189 20.6513 8.69189 20.6513C8.63585 20.5291 8.57365 20.4099 8.50553 20.2941C8.40193 20.1154 8.24953 19.8771 8.13518 19.6674C7.88669 19.2066 7.87372 18.9943 7.64844 18.7328C7.68735 18.6816 7.82183 18.6888 7.82183 18.6888L9.70941 19.3102L13.0564 19.4071L13.9268 18.1645L14.2969 18.2085L14.2968 18.2084Z" fill="#DFC677"/>
<path fill-rule="evenodd" clip-rule="evenodd" d="M9.33887 20.1034C9.35906 20.1259 9.38261 20.1451 9.40867 20.1604C9.47352 20.2044 9.56927 20.2563 9.63395 20.3338C9.65989 20.2951 9.72457 20.2251 9.83875 20.3338C9.95293 20.4425 10.0947 20.365 10.183 20.3908C10.2736 20.422 10.2787 20.4348 10.2787 20.4348C10.2787 20.4348 10.3299 20.3908 10.4444 20.3442C10.5144 20.3183 10.5972 20.3002 10.6878 20.2744C10.7706 20.2563 10.8612 20.2304 10.9235 20.2304C10.9805 20.2691 11.185 20.4864 12.0057 20.1657C12.7798 19.8653 12.9584 19.8317 13.0879 19.8781C13.1009 19.8471 13.1138 19.7875 13.3132 19.7954C13.3132 19.7126 13.1475 19.4303 13.1475 19.4303L12.2335 19.1171H11.7337L10.2347 19.3916L9.40406 19.8655L9.33938 20.1044L9.33887 20.1034Z" fill="#C4A859"/>
<path fill-rule="evenodd" clip-rule="evenodd" d="M8.83887 19.578C8.83887 19.578 8.85696 19.7177 9.06415 19.8654C9.26895 20.0128 9.33329 20.1009 9.33329 20.1009C9.33329 20.1009 9.3722 20.0497 9.40326 19.9975C9.43432 19.9405 9.46026 19.8758 9.51198 19.8577C9.61557 19.8137 9.85109 19.8964 9.90297 19.8835C9.94701 19.8707 9.93404 19.78 9.98063 19.78C10.0893 19.7747 10.1591 19.8498 10.1981 19.8498C10.237 19.8498 10.3325 19.8447 10.3455 19.8241C10.3585 19.8034 10.3636 19.5884 10.5112 19.4848C10.6718 19.371 10.8686 19.4201 10.9208 19.446C10.9208 19.4848 10.926 19.5807 11.0295 19.5858C11.1331 19.5909 11.1434 19.5728 11.2343 19.6039C11.3253 19.635 11.4337 19.5988 11.4828 19.7514C11.5269 19.7386 11.6305 19.7256 11.6045 19.578C11.6557 19.5392 11.7004 19.5133 11.8093 19.3605C11.8353 19.3218 11.8791 19.2778 11.9129 19.2208C12.0035 19.2208 12.1123 19.2027 12.2571 19.3295C12.2131 19.3605 12.1872 19.3807 12.1744 19.4123C12.2123 19.4498 12.2469 19.4905 12.2778 19.5339C12.3167 19.5851 12.3427 19.6479 12.3918 19.6609C12.5005 19.692 12.6792 19.6479 12.8785 19.6609C13.0702 19.6739 13.2306 19.7437 13.3006 19.7877C13.3265 19.7749 13.3265 19.7696 13.3912 19.7826C13.4559 19.7956 13.5051 19.8007 13.4353 19.7179C13.474 19.736 13.518 19.7749 13.5569 19.736C13.5959 19.6971 13.6267 19.6403 13.7355 19.6273C13.8442 19.6143 13.8831 19.6324 13.9271 19.5186C13.9841 19.3788 13.7873 19.3788 13.7873 19.3788C13.7873 19.3788 13.878 19.2959 13.979 19.1871C14.1007 19.0733 14.2405 18.9257 14.2741 18.7444C14.3311 18.4104 14.0049 18.3666 14.0049 18.3666L12.423 18.8533L10.489 18.7574L8.83989 19.5781L8.83887 19.578Z" fill="#927D49"/>
<path fill-rule="evenodd" clip-rule="evenodd" d="M7.41768 15.0085C7.41768 15.0085 7.36648 15.0732 7.3349 15.2259C7.30333 15.3787 7.31681 15.3606 7.29087 15.4693C7.26493 15.578 6.9463 16.6602 7.06576 17.0252C7.18523 17.3903 7.39208 17.525 7.52144 17.82C7.54738 17.8847 7.57264 17.9236 7.58613 17.9806C7.63016 18.1721 7.59142 18.3197 7.64313 18.5114C7.66122 18.5761 7.70798 18.6512 7.77778 18.7288C7.93138 18.8893 8.18175 19.042 8.28978 19.1507C8.44236 19.3113 8.65996 19.6376 8.93695 19.6685C9.08458 19.6866 9.29433 19.6245 9.46773 19.5211C9.62133 19.4252 9.71622 19.2907 9.87733 19.2139C9.99116 19.1569 10.1128 19.1362 10.2216 19.1103C10.4468 19.0662 10.6515 19.0591 10.7732 19.0843C10.9595 19.1232 11.3997 19.2579 11.6436 19.2579C11.8341 19.2548 12.0236 19.2288 12.208 19.1803C12.5781 19.0715 13.026 18.885 13.3212 18.8022C13.4946 18.751 13.6344 18.7375 13.7769 18.7065C14.0203 18.6495 14.2247 18.5718 14.3413 18.4242C14.2636 18.3336 14.1679 18.1938 13.6499 18.1989C13.0623 18.2119 12.3839 18.538 12.0499 18.5899C11.7159 18.6418 11.571 18.6857 11.1981 18.551C10.8325 18.415 10.8204 18.325 10.8204 18.325C10.8204 18.325 10.4366 18.0566 10.276 17.3722C10.1154 16.6878 10.276 16.1891 10.6929 15.7152C10.8017 15.5935 10.7757 15.4848 10.7757 15.4848C10.7757 15.4848 11.0501 15.1146 10.9751 14.768C10.8923 14.4236 10.3615 14.4936 10.3615 14.4936L7.41785 15.0085H7.41768Z" fill="#6E6342"/>
<path fill-rule="evenodd" clip-rule="evenodd" d="M7.86052 16.1606C7.83769 16.2035 7.82696 16.2518 7.82946 16.3004C7.83458 16.3702 7.8554 16.4608 8.06498 16.6654C8.24366 16.8439 8.20475 17.0433 8.20475 17.0433C8.20475 17.0433 8.29469 17.0614 8.53875 16.9472C8.73041 16.8566 8.79475 17.0172 8.79475 17.0172C8.85054 16.9879 8.91101 16.9686 8.97344 16.9602C9.02999 16.9549 9.08474 16.9375 9.13386 16.909C9.13386 16.909 9.35914 17.1394 9.55592 17.2481C9.73461 17.344 9.8382 17.4087 9.92627 17.344C10.009 17.287 10.009 17.1704 10.0038 17.1187C9.98321 17.071 9.95721 17.0258 9.92627 16.9841C9.86926 16.9013 9.77864 16.8054 9.77267 16.7281C9.7597 16.5495 9.90732 16.3371 9.87609 16.2853C9.84486 16.2336 9.72864 16.2207 9.44123 16.3243C9.14359 16.4226 7.85932 16.1611 7.85932 16.1611L7.86052 16.1606Z" fill="#39331F"/>
<path fill-rule="evenodd" clip-rule="evenodd" d="M8.53838 17.3177C8.53838 17.3177 8.39093 17.1779 8.44264 16.4995C8.50524 16.4986 8.56775 16.5047 8.62901 16.5176C8.62901 16.5176 8.70939 17.0433 8.53838 17.3177Z" fill="#292311"/>
<path fill-rule="evenodd" clip-rule="evenodd" d="M7.48769 14.4906C7.50827 14.4754 7.52736 14.4583 7.5447 14.4394C7.4935 14.5352 7.25712 14.9183 7.44878 15.5216C7.64044 16.1222 8.12189 16.57 8.71479 16.5909C9.30768 16.6117 9.61932 16.3215 9.97567 15.8867C10.1154 15.7133 10.276 15.4957 10.4184 15.3482C10.6307 15.1177 10.7964 15.053 10.7964 14.8304C10.7964 14.3748 10.3303 14.1701 9.64424 13.9657C8.95816 13.7612 8.33932 13.7865 8.0183 13.9264C7.70512 14.079 7.57047 14.2396 7.48752 14.4908L7.48769 14.4906Z" fill="#252211"/>
<path fill-rule="evenodd" clip-rule="evenodd" d="M9.69094 17.5222L9.74214 17.4963C9.74214 17.4963 9.75494 17.2915 9.83789 17.2969C9.92066 17.3099 9.95957 17.4188 9.95172 17.4575C9.9466 17.4963 9.92595 17.5611 9.84301 17.5533C9.73429 17.5558 9.69043 17.5222 9.69043 17.5222H9.69094Z" fill="#3F3824"/>
<path fill-rule="evenodd" clip-rule="evenodd" d="M9.45996 16.6523C9.45996 16.6523 9.51116 16.6342 9.5738 16.6963C9.625 16.6963 9.84823 16.6704 9.9182 16.7144C9.98817 16.7584 10.0088 16.7972 10.0088 16.7972C10.0088 16.7972 9.74736 16.8542 9.60486 16.7972C9.45996 16.748 9.45996 16.6523 9.45996 16.6523H9.45996Z" fill="#2D2815"/>
<path fill-rule="evenodd" clip-rule="evenodd" d="M10.6124 16.691C10.6124 16.678 10.4726 16.5823 10.325 16.551C10.299 16.5459 10.2937 16.564 10.2738 16.564C10.2608 16.5589 10.2557 16.52 10.2557 16.52L10.1717 16.5642C10.1717 16.5642 10.1587 16.5823 10.2028 16.6154C10.2415 16.6464 10.3064 16.6724 10.3245 16.7241C10.3425 16.7758 10.3425 16.7939 10.3504 16.8017C10.3555 16.8068 10.4461 16.8017 10.4902 16.7758C10.5342 16.7498 10.6171 16.7075 10.6119 16.6905L10.6124 16.691Z" fill="#82764F"/>
<path fill-rule="evenodd" clip-rule="evenodd" d="M9.30469 17.2168C9.30469 17.2168 9.33046 17.0383 9.50403 17.0304C9.68254 17.0174 9.71634 17.1908 9.71634 17.1908L9.61274 17.2944C9.61274 17.2919 9.53509 17.1832 9.30554 17.2168H9.30469Z" fill="#2D2816"/>
<path fill-rule="evenodd" clip-rule="evenodd" d="M10.4307 16.4478C10.4307 16.4478 10.3348 16.5514 10.1226 16.5825C10.1045 16.5565 10.0656 16.5048 10.1226 16.422C10.1796 16.3393 10.2443 16.3133 10.309 16.3391C10.3673 16.3485 10.4148 16.391 10.4307 16.4478Z" fill="#574F35"/>
<path fill-rule="evenodd" clip-rule="evenodd" d="M10.8222 16.5748C10.8275 16.5489 10.8094 16.5438 10.8222 16.5308C10.835 16.5178 10.9051 16.4921 10.9181 16.5049C10.9232 16.5102 10.9181 16.5308 10.9181 16.5561C10.9181 16.5813 10.9181 16.6073 10.9051 16.6259C10.887 16.6518 10.8353 16.6648 10.8094 16.6571C10.7834 16.6494 10.7783 16.6131 10.7783 16.6059C10.7911 16.6008 10.8222 16.5878 10.8222 16.5748ZM11.2646 16.2952C11.2646 16.2822 11.3087 16.2563 11.3346 16.2563C11.3734 16.2563 11.3734 16.2873 11.3787 16.2952C11.3915 16.3003 11.3915 16.2899 11.4044 16.3133C11.4174 16.3367 11.4357 16.378 11.4225 16.4039C11.4094 16.4299 11.3578 16.4478 11.345 16.4427C11.3269 16.4297 11.2699 16.3133 11.2646 16.2952Z" fill="#82764F"/>
<path fill-rule="evenodd" clip-rule="evenodd" d="M10.374 16.6344C10.374 16.6344 10.431 16.6472 10.5087 16.712C10.4827 16.7301 10.4438 16.7508 10.4438 16.7508C10.4438 16.7508 10.4387 16.6912 10.374 16.6342V16.6344Z" fill="#6E6342"/>
<path fill-rule="evenodd" clip-rule="evenodd" d="M10.2472 16.0645C10.2342 16.0517 10.2859 16.0206 10.317 16.0257C10.348 16.0309 10.361 16.0517 10.3946 16.0568C10.4282 16.0619 10.4335 16.0438 10.4458 16.0309C10.4581 16.0179 10.5028 16.0257 10.5105 16.0309C10.5153 16.0365 10.5196 16.0426 10.5235 16.0489C10.5246 16.029 10.5339 16.0105 10.5492 15.9977C10.5694 15.983 10.5951 15.9782 10.6192 15.9848C10.6243 16.0029 10.6503 16.0675 10.6452 16.0805C10.64 16.0935 10.5624 16.1117 10.5492 16.0986C10.5622 16.1298 10.6192 16.1945 10.6269 16.2073C10.6346 16.2201 10.5699 16.2514 10.5441 16.2462C10.5079 16.2437 10.2852 16.1141 10.2465 16.065L10.2472 16.0645ZM10.586 15.6349C10.5812 15.6218 10.5721 15.6109 10.5601 15.6038C10.542 15.5987 10.4824 15.6038 10.4824 15.6349C10.4824 15.6659 10.5336 15.8397 10.5911 15.9301C10.656 16.0208 10.6999 16.0957 10.7439 16.1165C10.7726 16.1296 10.8065 16.1182 10.8215 16.0906C10.8267 16.0776 10.8396 15.9818 10.8345 15.7566C10.8294 15.5313 10.8215 15.3139 10.8086 15.3009C10.7956 15.2879 10.7439 15.2881 10.7258 15.3139C10.7077 15.3396 10.5911 15.5961 10.5858 15.6349H10.586Z" fill="#585136"/>
<path fill-rule="evenodd" clip-rule="evenodd" d="M10.356 16.9603C10.356 16.9603 10.2654 16.9033 10.1773 16.9422C10.0946 16.9812 10.0997 17.1339 10.0997 17.1339C10.1375 17.1487 10.1802 17.1438 10.2137 17.1209C10.2707 17.0822 10.343 17.0175 10.356 16.9605V16.9603Z" fill="#574F35"/>
<path fill-rule="evenodd" clip-rule="evenodd" d="M10.5268 17.1651C10.5217 17.1139 10.4756 17.1139 10.4756 17.0874C10.4821 17.0614 10.5056 17.0432 10.5324 17.0434C10.5584 17.0434 10.5836 17.0745 10.6154 17.0946C10.6464 17.1127 10.693 17.1458 10.6981 17.1852C10.7033 17.2246 10.6469 17.3327 10.5843 17.3327C10.5217 17.3327 10.5403 17.2161 10.5273 17.1644L10.5268 17.1651ZM11.027 17.0951C11.027 17.0951 10.9234 17.1262 10.9311 17.0951C10.9388 17.0641 10.9623 17.0564 10.9959 17.0564C11.013 17.0385 11.036 17.0274 11.0606 17.0252C11.0747 17.0245 11.0885 17.0291 11.0993 17.0381C11.0993 17.0381 11.1693 17.0071 11.19 17.0252C11.2106 17.0433 11.1953 17.0433 11.2081 17.0641C11.2244 17.0872 11.2351 17.1138 11.2393 17.1417C11.2393 17.1624 11.1616 17.2064 11.0993 17.1987C11.027 17.1832 11.0398 17.1081 11.027 17.0951ZM11.6295 16.9786C11.6295 16.9786 11.6605 16.9967 11.6348 17.0175C11.6167 17.0356 11.5261 17.0687 11.4482 17.0745C11.3706 17.0745 11.3008 17.0873 11.3008 17.0616C11.3008 17.0358 11.3655 16.9839 11.4042 16.9709C11.4199 16.9512 11.4438 16.9398 11.4691 16.9399C11.5001 16.9399 11.6216 16.9269 11.6554 16.9218C11.6865 16.9165 11.7124 16.9346 11.6942 16.9605C11.6865 16.9786 11.6295 16.9786 11.6295 16.9786ZM11.8081 16.1791C11.8081 16.1791 11.7692 16.2619 11.7253 16.2619C11.6813 16.2568 11.6813 16.2438 11.6813 16.2309C11.6813 16.2128 11.7253 16.1662 11.72 16.1532C11.7072 16.1532 11.676 16.1532 11.6813 16.1221C11.6813 16.0962 11.7253 16.0651 11.764 16.0709C11.7933 16.0469 11.8298 16.0333 11.8676 16.0322C11.9117 16.0322 11.9504 16.045 11.9504 16.0709C11.9504 16.0969 11.8992 16.1537 11.8804 16.1669C11.8598 16.1875 11.8338 16.201 11.8081 16.1797V16.1791ZM11.2182 17.7092C11.2182 17.7092 11.167 17.7145 11.167 17.7403C11.167 17.7532 11.1798 17.7532 11.1981 17.7455C11.2086 17.7449 11.219 17.7432 11.2291 17.7403C11.2342 17.7455 11.2342 17.7713 11.2731 17.7713C11.3051 17.767 11.3359 17.7564 11.3638 17.7403C11.3948 17.7275 11.4208 17.7143 11.4208 17.6891C11.4078 17.645 11.3819 17.6242 11.3431 17.6242C11.3233 17.6229 11.3035 17.6274 11.2861 17.6372C11.2861 17.6372 11.2731 17.6112 11.2291 17.6372C11.1851 17.6631 11.1902 17.6631 11.2032 17.6761C11.2264 17.6967 11.2187 17.7102 11.2187 17.7102L11.2182 17.7092ZM10.9258 17.9783C10.9258 17.9653 10.9905 17.9394 11.0086 17.9472C11.0267 17.9523 11.0784 18.0506 11.0784 18.0611C11.0784 18.074 11.0137 18.1051 10.9878 18.1051C10.9618 18.1051 10.918 18.0611 10.918 18.0539C10.918 18.0488 10.949 18.0411 10.949 18.0358C10.9567 18.023 10.9258 17.9918 10.9258 17.9788V17.9783ZM10.7202 17.6006C10.7332 17.5955 10.7332 17.5825 10.7513 17.5695C10.7628 17.5619 10.7771 17.56 10.7902 17.5644C10.7994 17.5479 10.8156 17.5365 10.8342 17.5332C10.8653 17.5281 10.8912 17.5332 10.8854 17.5461C10.8854 17.5851 10.9114 17.6108 10.9114 17.6419C10.9114 17.673 10.8933 17.7119 10.8286 17.7378C10.7639 17.7559 10.6758 17.7559 10.6629 17.7508C10.6499 17.7457 10.6369 17.6938 10.6499 17.6678C10.6629 17.6419 10.6991 17.6136 10.7199 17.6006H10.7202Z" fill="#82764F"/>
<path fill-rule="evenodd" clip-rule="evenodd" d="M10.8031 17.618C10.8031 17.618 10.7591 17.644 10.7591 17.657C10.7552 17.6695 10.7535 17.6826 10.754 17.6957C10.754 17.7034 10.811 17.6906 10.8187 17.6827C10.8212 17.6776 10.8031 17.6315 10.8031 17.618Z" fill="#6E6342"/>
<path fill-rule="evenodd" clip-rule="evenodd" d="M10.418 17.4964C10.4438 17.5017 10.4878 17.4964 10.5214 17.5094C10.5474 17.5223 10.5654 17.5483 10.5395 17.5793C10.5136 17.6104 10.4883 17.657 10.4308 17.6491C10.3661 17.644 10.304 17.6104 10.304 17.5844C10.3018 17.5513 10.313 17.5187 10.335 17.4938C10.361 17.4732 10.3738 17.4861 10.4178 17.4964H10.418Z" fill="#585136"/>
<path fill-rule="evenodd" clip-rule="evenodd" d="M10.3875 17.5224C10.3875 17.5224 10.3047 17.5871 10.2839 17.6183C10.258 17.6494 10.1312 17.8098 10.0924 17.8434C10.1053 17.8207 10.12 17.7991 10.1363 17.7787C10.0851 17.8115 10.0467 17.8608 10.0276 17.9185C9.99652 18.0144 10.2011 18.0661 10.3356 18.1051C10.4701 18.144 10.5222 18.1563 10.5222 18.1563C10.4727 18.0818 10.4301 18.003 10.3952 17.9207C10.344 17.7991 10.3175 17.7861 10.3512 17.7291C10.3771 17.6721 10.416 17.6333 10.416 17.5893C10.4005 17.5483 10.3875 17.5224 10.3875 17.5224Z" fill="#574F35"/>
<path fill-rule="evenodd" clip-rule="evenodd" d="M7.43589 17.7268C7.45473 17.7303 7.47405 17.7303 7.49289 17.7268C7.53163 17.7215 7.9356 17.5732 8.35766 17.5998C8.67362 17.6189 8.98678 17.6704 9.29223 17.7534C9.823 17.8932 10.4831 18.1702 10.9103 18.3282C11.0242 18.3721 11.1356 18.4499 11.2175 18.4808C11.5438 18.6078 11.5566 18.6078 11.7483 18.6414C11.9736 18.6725 12.204 18.5974 12.4448 18.5456C12.7399 18.4808 13.2447 18.4497 13.6874 18.3851C13.8306 18.3652 13.9718 18.3332 14.1095 18.2893C14.1095 18.2893 13.7574 18.6414 12.9133 18.7682C12.5721 18.82 12.2253 18.8244 11.8829 18.7812C11.6136 18.7552 11.4351 18.7163 11.3005 18.6776C11.1477 18.6335 10.8344 18.517 10.4487 18.4216C10.1794 18.3516 9.87898 18.2999 9.53475 18.2352C8.68551 18.0797 7.76391 17.9012 7.43555 17.7278L7.43589 17.7268Z" fill="#252211"/>
<path fill-rule="evenodd" clip-rule="evenodd" d="M6.48311 16.1269C6.27831 16.3003 6.06105 16.466 5.84891 16.6264L5.20942 17.1178C4.99199 17.2782 4.77968 17.4439 4.56208 17.6045C4.34448 17.7651 4.12723 17.9177 3.89648 18.0653C4.10128 17.8919 4.31854 17.7313 4.53597 17.5735C4.7534 17.4156 4.97885 17.2608 5.1886 17.1007L5.82809 16.6087C6.04808 16.4483 6.26039 16.2825 6.48311 16.1272V16.1269ZM5.35173 17.939C5.35173 17.939 5.58213 17.7474 5.86954 17.4782C6.22674 17.1444 6.66433 16.7171 6.80411 16.6396L5.35156 17.9392L5.35173 17.939Z" fill="#CFB66C"/>
<path fill-rule="evenodd" clip-rule="evenodd" d="M5.35156 17.9391C5.46557 17.8252 5.58725 17.714 5.70894 17.6051L5.89531 17.4447C5.95231 17.3935 6.01716 17.3359 6.07399 17.2789C6.18783 17.1651 6.29927 17.0432 6.41311 16.9268C6.46953 16.8683 6.52919 16.813 6.5918 16.7611C6.6231 16.7334 6.65786 16.7099 6.69522 16.6912C6.72645 16.6731 6.76007 16.64 6.80394 16.6342C6.77817 16.6731 6.7471 16.6912 6.72116 16.7248C6.6901 16.7507 6.66416 16.7818 6.63839 16.8076C6.58139 16.8646 6.5167 16.9163 6.4597 16.9681C6.33802 17.0717 6.21121 17.1729 6.08953 17.2813C5.96784 17.3897 5.85401 17.5066 5.73215 17.6153C5.60022 17.7268 5.47854 17.8355 5.35156 17.9396V17.9391ZM6.90033 16.9037C6.90033 16.9037 6.05638 17.7297 5.88281 17.8642L6.90033 16.9037Z" fill="#CFB66C"/>
<path fill-rule="evenodd" clip-rule="evenodd" d="M6.89935 16.9033C6.82343 16.9911 6.74203 17.0741 6.65564 17.1517L6.39964 17.3951C6.31687 17.4779 6.23904 17.5608 6.15115 17.6436C6.06052 17.7213 5.97775 17.7972 5.88184 17.8689L6.13033 17.6255C6.21327 17.5427 6.30389 17.4729 6.39196 17.39L6.64045 17.1466C6.72578 17.0613 6.80873 16.9784 6.89935 16.9033ZM6.93802 17.3511C6.86023 17.5682 6.76856 17.7801 6.66359 17.9855C6.44616 18.4205 6.12001 18.9641 5.97751 19.2412L6.93802 17.3511Z" fill="#CFB66C"/>
<path fill-rule="evenodd" clip-rule="evenodd" d="M6.93842 17.3514C6.93842 17.4472 6.91248 17.5301 6.88142 17.6129C6.85114 17.6957 6.81662 17.777 6.77799 17.8563C6.73908 17.9339 6.69505 18.0169 6.65102 18.092C6.60699 18.1671 6.55527 18.2445 6.51636 18.3224L6.2549 18.7832C6.16428 18.9368 6.07621 19.0912 5.98047 19.2388C6.04515 19.0731 6.13322 18.9178 6.21616 18.7651C6.30678 18.6115 6.38956 18.4579 6.47216 18.299C6.51249 18.2198 6.54877 18.1386 6.58087 18.0558C6.61962 17.9728 6.65836 17.8952 6.68959 17.8201C6.72833 17.7373 6.75939 17.6595 6.7983 17.5846C6.84216 17.5042 6.87852 17.4265 6.93808 17.3514L6.93842 17.3514Z" fill="#CFB66C"/>
<path fill-rule="evenodd" clip-rule="evenodd" d="M7.86013 19.4745C7.86013 19.4745 7.60413 19.8137 7.62973 20.2434C7.69953 20.0183 7.7876 19.6739 7.86013 19.4745ZM8.10322 19.8144C8.10322 19.8144 8.01259 20.736 7.9375 21.1891C8.04365 20.6653 8.06431 20.7094 8.10322 19.8144ZM9.7992 21.2435C9.7992 21.2435 9.41605 22.3699 9.4082 22.6829C9.49115 22.361 9.65157 21.7034 9.7992 21.2426V21.2435Z" fill="#DEC270"/>
<path fill-rule="evenodd" clip-rule="evenodd" d="M10.6953 19.4047C10.6953 19.4047 11.3167 20.4299 11.7828 21.3049C11.6567 20.8646 11.3665 20.057 10.6953 19.4047Z" fill="#CBAF59"/>
<path fill-rule="evenodd" clip-rule="evenodd" d="M12.3652 20.9139C12.7064 21.517 13.0141 22.1384 13.2868 22.7754C13.2351 22.3353 13.0952 21.5819 12.3652 20.9139Z" fill="#E3C677"/>
<path fill-rule="evenodd" clip-rule="evenodd" d="M17.2737 22.4253C17.3771 22.3607 17.5817 22.0084 17.7604 21.9205C17.9389 21.8299 18.0736 21.8118 18.2342 21.6331C18.3946 21.4466 18.439 21.3327 18.7907 21.1853C19.2827 20.9728 18.9443 20.6984 18.9443 20.6984C18.9985 20.6451 19.0565 20.5958 19.1177 20.5509C19.2447 20.4552 19.3921 20.3386 19.3793 20.134C19.3613 19.7897 19.2966 19.29 19.0143 19.0001C19.2887 18.9431 19.8142 18.9043 20.1407 18.8215C20.5185 18.7256 20.6921 18.591 20.6921 18.591C20.6921 18.591 20.4747 18.2208 20.8268 17.8481C21.1789 17.4753 21.4663 17.2526 21.6786 16.8357C21.4352 16.8046 21.0642 16.6752 20.1173 17.035C20.1684 17.059 20.2178 17.0867 20.2649 17.1178C20.2649 17.1178 19.6824 17.2784 19.4701 17.4571C19.0998 17.7702 19.0532 18.0266 18.652 18.2182C18.2507 18.4099 17.8468 18.358 17.5129 18.5133C17.1791 18.6686 17.1298 18.8007 17.0079 18.8577C17.0339 18.8888 17.0028 18.9405 17.052 18.9845C17.0209 19.0286 16.8397 19.3236 16.6558 19.3236C16.6739 19.3936 16.8292 19.4453 16.8292 19.4453C16.8292 19.4453 16.7154 19.5283 16.4254 19.5489C16.5729 19.7025 16.7128 19.8699 17.0986 20.1133C17.0675 20.178 16.938 20.2739 16.9898 20.3956C17.0468 20.5173 17.1946 20.683 17.7846 20.8177C17.4843 20.8305 17.1323 20.9004 16.6582 20.8357C16.1845 20.7787 16.1068 20.7451 15.8143 20.8177C15.8453 20.8487 15.9281 20.8487 16.0007 20.9315C15.923 20.9366 15.4363 20.8745 15.2705 21.0921C15.0971 21.3172 15.0221 21.6875 15.035 21.936C14.9444 21.9801 14.8563 22.0577 14.9004 22.2183C14.9444 22.3789 15.1748 22.4306 15.3224 22.5315C15.4699 22.6402 15.4829 22.6789 15.6228 22.6532C15.7703 22.6221 15.9877 22.4747 16.1147 22.4747C16.2416 22.4747 16.3321 22.5704 16.3321 22.5704C16.3321 22.5704 16.6765 22.4047 16.7101 22.4357C16.7412 22.4668 16.7152 22.6661 16.7489 22.6972C16.783 22.7206 17.1709 22.4902 17.2745 22.4253H17.2737Z" fill="#ECD592"/>
<path fill-rule="evenodd" clip-rule="evenodd" d="M24.8002 12.0645C23.1821 7.8859 19.182 7.11176 19.182 7.11176H7.7697L7.81373 11.368H10.0865V20.8723H7.76953V25.1208H18.8661C21.5405 25.1208 23.6842 22.4334 23.6842 22.4334C27.1172 17.561 24.8 12.0645 24.8 12.0645H24.8002ZM18.9257 19.5699C18.9257 19.5699 18.0553 20.8257 17.1082 20.8257H15.2138L15.1689 11.3784H17.6001C17.6001 11.3784 18.7265 11.6139 19.5134 13.843C19.5134 13.843 20.5567 17.0345 18.9257 19.5699Z" fill="white" fill-opacity="0.8"/>
</svg>
