<svg width="28" height="28" viewBox="0 0 28 28" fill="none" xmlns="http://www.w3.org/2000/svg">
<circle cx="14" cy="14" r="14" fill="#EDF0F4"/>
<path d="M14.1237 10.5327L17.1096 12.3336L14.1237 14.0407L11.0029 12.3336L14.1237 10.5327Z" fill="#EA259E"/>
<path d="M11.0029 12.3979L14.1237 14.0991L14.1061 17.5719L11.0029 15.9294V12.3979Z" fill="#014C99"/>
<path d="M14.124 14.0991L17.1451 12.3979L17.2331 15.9294L14.1651 17.6364L14.124 14.0991Z" fill="#08B0F9"/>
<path fill-rule="evenodd" clip-rule="evenodd" d="M20.3306 10.3156L20.2836 10.2863L17.3036 8.57925L14.1828 6.79007L14.1417 6.7666L14.1065 6.7842C14.0479 6.80514 13.9911 6.83063 13.9364 6.86046L11.2145 8.45019L7.84734 10.4212C7.71185 10.4833 7.71219 10.6215 7.7124 10.7102L7.71242 10.7204V10.7849L7.70655 15.7829L7.70069 17.6366C7.69482 17.7481 7.74175 17.8478 7.82388 17.883L11.6956 20.0828L13.9834 21.3851C14.0303 21.4144 14.0831 21.432 14.13 21.432C14.1702 21.4338 14.2096 21.4214 14.2415 21.3968L17.55 19.4903L20.3658 17.8713C20.4713 17.8243 20.5359 17.7187 20.5183 17.619L20.53 10.5972C20.5476 10.433 20.4127 10.3567 20.3306 10.3156ZM14.1184 10.7612L16.8462 12.3451L14.1243 13.9114L13.1974 13.3893L11.3672 12.351L14.1184 10.7612ZM14.2589 10.4095L17.2154 12.1283L19.9725 10.5386L17.7551 9.2656L14.124 7.18311L10.176 9.48851L8.27539 10.5972L10.9973 12.14L13.989 10.4036C14.0712 10.3485 14.1792 10.3508 14.2589 10.4095ZM8.0879 10.9199L10.7981 12.4569L10.8509 15.8358C10.845 15.9414 10.8978 16.0352 10.9799 16.0763L12.7808 17.1087L13.9365 17.7716V20.9335L8.07617 17.6015L8.0879 10.9199ZM13.9427 14.2342L11.1738 12.668L11.2266 15.7888L13.9368 17.3433L13.9427 14.2342ZM14.3115 17.7775L15.4672 17.1088L17.2505 16.0881L17.2681 16.0764C17.3033 16.0588 17.3443 16.0294 17.3737 15.9884L17.3913 15.9649V15.9356L17.3854 13.6947V12.4628L20.1542 10.8613V13.5891L20.1484 17.5664L16.4351 19.7017L14.3057 20.9277L14.3115 17.7775ZM14.3115 14.2342V17.3492L17.0393 15.7829V12.6621L14.3115 14.2342Z" fill="#2F2F2F"/>
<path fill-rule="evenodd" clip-rule="evenodd" d="M14.0419 7.54696C13.9598 7.55869 13.8894 7.61148 13.8542 7.68188C13.819 7.764 13.8249 7.852 13.8659 7.91066C13.9128 7.98105 13.9891 8.02212 14.0771 8.02212C14.0928 8.02103 14.1085 8.01907 14.124 8.01625C14.2238 8.00452 14.3 7.93412 14.3176 7.84613C14.3425 7.76777 14.3222 7.6821 14.2648 7.62322C14.2089 7.56065 14.1244 7.53175 14.0419 7.54696ZM14.2003 8.57342C14.1123 8.52649 14.0126 8.53235 13.9422 8.57928C13.8777 8.61448 13.8366 8.68487 13.8249 8.76113C13.819 8.84326 13.8542 8.91365 13.9011 8.95472C13.9469 8.99823 14.0082 9.02149 14.0713 9.01925C14.1077 9.01863 14.1436 9.01065 14.1768 8.99578C14.2707 8.96058 14.3235 8.87259 14.3235 8.7846C14.3294 8.70247 14.2766 8.62035 14.2003 8.57342ZM13.9481 9.57097C14.0243 9.52991 14.124 9.52991 14.2062 9.58271C14.2821 9.62648 14.3263 9.70978 14.3201 9.79721C14.3139 9.88463 14.2582 9.9608 14.1768 9.99334C14.1436 10.0082 14.1077 10.0162 14.0712 10.0168C14.0165 10.019 13.9627 10.0024 13.9187 9.96987C13.8542 9.92881 13.819 9.84082 13.8249 9.75869C13.8307 9.67656 13.8777 9.60617 13.9481 9.57097ZM10.223 16.1587C10.135 16.1822 10.0705 16.2526 10.0529 16.3406C10.0353 16.4344 10.0646 16.5224 10.1292 16.5752C10.1698 16.6103 10.2221 16.6292 10.2758 16.628C10.2936 16.6281 10.3113 16.6261 10.3286 16.6221C10.4049 16.6045 10.4694 16.5517 10.4929 16.4872C10.5339 16.4051 10.5222 16.3054 10.4518 16.2291C10.3965 16.1619 10.3065 16.1342 10.223 16.1587ZM17.8603 16.622C17.8415 16.6288 17.8217 16.6327 17.8017 16.6338C17.743 16.6338 17.6902 16.6162 17.655 16.5751C17.5905 16.5223 17.5553 16.4343 17.5729 16.3405C17.5905 16.2525 17.655 16.1821 17.7371 16.1586C17.823 16.1308 17.9172 16.1561 17.9777 16.2231C18.0422 16.2994 18.0598 16.405 18.0187 16.493C18.0011 16.5516 17.9366 16.6044 17.8603 16.622ZM9.36624 16.6629C9.27825 16.6922 9.21959 16.7743 9.21372 16.8682C9.20199 16.9679 9.24892 17.0618 9.32518 17.1028C9.36023 17.1253 9.40087 17.1375 9.4425 17.138C9.47702 17.1373 9.511 17.1293 9.54223 17.1146C9.61849 17.0794 9.67128 17.009 9.67715 16.9444C9.69475 16.8565 9.65955 16.7626 9.58916 16.7039C9.52911 16.6481 9.44222 16.6321 9.36624 16.6629ZM18.7166 17.1205C18.6902 17.1294 18.6624 17.1334 18.6345 17.1323C18.5817 17.1336 18.5301 17.117 18.4878 17.0853C18.4225 17.0278 18.3915 16.9405 18.4058 16.8546C18.4201 16.7687 18.4777 16.6962 18.5582 16.663C18.6389 16.6318 18.7304 16.65 18.7929 16.7099C18.8633 16.7744 18.8867 16.8624 18.8633 16.9504C18.8574 17.0208 18.7988 17.0912 18.7166 17.1205ZM8.7211 17.1851C8.65071 17.144 8.56272 17.144 8.49819 17.1851C8.42193 17.2262 8.375 17.3024 8.375 17.3963C8.375 17.4901 8.42193 17.5723 8.49819 17.6075C8.53008 17.6266 8.56658 17.6368 8.60378 17.6368C8.64926 17.6375 8.69401 17.6253 8.73284 17.6016C8.8091 17.5488 8.85016 17.4608 8.84429 17.3846C8.84429 17.3024 8.79736 17.2262 8.7211 17.1792V17.1851ZM19.4736 17.6366C19.4218 17.6369 19.3716 17.6181 19.3328 17.5838C19.2741 17.5427 19.2389 17.4665 19.2448 17.3843C19.2483 17.3025 19.2923 17.2277 19.3621 17.1849C19.4325 17.138 19.5264 17.138 19.6026 17.1908C19.6848 17.2435 19.7258 17.3374 19.7082 17.4313C19.7024 17.5017 19.6437 17.5838 19.5616 17.619C19.5337 17.6306 19.5038 17.6366 19.4736 17.6366Z" fill="#2F2F2F"/>
</svg>
