<svg width="174" height="51" viewBox="0 0 174 51" fill="none" xmlns="http://www.w3.org/2000/svg">
<path d="M8.88406 43.9263L1 46.4526V51H172.5V15.6316L168 9.06316L162 19.6737L158.5 22.7053L152.5 16.1368L149 7.54737L143.5 5.52632L137 16.1368L134.043 13.6105L127.145 17.1474L122.217 30.7895L118.275 23.2105L112.855 21.1895L110.884 13.6105L102.507 15.6316L95.6087 3L92.5 12.6L84.5 16.1368L82.5 25.2316L75.5 28.7684L70 22.7053L67.5 32.3053L61.6087 39.8842L55.2029 34.8316L50.7681 37.3579L48.7971 28.7684L43.3768 23.2105L39.9275 30.7895L33.029 35.8421L26.6232 33.8211L20.2174 39.8842L13.3188 38.3684L8.88406 43.9263Z" fill="url(#paint0_linear_62_413)"/>
<path d="M1 46L8.88406 43.5L13.3188 38L20.2174 39.5L26.6232 33.5L33.029 35.5L39.9275 30.5L43.3768 23L48.7971 28.5L50.7681 37L55.2029 34.5L61.6087 39.5L67.5 32L70 22.5L75.5 28.5L82.5 25L84.5 16L92.5 12.5L95.6087 3L102.507 15.5L110.884 13.5L112.855 21L118.275 23L122.217 30.5L127.145 17L134.043 13.5L137 16L143.5 5.5L149 7.5L152.5 16L158.5 22.5L162 19.5L168 9L172.5 15.5" stroke="#5BC08E" stroke-width="2"/>
<defs>
<linearGradient id="paint0_linear_62_413" x1="86.75" y1="-15.0684" x2="86.8042" y2="57" gradientUnits="userSpaceOnUse">
<stop stop-color="#57E8A0" stop-opacity="0.32"/>
<stop offset="1" stop-color="#57E8A0" stop-opacity="0"/>
</linearGradient>
</defs>
</svg>
