<svg width="28" height="28" viewBox="0 0 28 28" fill="none" xmlns="http://www.w3.org/2000/svg">
<circle cx="14" cy="14" r="14" fill="#E7EFF3"/>
<path fill-rule="evenodd" clip-rule="evenodd" d="M17.9799 7C16.3149 6.99871 14.9633 8.3458 14.959 10.0108V13.349C14.6479 13.37 14.3298 13.3832 14 13.3832C13.6702 13.3832 13.3537 13.3964 13.041 13.4151V10.0108C13.0145 8.3615 11.67 7.03836 10.0205 7.03836C8.37101 7.03836 7.02647 8.3615 7 10.0108V17.9892C7.02647 19.6385 8.37101 20.9616 10.0205 20.9616C11.67 20.9616 13.0145 19.6385 13.041 17.9892V14.651C13.3521 14.63 13.6702 14.6168 14 14.6168C14.3298 14.6168 14.6463 14.6036 14.959 14.5849V17.9892C14.9855 19.6385 16.33 20.9616 17.9795 20.9616C19.629 20.9616 20.9735 19.6385 21 17.9892V10.0108C20.9957 8.34611 19.6446 6.99914 17.9799 7ZM10.0198 8.23339C11.0024 8.23296 11.7999 9.02803 11.8025 10.0106V13.5456C10.9187 13.6737 10.0557 13.9177 9.23579 14.2713C8.88053 14.4272 8.5461 14.6268 8.24023 14.8655V10.0106C8.2428 9.02924 9.03841 8.23468 10.0198 8.23339ZM10.0209 19.7719C11.0055 19.7719 11.8036 18.9738 11.8036 17.9892V14.791C11.0926 14.907 10.3985 15.11 9.73706 15.3953C8.79828 15.8122 8.23828 16.4819 8.23828 17.1889V17.9892C8.23828 18.9738 9.03641 19.7719 10.0209 19.7719ZM17.98 19.7664C16.9974 19.7669 16.1999 18.9718 16.1973 17.9892V14.4542C17.081 14.3262 17.944 14.0822 18.764 13.7286C19.1192 13.5726 19.4537 13.373 19.7595 13.1343V17.9892C19.757 18.9706 18.9613 19.7652 17.98 19.7664ZM16.1973 13.2043C16.9083 13.0883 17.6024 12.8854 18.2639 12.6C19.2026 12.1847 19.7626 11.515 19.7626 10.8111V10.0108C19.7626 9.02623 18.9645 8.22811 17.98 8.22811C16.9954 8.22811 16.1973 9.02623 16.1973 10.0108V13.2043Z" fill="url(#paint0_linear_170_4001)"/>
<defs>
<linearGradient id="paint0_linear_170_4001" x1="13.9768" y1="25.9948" x2="26.1234" y2="13.8146" gradientUnits="userSpaceOnUse">
<stop stop-color="#00AEE9"/>
<stop offset="1" stop-color="#69FABD"/>
</linearGradient>
</defs>
</svg>
