<svg width="24" height="21" viewBox="0 0 24 21" fill="none" xmlns="http://www.w3.org/2000/svg">
<path d="M9.40631 11.9226C8.79937 14.7512 6.37161 16.9512 3.33691 16.9512V20.0941C8.19243 20.0941 11.8341 16.6369 12.7445 11.9226H9.40631Z" fill="black"/>
<path d="M9.40631 8.46515H12.7445C12.1376 3.75086 8.19243 0.293701 3.33691 0.293701V3.43656C6.37161 3.43656 8.79937 5.63658 9.40631 8.46515Z" fill="black"/>
<path d="M3.0347 0.29541H0V20.0954H3.0347V0.29541Z" fill="black"/>
<path d="M14.261 8.46564H10.9229C11.5298 3.75135 15.4749 0.294189 20.3304 0.294189V3.43705C17.5992 3.43705 14.868 5.63707 14.261 8.46564Z" fill="black"/>
<path d="M23.3658 0.293457H20.3311V20.0934H23.3658V0.293457Z" fill="black"/>
</svg>
