<svg width="32" height="32" viewBox="0 0 32 32" fill="none" xmlns="http://www.w3.org/2000/svg">
<circle cx="16" cy="16.001" r="16" fill="#EDF0F4"/>
<path d="M16.0688 5.33447C11.62 5.35234 8.01787 8.95447 8 13.4033C8 14.2943 8.14381 15.1793 8.42548 16.0243C8.63567 16.5995 9.25943 16.9093 9.84489 16.7314C10.4108 16.5144 10.7112 15.8958 10.5308 15.3171C10.2916 14.6585 10.1853 13.9598 10.2168 13.2603C10.3138 10.0471 12.9969 7.5206 16.2101 7.61761C19.4233 7.71462 21.9498 10.3977 21.8528 13.6109C21.7618 16.6191 19.3927 19.0622 16.3879 19.2452C16.3879 19.2452 15.2553 19.3141 14.692 19.383C14.4843 19.4128 14.2784 19.4536 14.075 19.5056C14.0461 19.5353 13.9993 19.5353 13.9695 19.5064L13.9687 19.5056C13.9482 19.4792 13.9482 19.4417 13.9687 19.4154L14.144 18.4589L15.2077 13.6748C15.3353 13.0774 14.9549 12.4894 14.3575 12.3617C13.7602 12.2341 13.1722 12.6145 13.0445 13.2118C13.0445 13.2118 10.5146 24.9219 10.5146 25.0283C10.3699 25.5976 10.7137 26.1763 11.283 26.3209C11.289 26.3226 11.2958 26.3243 11.3017 26.3252H11.3605C11.9289 26.4724 12.5093 26.1303 12.6556 25.5619C12.6582 25.5525 12.6607 25.5431 12.6624 25.5329C12.6607 25.5151 12.6607 25.4972 12.6624 25.4802C12.6939 25.3423 13.013 23.7842 13.013 23.7842C13.2547 22.6082 14.2027 21.707 15.3889 21.5249C15.6331 21.4875 16.6594 21.4185 16.6594 21.4185C21.0912 20.9769 24.3257 17.0259 23.8832 12.594C23.4799 8.55196 20.1313 5.43999 16.0688 5.33447Z" fill="#1E1E1E"/>
<path d="M16.5583 23.9392C15.8307 23.7877 15.1193 24.2549 14.9679 24.9816C14.9662 24.9884 14.9653 24.9952 14.9636 25.002C14.8062 25.7245 15.264 26.4384 15.9873 26.5959C15.9882 26.5959 15.989 26.5959 15.9899 26.5967H16.0273C16.7353 26.7678 17.4476 26.3321 17.6178 25.6249C17.6195 25.6198 17.6203 25.6139 17.622 25.6087V25.5347C17.7471 24.8046 17.2808 24.1042 16.5583 23.9392Z" fill="#E6007A"/>
</svg>
