<svg width="32" height="32" viewBox="0 0 32 32" fill="none" xmlns="http://www.w3.org/2000/svg">
<circle cx="16" cy="15.9998" r="16" fill="#EDF0F4"/>
<path d="M20.801 12.7864C20.4599 12.5901 20.0212 12.5901 19.6313 12.7864L16.902 14.4054L15.0499 15.4356L12.3693 17.0546C12.0282 17.2509 11.5895 17.2509 11.1996 17.0546L9.10389 15.779C8.76273 15.5828 8.51904 15.1903 8.51904 14.7488V12.2958C8.51904 11.9033 8.71399 11.5108 9.10389 11.2655L11.1996 10.039C11.5408 9.84275 11.9794 9.84275 12.3693 10.039L14.4651 11.3146C14.8062 11.5108 15.0499 11.9033 15.0499 12.3448V13.9638L16.902 12.8845V11.2164C16.902 10.824 16.707 10.4315 16.3171 10.1862L12.4181 7.88034C12.0769 7.68409 11.6383 7.68409 11.2484 7.88034L7.25185 10.2352C6.86194 10.4315 6.66699 10.824 6.66699 11.2164V15.8281C6.66699 16.2206 6.86194 16.6131 7.25185 16.8584L11.1996 19.1642C11.5408 19.3605 11.9794 19.3605 12.3693 19.1642L15.0499 17.5943L16.902 16.515L19.5826 14.945C19.9237 14.7488 20.3624 14.7488 20.7523 14.945L22.848 16.1715C23.1892 16.3678 23.4329 16.7603 23.4329 17.2018V19.6548C23.4329 20.0473 23.2379 20.4398 22.848 20.6851L20.801 21.9116C20.4599 22.1078 20.0212 22.1078 19.6313 21.9116L17.5356 20.6851C17.1944 20.4888 16.9507 20.0964 16.9507 19.6548V18.0849L15.0987 19.1642V20.7832C15.0987 21.1757 15.2936 21.5682 15.6835 21.8135L19.6313 24.1193C19.9725 24.3155 20.4111 24.3155 20.801 24.1193L24.7488 21.8135C25.09 21.6172 25.3337 21.2247 25.3337 20.7832V16.1225C25.3337 15.73 25.1387 15.3375 24.7488 15.0922L20.801 12.7864Z" fill="#8247E5"/>
</svg>
