<svg width="22" height="22" viewBox="0 0 22 22" fill="none" xmlns="http://www.w3.org/2000/svg">
<circle cx="11" cy="11" r="10.5" fill="#1347E8"/>
<path fill-rule="evenodd" clip-rule="evenodd" d="M11.0877 3.8252C7.07681 3.8252 3.8252 7.07681 3.8252 11.0877C3.8252 15.0986 7.07681 18.3502 11.0877 18.3502C15.0986 18.3502 18.3502 15.0986 18.3502 11.0877C18.3502 7.07681 15.0986 3.8252 11.0877 3.8252ZM17.9804 10.7908L17.3928 10.7967L17.3901 10.5504L17.9784 10.5452L17.981 10.7908H17.9804ZM17.8298 9.5212L17.8298 9.52118V9.52184L17.8298 9.5212ZM17.7955 9.27756L17.8298 9.5212L17.2469 9.60239L17.2132 9.35811L17.7955 9.27756ZM17.3282 7.97478L17.4299 8.19926L16.8945 8.44222L16.7928 8.2184L17.3276 7.97478H17.3282ZM16.7562 7.04045L16.5938 6.85559L16.1521 7.2438L16.3138 7.42866L16.7562 7.04045ZM15.7329 5.93576L15.919 6.09686L15.5355 6.54185L15.3486 6.38141L15.7329 5.93576ZM14.9116 5.23891L14.7056 5.10488L14.3854 5.59873L14.5914 5.7321L14.9116 5.23891ZM13.5375 4.5282L13.7758 4.59092L13.6266 5.15937L13.3883 5.09665L13.5382 4.52886L13.5375 4.5282ZM12.4975 4.23242L12.2526 4.21262L12.2037 4.79824L12.4487 4.8187L12.4975 4.23242ZM10.9231 4.05747H11.1687V4.64573H10.9231V4.05747ZM9.88066 4.7984L9.83181 4.21277L9.5862 4.23324L9.63506 4.81952L9.88066 4.7984ZM8.54655 4.5282L8.69577 5.09665L8.45808 5.15937L8.30821 4.59158L8.54589 4.5282H8.54655ZM7.69901 5.59873L7.3788 5.10488L7.17215 5.23891L7.49236 5.7321L7.69901 5.59873ZM6.35153 5.93642L6.73512 6.38141L6.54893 6.54185L6.16534 6.09686L6.35153 5.93576V5.93642ZM5.93328 7.24234L5.49093 6.85412V6.85478L5.32851 7.03965L5.7702 7.4272L5.93328 7.24234ZM4.75711 7.97399L5.2919 8.21762L5.19088 8.44209L4.65544 8.19781L4.75711 7.97399ZM4.87281 9.35746L4.28983 9.27691V9.27625L4.25616 9.52054L4.83848 9.60175L4.87281 9.35746ZM4.10762 10.5442L4.69522 10.5495L4.69324 10.7957L4.10563 10.7898L4.10762 10.5442ZM4.74612 11.8663L4.16116 11.9257L4.18559 12.17L4.77055 12.1105L4.74612 11.8663ZM4.42762 13.1759L5.0007 13.0425L5.05682 13.2822L4.48374 13.4156L4.42762 13.1759ZM4.94648 14.456L5.06796 14.6699L5.57898 14.3781L5.45684 14.1642L4.94648 14.456ZM5.90212 15.7181L5.72319 15.549L6.12791 15.1219L6.30617 15.2909L5.90212 15.7181ZM6.64243 16.412L6.84248 16.5547L7.18381 16.076L6.98377 15.9327L6.64243 16.412ZM7.94111 17.2879L7.72324 17.1737L7.99657 16.6535L8.21445 16.7677L7.94111 17.2879ZM8.91401 17.7142L9.15697 17.7552L9.25403 17.1755L9.01107 17.1346L8.91401 17.7142ZM10.2191 17.9547L10.2144 17.3664L10.4607 17.3638L10.4653 17.952L10.2191 17.9547ZM11.0873 4.97412C7.71622 4.97412 4.97363 7.71671 4.97363 11.0878C4.97363 14.4589 7.71622 17.2015 11.0873 17.2015C14.4585 17.2015 17.201 14.4589 17.201 11.0878C17.201 7.71671 14.4585 4.97412 11.0873 4.97412ZM11.5674 18.0074L11.5595 18.008L11.506 17.4231L11.751 17.4006L11.7589 17.3993L11.8124 17.9849L11.5674 18.0074ZM12.775 17.1524L12.8773 17.7314L13.1196 17.6892L13.0173 17.1095L12.775 17.1524ZM14.1278 17.2997L13.9264 16.7471L14.1575 16.6633L14.3588 17.2159L14.1278 17.2997ZM14.8751 16.1576L15.2382 16.6197V16.6191L15.4316 16.4665L15.0679 16.0044L14.8751 16.1576ZM16.1847 15.6976L15.7622 15.2896L15.9325 15.112L16.3551 15.5214L16.1847 15.6976ZM16.4827 14.3572L16.9581 14.7039L17.1033 14.5045L16.6279 14.1585L16.4827 14.3572ZM17.5873 13.5219L17.0314 13.3278L17.1126 13.0954L17.6679 13.2895L17.5873 13.5212V13.5219ZM17.346 12.1553L17.9336 12.1817L17.9449 11.9361L17.3573 11.9091L17.346 12.1553ZM13.4227 14.2121H13.422C13.5204 14.3177 13.5231 14.4788 13.426 14.5752C13.3289 14.671 13.1685 14.6663 13.0635 14.566V14.5667L12.88 14.3818L12.4627 13.9586C12.1919 14.0877 11.8936 14.1483 11.5939 14.1349H10.4464C9.40719 14.1732 8.44722 13.6542 8.52513 11.9667C8.52703 11.916 8.52382 11.4333 8.52185 11.1384L8.52185 11.1382C8.52108 11.0225 8.52051 10.9359 8.52051 10.9156L8.52249 10.2342C8.52051 8.55066 8.93183 7.78744 10.0661 7.51741C10.1948 7.48638 10.8967 7.47119 11.0307 7.47119H11.0908C11.2255 7.47119 11.8448 7.48638 11.9735 7.51741C13.1078 7.78744 13.5191 8.55066 13.5171 10.2342L13.5191 10.9163C13.5191 10.935 13.5186 11.0108 13.5179 11.1138C13.516 11.4052 13.5127 11.9147 13.5151 11.9673C13.5574 12.8785 13.2959 13.2746 12.8833 13.6668L13.2398 14.0266L13.4227 14.2121ZM12.0539 13.544C11.9284 13.581 11.7984 13.5994 11.667 13.5994C11.6491 13.5994 11.6313 13.5994 11.6135 13.5981H10.4363L10.4264 13.5988L10.3729 13.6001C10.126 13.6001 9.77146 13.5367 9.48558 13.237C9.17791 12.9148 9.03068 12.6454 9.06039 11.9918C9.06303 11.9462 9.06303 11.9449 9.05841 11.1249C9.05823 10.9015 9.05823 10.6782 9.05841 10.4548C9.05889 10.2508 9.05937 10.2472 9.0596 10.2455C9.05968 10.2449 9.05973 10.2445 9.05973 10.2336C9.05841 9.48755 9.14292 8.83921 9.32448 8.54673C9.4321 8.37243 9.61828 8.177 10.1821 8.041C10.293 8.02449 10.8608 8.00732 11.0305 8.00732H11.0913C11.3473 8.00883 11.6032 8.02006 11.8584 8.041C12.4216 8.177 12.6078 8.37243 12.7154 8.54673C12.897 8.83921 12.9815 9.48755 12.9808 10.2336C12.9808 10.2442 12.9809 10.2446 12.981 10.2452C12.9812 10.2468 12.9817 10.2503 12.9821 10.4548L12.9828 10.9156L12.9815 11.1249C12.9769 11.9321 12.9775 11.9454 12.9794 11.9897L12.9795 11.9918C13.0092 12.6454 12.8626 12.9148 12.555 13.237C12.5394 13.2537 12.5231 13.2698 12.5061 13.2852L12.1767 12.9511L11.9938 12.7662C11.8888 12.6665 11.7284 12.6619 11.6313 12.7583C11.5343 12.8541 11.5362 13.0145 11.6353 13.1201L11.8188 13.3063L12.0539 13.544Z" fill="white"/>
</svg>
