<svg width="20" height="20" viewBox="0 0 20 20" fill="none" xmlns="http://www.w3.org/2000/svg">
<path fill-rule="evenodd" clip-rule="evenodd" d="M10.0004 19.6C15.3023 19.6 19.6004 15.302 19.6004 10C19.6004 4.69809 15.3023 0.400024 10.0004 0.400024C4.69846 0.400024 0.400391 4.69809 0.400391 10C0.400391 15.302 4.69846 19.6 10.0004 19.6ZM11.0004 5.20002C11.0004 4.64774 10.5527 4.20002 10.0004 4.20002C9.4481 4.20002 9.00039 4.64774 9.00039 5.20002V10C9.00039 10.2652 9.10575 10.5196 9.29328 10.7071L12.6874 14.1012C13.0779 14.4918 13.7111 14.4918 14.1016 14.1012C14.4921 13.7107 14.4921 13.0776 14.1016 12.687L11.0004 9.58581V5.20002Z" fill="#868FA0"/>
</svg>
