<svg width="48" height="48" viewBox="0 0 48 48" fill="none" xmlns="http://www.w3.org/2000/svg">
<rect width="48" height="48" rx="24" fill="#0054F8"/>
<path fill-rule="evenodd" clip-rule="evenodd" d="M30.7071 24.2929C31.0976 24.6834 31.0976 25.3166 30.7071 25.7071L24.7071 31.7071C24.3166 32.0976 23.6834 32.0976 23.2929 31.7071L17.2929 25.7071C16.9024 25.3166 16.9024 24.6834 17.2929 24.2929C17.6834 23.9024 18.3166 23.9024 18.7071 24.2929L23 28.5858L23 17C23 16.4477 23.4477 16 24 16C24.5523 16 25 16.4477 25 17L25 28.5858L29.2929 24.2929C29.6834 23.9024 30.3166 23.9024 30.7071 24.2929Z" fill="white"/>
</svg>
