<svg width="32" height="33" viewBox="0 0 32 33" fill="none" xmlns="http://www.w3.org/2000/svg">
<path fill-rule="evenodd" clip-rule="evenodd" d="M16 32.0016C7.2 32.0016 0 24.8017 0 15.9219C0.08 7.1221 7.2 -0.0777512 16.08 0.00224719C24.88 0.0822455 32 7.2021 32 16.1619C31.92 24.8817 24.8 32.0016 16 32.0016Z" fill="#E42D04"/>
<path fill-rule="evenodd" clip-rule="evenodd" d="M16.3114 27.735C17.4727 27.735 20.4517 27.2114 23.0773 25.1173C26.0964 22.7092 26.3809 21.3662 26.5643 20.5003C26.5803 20.425 26.5955 20.3532 26.6117 20.2846C26.6423 20.1548 26.6602 19.9786 26.6663 19.7692C26.0322 19.6665 25.1433 19.6077 24.106 19.7309C22.4095 19.9322 21.0765 21.0901 20.6221 21.6438C20.3696 20.3853 19.1376 17.8683 16.2293 17.8683C13.3209 17.8683 11.7523 20.3853 11.3316 21.6438C11.0623 21.1739 10.0592 20.1336 8.20106 19.7309C7.05219 19.4819 6.05003 19.6049 5.33301 19.8144C5.38962 20.7503 5.69722 21.7484 6.51591 22.8016C7.92464 24.6139 10.1104 25.7329 11.0856 26.2322C11.194 26.2877 11.2874 26.3355 11.3631 26.3758C12.1205 26.7785 14.1907 27.735 16.3114 27.735Z" fill="white"/>
<path fill-rule="evenodd" clip-rule="evenodd" d="M26.6639 19.7323C26.0301 19.6299 25.1418 19.5712 24.1051 19.694C22.4095 19.8948 21.0773 21.0493 20.6232 21.6015C20.3708 20.3466 19.1396 17.8368 16.2329 17.8368C13.3263 17.8368 11.7586 20.3466 11.338 21.6015C11.0689 21.1329 10.0664 20.0956 8.20937 19.694C7.06117 19.4457 6.05959 19.5684 5.34299 19.7774C5.2914 18.9264 5.4484 18.1272 5.61688 17.385C5.89947 16.1401 6.60931 14.4903 6.92891 13.8211C6.64294 13.1351 5.98021 11.1908 5.61688 8.90185C5.25355 6.61291 5.86919 5.07021 6.22243 4.58499C6.79433 4.73557 8.16019 5.20742 9.04833 5.89008C9.93647 6.57275 11.3023 8.08198 11.8742 8.75126C12.6143 8.55048 14.5185 8.14891 16.214 8.14891C17.9096 8.14891 19.5446 8.55048 20.1501 8.75126C20.6547 8.14891 21.8961 6.73338 22.8246 5.89008C23.7531 5.04679 25.2636 4.63518 25.9028 4.53479C26.071 4.75231 26.4277 5.38812 26.5084 6.19126C26.6093 7.19518 26.3065 9.30342 25.9028 10.7089C25.5799 11.8333 25.1627 13.1518 24.9945 13.6705C25.0786 13.8545 25.3679 14.4535 25.8524 15.3771C26.3661 16.3566 26.6981 18.5641 26.6639 19.7323Z" fill="#FFAA35"/>
<path d="M18.383 24.1991C18.263 24.3597 18.133 24.6675 18.083 24.8012V24.7511L17.933 23.5468C17.6497 23.5802 16.913 23.6471 16.233 23.6471C15.553 23.6471 14.7497 23.5802 14.433 23.5468L14.383 24.7511C14.3497 24.7009 14.263 24.5604 14.183 24.3998C14.083 24.1991 13.733 23.898 13.733 23.7475C13.733 23.6271 13.5663 23.3628 13.483 23.2457L13.333 23.045H14.233L14.433 23.1955C14.5997 23.1788 15.023 23.1654 15.383 23.2457C15.743 23.326 15.9663 23.0116 16.033 22.8443V22.0414C15.883 21.9411 15.513 21.7103 15.233 21.5898C14.883 21.4393 14.533 20.8372 14.633 20.235C14.733 19.6329 15.033 19.4322 15.233 19.4824C15.433 19.5326 16.733 19.4322 16.933 19.4824C17.133 19.5326 17.483 19.6329 17.633 19.8838C17.783 20.1347 17.683 21.1382 17.383 21.4895C17.143 21.7705 16.683 21.9745 16.483 22.0414V22.8443C16.483 22.9446 16.833 23.1955 16.883 23.2457C16.933 23.2959 17.683 23.2457 17.833 23.2457C17.953 23.2457 18.0497 23.1454 18.083 23.0952H18.933V23.2959C18.933 23.3963 18.783 23.8479 18.733 23.898C18.683 23.9482 18.533 23.9984 18.383 24.1991Z" fill="black"/>
<path d="M16.7748 23.8683L16.2669 24.2683L15.8605 23.8683L15.505 24.0461L15.2002 23.735H17.3335L17.0288 24.0905L16.7748 23.8683Z" fill="black"/>
<path d="M11.3077 15.6628C10.7126 15.4167 10.068 15.2526 9.82001 15.2013C9.75389 15.2354 9.62165 15.3449 9.62165 15.509C9.62165 15.7141 9.57206 15.9192 9.62165 16.3295C9.67124 16.7398 10.068 16.9962 10.7622 17.3039C11.4565 17.6116 12.6466 17.868 13.4897 17.868C14.3327 17.868 13.5393 16.9962 13.2417 16.791C12.9442 16.5859 12.0516 15.9705 11.3077 15.6628Z" fill="black"/>
<path d="M12.122 14.302C11.6773 14.3816 11.0608 14.4015 10.8081 14.4015C10.5554 14.3684 10.0198 14.2126 9.89848 13.8547C9.74688 13.4074 10.1512 12.9103 10.6565 12.6618C11.1619 12.4133 11.8188 12.5127 12.2231 13.1091C12.6274 13.7056 12.6779 14.2026 12.122 14.302Z" fill="white"/>
<path d="M21.2246 15.3962C21.8197 15.1501 22.4643 14.986 22.7123 14.9347C22.7784 14.9688 22.9106 15.0783 22.9106 15.2424C22.9106 15.4475 22.9602 15.6526 22.9106 16.0629C22.8611 16.4732 22.4643 16.7296 21.7701 17.0373C21.0758 17.3449 19.8857 17.6014 19.0426 17.6014C18.1996 17.6014 18.993 16.7296 19.2906 16.5244C19.5881 16.3193 20.4807 15.7039 21.2246 15.3962Z" fill="black"/>
<path d="M19.611 14.302C20.0558 14.3816 20.6723 14.4015 20.925 14.4015C21.1776 14.3683 21.7133 14.2126 21.8346 13.8547C21.9862 13.4074 21.5819 12.9103 21.0766 12.6618C20.5712 12.4133 19.9143 12.5127 19.51 13.1091C19.1057 13.7056 19.0552 14.2026 19.611 14.302Z" fill="white"/>
<path d="M8.64722 10.5815C8.28382 10.9784 7.58731 11.8714 7.28448 12.2683C7.0826 11.8383 6.63845 10.6906 6.47694 9.5396C6.31543 8.3886 6.44329 6.61247 6.52741 5.86829C6.74612 5.88483 7.38543 6.06674 8.19297 6.66208C9.00052 7.25743 10.1782 8.36545 10.6661 8.84503C10.1445 9.25847 9.01061 10.1846 8.64722 10.5815Z" fill="#FF8C30"/>
<path fill-rule="evenodd" clip-rule="evenodd" d="M6.39941 6.81333C7.19314 7.14455 8.23793 7.65087 8.67577 8.10848C9.11993 8.57269 9.51066 9.18719 9.74263 9.60162C10.0909 9.31287 10.4369 9.03548 10.6661 8.85522C10.1728 8.37399 8.98198 7.26219 8.16544 6.6648C7.3489 6.06741 6.70248 5.88488 6.48133 5.86829C6.45493 6.10009 6.42427 6.43169 6.39941 6.81333Z" fill="#FF9A32"/>
<path d="M23.0853 10.5815C23.4487 10.9784 24.1452 11.8714 24.448 12.2683C24.6499 11.8383 25.094 10.6906 25.2556 9.5396C25.4171 8.3886 25.2892 6.61247 25.2051 5.86829C24.9863 5.88483 24.3471 6.06674 23.5395 6.66208C22.732 7.25743 21.5543 8.36545 21.0664 8.84503C21.588 9.25847 22.7219 10.1846 23.0853 10.5815Z" fill="#FF8C30"/>
<path fill-rule="evenodd" clip-rule="evenodd" d="M25.3331 6.81333C24.5393 7.14455 23.4946 7.65087 23.0567 8.10848C22.6125 8.57269 22.2218 9.18719 21.9899 9.60162C21.6417 9.31287 21.2955 9.03548 21.0664 8.85522C21.5597 8.37399 22.7505 7.26219 23.567 6.6648C24.3836 6.06741 25.0299 5.88488 25.2511 5.86829C25.2775 6.10009 25.3082 6.43169 25.3331 6.81333Z" fill="#FF9A32"/>
</svg>
