<svg width="101" height="30" viewBox="0 0 101 30" fill="none" xmlns="http://www.w3.org/2000/svg">
<path d="M5.55115 25.7776L1 27.2454V29.8874H100V9.3388L97.4023 5.52264L93.9388 11.6872L91.9184 13.4485L88.4548 9.63235L86.4344 4.64199L83.2595 3.46778L79.5073 9.63235L77.8006 8.1646L73.8184 10.2195L70.9739 18.1453L68.6983 13.7421L65.5694 12.5679L64.4316 8.1646L59.596 9.3388L55.6138 2.00003L53.8192 7.5775L49.2012 9.63235L48.0466 14.9163L44.0058 16.9711L40.8309 13.4485L39.3878 19.026L35.9869 23.4292L32.2891 20.4937L29.7291 21.9615L28.5913 16.9711L25.4624 13.7421L23.4713 18.1453L19.489 21.0808L15.7912 19.9066L12.0934 23.4292L8.11117 22.5486L5.55115 25.7776Z" fill="url(#paint0_linear_62_477)"/>
<path d="M1 26.9824L5.55115 25.53L8.11117 22.3345L12.0934 23.206L15.7912 19.7201L19.489 20.8821L23.4713 17.9771L25.4624 13.6197L28.5913 16.8152L29.7291 21.7536L32.2891 20.3011L35.9869 23.206L39.3878 18.8486L40.8309 13.3293L44.0058 16.8152L48.0466 14.7817L49.2012 9.55285L53.8192 7.5194L55.6138 2.00003L59.596 9.26236L64.4316 8.10038L65.5694 12.4578L68.6983 13.6197L70.9739 17.9771L73.8184 10.1338L77.8006 8.10038L79.5073 9.55285L83.2595 3.4525L86.4344 4.61447L88.4548 9.55285L91.9184 13.3293L93.9388 11.5863L97.4023 5.48595L100 9.26236" stroke="#5BC08E" stroke-width="1.15452"/>
<defs>
<linearGradient id="paint0_linear_62_477" x1="50.5" y1="-8.49748" x2="50.5317" y2="33.3732" gradientUnits="userSpaceOnUse">
<stop stop-color="#57E8A0" stop-opacity="0.32"/>
<stop offset="1" stop-color="#57E8A0" stop-opacity="0"/>
</linearGradient>
</defs>
</svg>
