<svg width="32" height="32" viewBox="0 0 32 32" fill="none" xmlns="http://www.w3.org/2000/svg">
<circle cx="16" cy="16.0005" r="16" fill="#0A0A0A"/>
<path d="M9.91893 19.7908C10.0298 19.68 10.1823 19.6153 10.344 19.6153H25.0073C25.2752 19.6153 25.4092 19.9387 25.2198 20.1281L22.3232 23.0247C22.2123 23.1356 22.0598 23.2003 21.8981 23.2003H7.23481C6.96686 23.2003 6.83289 22.8769 7.0223 22.6875L9.91893 19.7908Z" fill="url(#paint0_linear_88_547)"/>
<path d="M9.91893 8.97585C10.0344 8.86497 10.1869 8.80029 10.344 8.80029H25.0073C25.2752 8.80029 25.4092 9.12368 25.2198 9.31309L22.3232 12.2097C22.2123 12.3206 22.0598 12.3853 21.8981 12.3853H7.23481C6.96686 12.3853 6.83289 12.0619 7.0223 11.8725L9.91893 8.97585Z" fill="url(#paint1_linear_88_547)"/>
<path d="M22.3232 14.3489C22.2123 14.238 22.0598 14.1733 21.8981 14.1733H7.23481C6.96686 14.1733 6.83289 14.4967 7.0223 14.6861L9.91893 17.5828C10.0298 17.6936 10.1823 17.7583 10.344 17.7583H25.0073C25.2752 17.7583 25.4092 17.4349 25.2198 17.2455L22.3232 14.3489Z" fill="url(#paint2_linear_88_547)"/>
<defs>
<linearGradient id="paint0_linear_88_547" x1="-26.2081" y1="6.07994" x2="-26.5982" y2="25.7117" gradientUnits="userSpaceOnUse">
<stop stop-color="#00FFA3"/>
<stop offset="1" stop-color="#DC1FFF"/>
</linearGradient>
<linearGradient id="paint1_linear_88_547" x1="-30.6454" y1="3.76329" x2="-31.0356" y2="23.3951" gradientUnits="userSpaceOnUse">
<stop stop-color="#00FFA3"/>
<stop offset="1" stop-color="#DC1FFF"/>
</linearGradient>
<linearGradient id="paint2_linear_88_547" x1="-28.4409" y1="4.91444" x2="-28.831" y2="24.5462" gradientUnits="userSpaceOnUse">
<stop stop-color="#00FFA3"/>
<stop offset="1" stop-color="#DC1FFF"/>
</linearGradient>
</defs>
</svg>
