<svg width="28" height="28" viewBox="0 0 28 28" fill="none" xmlns="http://www.w3.org/2000/svg">
<circle cx="14" cy="14" r="14" fill="#172852"/>
<path d="M11.278 6.25655C12.9174 5.64335 14.7626 5.64195 16.4328 6.14595C18.607 6.82075 20.4424 8.46155 21.4014 10.521C21.666 11.1076 21.9194 11.7194 21.9446 12.3718C20.7224 11.6634 19.3826 11.2042 18.04 10.7856C15.8924 10.0114 13.644 9.47375 11.6112 8.40975C11.138 8.12695 10.5346 7.83715 10.4058 7.24775C10.354 6.73815 10.893 6.45395 11.278 6.25655Z" fill="#FFD83D"/>
<path d="M6.32824 11.2126C6.80284 9.92457 7.58124 8.72897 8.63824 7.84277C8.90704 10.0534 9.84784 12.1898 11.4018 13.797C13.2652 15.7332 15.9196 16.9218 18.6202 16.877C19.6926 16.9106 20.7412 16.6628 21.787 16.4626C20.758 20.181 16.6826 22.6492 12.9068 22.0556C10.6276 21.7644 8.52344 20.4148 7.25364 18.5094C5.82144 16.4038 5.46024 13.608 6.32824 11.2126Z" fill="#FFD83D"/>
<path d="M18.0391 10.7856C19.3817 11.2042 20.7215 11.6634 21.9437 12.3718L22.0263 12.4152C22.1397 13.2678 22.2223 14.1372 22.0711 14.9912C21.4565 14.7308 20.9581 14.273 20.4373 13.8684C19.4349 13.034 18.4115 12.0792 18.0391 10.7856Z" fill="#FF6F03"/>
</svg>
