<svg width="32" height="32" viewBox="0 0 32 32" fill="none" xmlns="http://www.w3.org/2000/svg">
<path d="M16 32.0007C24.8667 32.0007 32 24.8675 32 16.0007C32 7.13401 24.8667 0.000732422 16 0.000732422C7.13328 0.000732422 0 7.13401 0 16.0007C0 24.8675 7.13328 32.0007 16 32.0007Z" fill="#D4E5F7"/>
<path d="M20.4001 18.534C20.4001 16.2007 19.0001 15.4007 16.2001 15.0674C14.2001 14.8007 13.8001 14.2674 13.8001 13.334C13.8001 12.4006 14.4668 11.8007 15.8001 11.8007C17.0001 11.8007 17.6668 12.2007 18.0001 13.2007C18.0668 13.4007 18.2668 13.534 18.4668 13.534H19.5334C19.8001 13.534 20.0001 13.334 20.0001 13.0674V13.0007C19.7334 11.534 18.5334 10.4007 17.0001 10.2674V8.66744C17.0001 8.40072 16.8001 8.20072 16.4668 8.134H15.4668C15.2001 8.134 15.0001 8.334 14.9334 8.66744V10.2007C12.9334 10.4674 11.6668 11.8007 11.6668 13.4674C11.6668 15.6674 13.0001 16.534 15.8001 16.8674C17.6668 17.2007 18.2668 17.6007 18.2668 18.6674C18.2668 19.7342 17.3334 20.4674 16.0668 20.4674C14.3334 20.4674 13.7334 19.734 13.5334 18.734C13.4668 18.4674 13.2668 18.334 13.0668 18.334H11.9334C11.6668 18.334 11.4668 18.534 11.4668 18.8007V18.8674C11.7334 20.534 12.8001 21.734 15.0001 22.0674V23.6674C15.0001 23.934 15.2001 24.134 15.5334 24.2007H16.5334C16.8001 24.2007 17.0001 24.0007 17.0668 23.6674V22.0674C19.0668 21.734 20.4001 20.334 20.4001 18.534Z" fill="#2775CA"/>
<path fill-rule="evenodd" clip-rule="evenodd" d="M6.66704 12.7338C4.7336 17.8672 7.40032 23.6672 12.6003 25.5338C12.8003 25.6672 13.0003 25.9338 13.0003 26.1338V27.0672C13.0003 27.2005 13.0003 27.2672 12.9336 27.3338C12.867 27.6005 12.6003 27.7338 12.3336 27.6005C8.60032 26.4005 5.7336 23.5338 4.5336 19.8005C2.5336 13.4672 6.00032 6.7338 12.3336 4.7338C12.4003 4.66724 12.5336 4.66724 12.6003 4.66724C12.867 4.7338 13.0003 4.9338 13.0003 5.20052V6.1338C13.0003 6.46724 12.867 6.66724 12.6003 6.80052C9.86704 7.80052 7.66704 9.9338 6.66704 12.7338ZM19.0667 5.0004C19.1333 4.73368 19.4 4.6004 19.6667 4.73368C23.3333 5.93368 26.2667 8.8004 27.4667 12.6004C29.4667 18.9337 26 25.6671 19.6667 27.6671C19.6 27.7337 19.4667 27.7337 19.4 27.7337C19.1333 27.6671 19 27.4671 19 27.2004V26.2671C19 25.9337 19.1333 25.7337 19.4 25.6004C22.1333 24.6004 24.3333 22.4671 25.3333 19.6671C27.2667 14.5337 24.6 8.73368 19.4 6.86712C19.2 6.73368 19 6.46712 19 6.2004V5.26712C19 5.13368 19 5.06712 19.0667 5.0004Z" fill="#2775CA"/>
</svg>
