<svg width="32" height="32" viewBox="0 0 32 32" fill="none" xmlns="http://www.w3.org/2000/svg">
<path d="M31.5213 19.8713C29.3841 28.4428 20.7016 33.6593 12.1281 31.5218C3.55818 29.3849 -1.65886 20.7028 0.479231 12.132C2.61545 3.55956 11.298 -1.65729 19.8688 0.479629C28.4417 2.61654 33.6584 11.2996 31.521 19.8715L31.5212 19.8713H31.5213Z" fill="#CFD8E1"/>
<path d="M23.8701 6.66736H27.0993L20.3792 13.3204C17.9456 15.7284 13.9999 15.7284 11.5645 13.3204L4.8418 6.66736H8.07355L13.1791 11.7213C14.7269 13.2466 17.2129 13.2466 18.7607 11.7213L23.8701 6.66736Z" fill="#23292F"/>
<path d="M8.0321 25.1674H4.80078L11.5645 18.4734C13.9982 16.0653 17.9438 16.0653 20.3792 18.4734L27.1429 25.1674H23.9138L18.7646 20.0725C17.2168 18.5472 14.7308 18.5472 13.183 20.0725L8.0321 25.1674Z" fill="#23292F"/>
</svg>
