<svg width="28" height="28" viewBox="0 0 28 28" fill="none" xmlns="http://www.w3.org/2000/svg">
<path d="M27.5811 17.3867C25.7111 24.8867 18.1139 29.4511 10.6121 27.5809C3.11341 25.7111 -1.45151 18.1142 0.419327 10.6148C2.28852 3.11387 9.88573 -1.45087 17.3852 0.418928C24.8865 2.28873 29.4511 9.88639 27.5809 17.3868L27.581 17.3867H27.5811Z" fill="#CFD8E1"/>
<path d="M20.8861 5.83301H23.7116L17.8315 11.6544C15.7021 13.7614 12.2497 13.7614 10.1187 11.6544L4.23633 5.83301H7.06411L11.5315 10.2552C12.8858 11.5898 15.061 11.5898 16.4154 10.2552L20.8861 5.83301Z" fill="#23292F"/>
<path d="M7.02858 22.0206H4.20117L10.1194 16.1633C12.2489 14.0562 15.7013 14.0562 17.8323 16.1633L23.7505 22.0206H20.9251L16.4195 17.5625C15.0652 16.2278 12.89 16.2278 11.5356 17.5625L7.02858 22.0206Z" fill="#23292F"/>
</svg>
